<svg xmlns="http://www.w3.org/2000/svg" xmlns:xlink="http://www.w3.org/1999/xlink" width="1920" height="1080" viewBox="0 0 1920 1080">
  <defs>
    <linearGradient id="linear-gradient" y1="0.5" x2="1" y2="0.5" gradientUnits="objectBoundingBox">
      <stop offset="0" stop-color="#f1841d"/>
      <stop offset="0.15" stop-color="#f1841d"/>
      <stop offset="1" stop-color="#f1841d"/>
    </linearGradient>
    <linearGradient id="linear-gradient-2" x1="0" y1="0.5" x2="1" y2="0.5" xlink:href="#linear-gradient"/>
    <clipPath id="clip-PAGE_oficial_3">
      <rect width="1920" height="1080"/>
    </clipPath>
  </defs>
  <g id="PAGE_oficial_3" data-name="PAGE_oficial – 3" clip-path="url(#clip-PAGE_oficial_3)">
    <rect width="1920" height="1080" fill="#fff"/>
    <g id="Camada_2" data-name="Camada 2" transform="translate(499.016 79.709)">
      <g id="Camada_1" data-name="Camada 1" transform="translate(-0.016)">
        <rect id="Retângulo_3280" data-name="Retângulo 3280" width="917.888" height="921.291" transform="translate(1.221)" fill="#fde1c7" opacity="0.39"/>
        <path id="Caminho_19093" data-name="Caminho 19093" d="M848.758.75V145.626a396.24,396.24,0,0,1-74.5-.5C684.231,136.118,579.485,70.414,552.89.75Z" transform="translate(71.032 0.101)" fill="#8c1d14"/>
        <path id="Caminho_19094" data-name="Caminho 19094" d="M846.94.75V130.763a397.6,397.6,0,0,1-70.663-.454C690.933,122.231,591.622,63.266,566.4.75Z" transform="translate(72.85 0.101)" fill="#d62f21"/>
        <path id="Caminho_19095" data-name="Caminho 19095" d="M1.35.63V145.5a396.368,396.368,0,0,0,74.486-.511C165.889,135.987,270.623,70.26,297.23.63Z" transform="translate(0.2 0.085)" fill="#8c1d14"/>
        <path id="Caminho_19096" data-name="Caminho 19096" d="M1.35.63V130.643a397.6,397.6,0,0,0,70.663-.454C157.357,122.111,256.668,63.146,281.913.63Z" transform="translate(0.2 0.085)" fill="#d62f21"/>
        <path id="Caminho_19097" data-name="Caminho 19097" d="M278.693,88.2c3.268,12.7,9.077,40.6-22.17,113.686-29.148,68.076-56.73,89.27-85.889,118.281-43.568,43.307-59.521,55.175-63.265,59.294-3.948,4.345-18.154,18.006-25.415,30.634a76.744,76.744,0,0,0-8.509,23.078c-5.265,24.235-3.256,45.384-2.428,53.451,4.13,40.221,7.193,47.766,12.152,88.669,2.8,23.191,6.059,55.777,6.07,55.879h0s-2.269,11.641-3.642,14.58c-5.537,11.72-83.847,14.909-84.278-3.4-3.166-135.629.715-358.532.216-502.626,0-6.388,14.75,0,44.975-.726,91.46-2.088,159.683-47.415,166.139-52.713.42-.34,5.741-4.436,6.184-4.754L248.218,59.35S275.04,74,278.693,88.2Z" transform="translate(0.027 7.988)" fill="#d62f21"/>
        <path id="Caminho_19098" data-name="Caminho 19098" d="M569.717,88.171c-3.268,12.7-9.077,40.6,22.17,113.686,29.148,68.076,56.73,89.259,85.9,118.281,43.534,43.307,59.51,55.164,63.265,59.294,3.949,4.345,18.154,17.995,25.415,30.634a76.9,76.9,0,0,1,8.5,23.089c5.276,24.224,3.256,45.384,2.428,53.451-4.13,40.221-7.193,47.766-12.14,88.669-2.814,23.191-6.07,55.777-6.081,55.879h0s2.269,11.641,3.642,14.579c5.537,11.72,83.858,14.909,84.278-3.4,3.177-135.629-.7-358.532-.2-502.625,0-6.388-14.75,0-44.987-.726-91.448-2.088-159.672-47.415-166.127-52.713-.42-.34-5.741-4.436-6.184-4.754L600.2,59.33S573.37,73.966,569.717,88.171Z" transform="translate(72.937 7.986)" fill="#d62f21"/>
        <path id="Caminho_19099" data-name="Caminho 19099" d="M769.986.29c-44.02,80.329-180.955,158.628-328.455,158.628-149.057,0-283.2-78.049-324.3-158.628Z" transform="translate(15.797 0.039)" fill="#8c1d14"/>
        <path id="Caminho_19100" data-name="Caminho 19100" d="M748.882.29C707.552,73.052,579.1,143.975,440.737,143.975,300.824,143.975,175,73.278,136.45.29Z" transform="translate(18.384 0.039)" fill="#d62f21"/>
        <path id="Caminho_19101" data-name="Caminho 19101" d="M0,369.617c0-3.563,4.663-3.585,9.281-4.107,10.608-1.191,13.615-2.394,30.237-5.571,5.855-1.135,12.481-1.679,25.869-2.78,24.371-2.031,26.232-2.269,26.64-.908.136.465-1.94,2.088-5.923,7.625-5.355,7.443-4.3,7.035-6.161,10.506a32,32,0,0,0-3.188,7.67c-1.135,3.336-.533,6.876-2.893,8.714-1.611,1.259-4.38,1.066-5.48,1.135-10.211,1.01-24.348.919-24.348.919-17.9-.828-19.833-.658-27.627-1.191-2.269-.159-4.311-.272-9.451-.919-.919-.113-6.887-.3-6.876-.9C.263,381.042-.1,385.932,0,369.617Z" transform="translate(0.016 47.835)" fill="#8c1d14"/>
        <path id="Caminho_19102" data-name="Caminho 19102" d="M825.806,370.427c0-3.551-4.663-3.585-9.281-4.1-10.609-1.191-13.615-2.405-30.237-5.571-5.854-1.135-12.481-1.679-25.869-2.791-24.371-2.031-26.22-2.269-26.629-.908-.136.477,1.929,2.088,5.911,7.624,5.355,7.443,4.3,7.034,6.161,10.518a32.217,32.217,0,0,1,3.2,7.67c1.135,3.324.533,6.864,2.882,8.7,1.622,1.271,4.38,1.066,5.48,1.135,10.211,1,24.348.908,24.348.908,17.915-.817,19.833-.647,27.627-1.191,2.269-.159,4.311-.272,9.451-.919.919-.113,6.9-.284,6.887-.885C825.591,381.852,825.931,386.742,825.806,370.427Z" transform="translate(95.379 47.944)" fill="#8c1d14"/>
        <ellipse id="Elipse_111" data-name="Elipse 111" cx="259.153" cy="16.713" rx="259.153" ry="16.713" transform="translate(199.88 649.442)" fill="#1d1d1b" stroke="#fff" stroke-miterlimit="10" stroke-width="1" opacity="0.4"/>
        <path id="Caminho_19103" data-name="Caminho 19103" d="M524.1,560.79H508.6l9.587,32.1,17.53.2Z" transform="translate(66.285 75.479)" fill="#020304"/>
        <path id="Caminho_19104" data-name="Caminho 19104" d="M300.4,593.092H284.9l9.587-32.1,17.529-.2Z" transform="translate(37.139 75.479)" fill="#020304"/>
        <path id="Caminho_19105" data-name="Caminho 19105" d="M609.3,553.274a11.493,11.493,0,0,1-2.723,7.534,8.794,8.794,0,0,1-6.592,3.12H254.2c-5.14,0-9.315-4.777-9.315-10.654a11.5,11.5,0,0,1,2.723-7.545,9.315,9.315,0,0,1,3.971-2.689c27.23,5.242,97.405,8.975,179.674,8.975,76.608,0,142.732-3.234,173.468-7.942a11.028,11.028,0,0,1,4.584,9.2Z" transform="translate(31.29 73.09)" fill="#5b5153"/>
        <path id="Caminho_19106" data-name="Caminho 19106" d="M669.422,412.5c0,49.378-2.647,97.882-5.216,132.35-.687,9.258-1.9,23.906-2.918,30.94-1.4,9.746-11.546,9.394-21.324,10.96-2.647.42-18.485,1.657-21.335,1.759-48.179,1.793-102.666,7.829-175.661,5.673-81.928-2.439-167.787-1.691-213.454-9.281a91.888,91.888,0,0,1-9.293-2.269,21.777,21.777,0,0,1-15.771-16.917c-.946-5.094-1.757-10.983-2.456-17.541-3.526-32.767-4.224-82.406-4.224-136.151,0-49.843,1.3-89.973,4.7-117.692a186.37,186.37,0,0,1,4.359-24.485,21.612,21.612,0,0,1,15.6-15.362q4.112-1.044,8.64-1.952C277.558,243,357.086,242.319,436.085,242c76.521-.261,155.047,2.859,202.877,10.892q3.954.669,7.626,1.373a21.8,21.8,0,0,1,17.235,17.019,188.743,188.743,0,0,1,2.816,20.253C669.275,319.529,669.422,360.975,669.422,412.5Z" transform="translate(26.637 32.57)" fill="#f1841d"/>
        <path id="Caminho_19107" data-name="Caminho 19107" d="M474.534,595.484c-10.138,0-20.592-.147-31.486-.465-21.606-.647-43.561-1.067-64.807-1.475-59.186-1.135-115.083-2.269-148.765-7.817a83.4,83.4,0,0,1-8.832-2.122l-.552-.148a22.626,22.626,0,0,1-16.3-17.507c-.924-4.992-1.757-10.915-2.478-17.6-3.717-34.685-4.224-88.34-4.224-136.253,0-53.439,1.543-91.97,4.7-117.782a189.223,189.223,0,0,1,4.382-24.587,22.369,22.369,0,0,1,16.143-15.884c2.715-.692,5.632-1.35,8.685-1.974,45.139-9.247,119.645-10.211,205.2-10.54,86.053-.284,160.052,3.687,203.017,10.9,2.647.442,5.2.9,7.649,1.373a22.528,22.528,0,0,1,17.844,17.632,188.62,188.62,0,0,1,2.8,20.321c2.569,27.537,2.76,67.531,2.76,121.027,0,51.635-2.839,100.5-5.216,132.407-.394,5.219-1.757,22.885-2.918,31-1.284,8.872-9.237,9.894-17.663,10.994-1.419.181-2.873.363-4.315.6-2.625.42-18.35,1.656-21.4,1.77-14.081.522-28.7,1.418-44.192,2.349C545.075,593.5,512.407,595.484,474.534,595.484ZM445,242.829h-8.775c-85.478.3-159.906,1.293-204.909,10.518-3.03.613-5.925,1.259-8.606,1.94a20.866,20.866,0,0,0-15.05,14.84,188.161,188.161,0,0,0-4.337,24.382c-3.154,25.755-4.686,64.23-4.686,117.6,0,47.88.5,101.49,4.213,136.151.71,6.649,1.543,12.481,2.456,17.484a21.121,21.121,0,0,0,15.208,16.315l.552.148a83.033,83.033,0,0,0,8.663,2.054c33.569,5.571,89.421,6.649,148.539,7.795,21.257.408,43.224.828,64.818,1.475,51.6,1.532,93.995-1.032,131.383-3.3,15.489-.942,30.122-1.827,44.226-2.36,2.873-.1,18.689-1.35,21.246-1.759,1.453-.227,2.918-.42,4.36-.6,8.167-1.055,15.219-1.974,16.334-9.7,1.126-8.067,2.523-25.687,2.918-30.895,2.377-31.882,5.2-80.7,5.2-132.294,0-53.451-.191-93.411-2.749-120.891a187.881,187.881,0,0,0-2.782-20.139,21,21,0,0,0-16.638-16.44c-2.433-.477-4.979-.93-7.6-1.373C597.558,246.778,527.2,242.829,445,242.829Z" transform="translate(26.546 32.48)" fill="none"/>
        <path id="Caminho_19108" data-name="Caminho 19108" d="M445.585,569.6c-8.578,0-21.194.284-30.43,0-18.3-.579-33.187.908-51.17.545-50.138-1.021-96.815-1.917-126.848-4.924a39.7,39.7,0,0,1-7.466-1.861l-.465-.136c-7.08-2.042-10.211-6.989-11.562-14.455-.783-4.47-1.793-17.541-2.405-23.509-3.154-31.02-4.13-72.4-4.13-115.241,0-47.789-.091-82.258,2.6-105.347a173.814,173.814,0,0,1,3.71-21.977,19.447,19.447,0,0,1,13.672-14.239,47.767,47.767,0,0,1,7.352-1.759c39.007-4.425,101.887-7.466,174.376-7.738,72.886-.25,129.276-.885,166.093,3.4,2.269.272,15.884,2.02,18.414,4.538,5.514,5.4,5.5,7.114,7.068,15.135.976,4.981,1.747,14.239,2.371,21.489,2.167,24.632,1.566,59,1.566,106.822,0,46.167-.181,89.928-2.2,118.452-.329,4.674-.511,12.537-1.5,19.787-1.135,7.942-7.534,14.307-14.659,15.283-1.214.159-16.191,1.861-17.427,1.906-3.256.125-13.173.715-15.771.817-11.936.465-18.687.454-31.769,1.135C497.028,569.058,477.615,569.6,445.585,569.6Z" transform="translate(26.887 34.83)" fill="#1a1a1a"/>
        <rect id="Retângulo_3281" data-name="Retângulo 3281" width="331.177" height="252.311" rx="22.94" transform="translate(272.407 320.012)" fill="#ededed"/>
        <g id="Grupo_3256" data-name="Grupo 3256" transform="translate(223.184 273.956)" opacity="0.57">
          <path id="Caminho_19109" data-name="Caminho 19109" d="M670.464,412.25c0,48.992-2.644,97.121-5.208,131.318-.692,9.19-1.895,23.724-2.916,30.7-1.4,9.667-11.539,9.326-21.3,10.87-2.632.42-18.46,1.645-21.3,1.759-48.1,1.77-102.511,7.761-175.386,5.6-81.8-2.417-167.534-1.679-213.122-9.2-3.313-.556-6.388-1.418-9.281-2.2a21.557,21.557,0,0,1-15.726-16.781c-.953-5.06-1.759-10.892-2.462-17.4-3.517-32.506-4.221-81.77-4.221-135.119,0-49.457,1.3-89.281,4.7-116.784a185.332,185.332,0,0,1,4.346-24.292,21.557,21.557,0,0,1,15.567-15.249q4.107-1.021,8.634-1.94c46.416-9.451,125.815-10.211,204.738-10.45,76.4-.25,154.8,2.837,202.559,10.813,2.632.442,5.174.885,7.624,1.361a21.694,21.694,0,0,1,17.2,16.906,188.077,188.077,0,0,1,2.8,20.082C670.3,320,670.464,361.125,670.464,412.25Z" transform="translate(-198.007 -241.241)" fill="none"/>
          <path id="Caminho_19110" data-name="Caminho 19110" d="M476.438,594.932c-10.155,0-20.661-.136-31.587-.465-21.659-.635-43.693-1.055-65-1.464-59.351-1.135-115.411-2.212-149.2-7.806a85.188,85.188,0,0,1-8.85-2.076l-.545-.147a22.692,22.692,0,0,1-16.349-17.541c-.93-4.992-1.759-10.9-2.485-17.575-3.733-34.605-4.232-88.147-4.232-135.958,0-53.326,1.543-91.777,4.709-117.533a187.519,187.519,0,0,1,4.4-24.53,22.351,22.351,0,0,1,16.191-15.884c2.712-.681,5.673-1.35,8.7-1.963,45.27-9.236,119.995-10.211,205.8-10.518,86.3-.284,160.511,3.676,203.6,10.881,2.655.442,5.219.9,7.67,1.373a22.522,22.522,0,0,1,17.893,17.586,186.745,186.745,0,0,1,2.8,20.309c2.564,27.48,2.757,67.395,2.757,120.778,0,51.522-2.836,100.287-5.23,132.124-.386,5.208-1.759,22.839-2.927,30.929-1.282,8.85-9.258,9.882-17.711,10.971-1.43.182-2.882.374-4.323.6-2.644.42-18.415,1.657-21.489,1.77-14.126.522-28.8,1.407-44.317,2.349C547.123,592.924,514.39,594.932,476.438,594.932ZM446.8,243H438c-85.73.295-160.364,1.293-205.5,10.5-3.041.613-5.945,1.271-8.634,1.94a20.843,20.843,0,0,0-15.09,14.75,185.326,185.326,0,0,0-4.345,24.337c-3.166,25.7-4.709,64.082-4.709,117.351,0,47.778.5,101.263,4.232,135.8.715,6.637,1.543,12.481,2.462,17.45a21.1,21.1,0,0,0,15.249,16.281l.545.148a84.344,84.344,0,0,0,8.7,2.054c33.663,5.56,89.633,6.637,148.972,7.772,21.308.408,43.342.828,65,1.475,51.76,1.532,94.262-1.032,131.772-3.3,15.533-.93,30.2-1.815,44.351-2.349,2.882-.1,18.744-1.35,21.308-1.747,1.452-.238,2.916-.42,4.368-.613,8.192-1.055,15.272-1.963,16.384-9.678,1.135-8.044,2.53-25.631,2.916-30.827,2.394-31.769,5.23-80.556,5.23-132.01,0-53.326-.193-93.218-2.757-120.63a183.806,183.806,0,0,0-2.791-20.116,21.013,21.013,0,0,0-16.679-16.406q-3.676-.715-7.636-1.362C599.814,246.929,529.276,243,446.8,243Z" transform="translate(-198.19 -241.457)" fill="#fff"/>
        </g>
        <rect id="Retângulo_3282" data-name="Retângulo 3282" width="4.13" height="91.278" rx="1.34" transform="translate(648.19 302.494)" fill="#494443"/>
        <rect id="Retângulo_3283" data-name="Retângulo 3283" width="4.13" height="91.278" rx="1.34" transform="translate(654.746 302.665)" fill="#494443"/>
        <rect id="Retângulo_3284" data-name="Retângulo 3284" width="4.13" height="91.278" rx="1.34" transform="translate(660.998 302.665)" fill="#494443"/>
        <rect id="Retângulo_3285" data-name="Retângulo 3285" width="4.13" height="91.278" rx="1.34" transform="translate(667.249 302.494)" fill="#494443"/>
        <rect id="Retângulo_3286" data-name="Retângulo 3286" width="4.13" height="91.278" rx="1.34" transform="translate(673.33 302.665)" fill="#494443"/>
        <ellipse id="Elipse_112" data-name="Elipse 112" cx="3.676" cy="3.733" rx="3.676" ry="3.733" transform="translate(645.616 547.51)" fill="#494443"/>
        <ellipse id="Elipse_113" data-name="Elipse 113" cx="3.676" cy="3.733" rx="3.676" ry="3.733" transform="translate(657.903 547.51)" fill="#494443"/>
        <ellipse id="Elipse_114" data-name="Elipse 114" cx="3.676" cy="3.733" rx="3.676" ry="3.733" transform="translate(670.043 547.51)" fill="#494443"/>
        <ellipse id="Elipse_115" data-name="Elipse 115" cx="3.676" cy="3.733" rx="3.676" ry="3.733" transform="translate(645.503 560.41)" fill="#494443"/>
        <ellipse id="Elipse_116" data-name="Elipse 116" cx="3.676" cy="3.733" rx="3.676" ry="3.733" transform="translate(657.79 560.41)" fill="#494443"/>
        <ellipse id="Elipse_117" data-name="Elipse 117" cx="3.676" cy="3.733" rx="3.676" ry="3.733" transform="translate(669.93 560.41)" fill="#494443"/>
        <ellipse id="Elipse_118" data-name="Elipse 118" cx="3.676" cy="3.733" rx="3.676" ry="3.733" transform="translate(645.593 572.846)" fill="#494443"/>
        <ellipse id="Elipse_119" data-name="Elipse 119" cx="3.676" cy="3.733" rx="3.676" ry="3.733" transform="translate(657.88 572.846)" fill="#494443"/>
        <ellipse id="Elipse_120" data-name="Elipse 120" cx="3.676" cy="3.733" rx="3.676" ry="3.733" transform="translate(670.021 572.846)" fill="#494443"/>
        <ellipse id="Elipse_121" data-name="Elipse 121" cx="3.676" cy="3.733" rx="3.676" ry="3.733" transform="translate(645.593 585.644)" fill="#494443"/>
        <ellipse id="Elipse_122" data-name="Elipse 122" cx="3.676" cy="3.733" rx="3.676" ry="3.733" transform="translate(657.88 585.644)" fill="#494443"/>
        <ellipse id="Elipse_123" data-name="Elipse 123" cx="3.676" cy="3.733" rx="3.676" ry="3.733" transform="translate(670.021 585.644)" fill="#494443"/>
        <ellipse id="Elipse_124" data-name="Elipse 124" cx="18.051" cy="17.45" rx="18.051" ry="17.45" transform="translate(645.707 420.685)" fill="#8d8788"/>
        <ellipse id="Elipse_125" data-name="Elipse 125" cx="15.93" cy="15.408" rx="15.93" ry="15.408" transform="translate(647.833 422.512)" fill="#494443"/>
        <ellipse id="Elipse_126" data-name="Elipse 126" cx="18.051" cy="17.45" rx="18.051" ry="17.45" transform="translate(646.589 468.383)" fill="#8d8788"/>
        <ellipse id="Elipse_127" data-name="Elipse 127" cx="15.93" cy="15.408" rx="15.93" ry="15.408" transform="translate(648.714 470.21)" fill="#494443"/>
        <path id="Caminho_19111" data-name="Caminho 19111" d="M595.515,403.491l-20.491-25.767a3.268,3.268,0,0,1,.556-4.618l2.133-1.645a3.4,3.4,0,0,1,4.674.556l20.5,25.767a3.256,3.256,0,0,1-.567,4.618l-2.122,1.645a3.4,3.4,0,0,1-4.686-.556Z" transform="translate(74.842 49.905)" fill="#8d8788"/>
        <path id="Caminho_19112" data-name="Caminho 19112" d="M595.873,402.94l-20.309-25.528a2.836,2.836,0,0,1,.488-4.028l1.861-1.441a2.939,2.939,0,0,1,4.085.488l20.309,25.528a2.836,2.836,0,0,1-.5,4.028l-1.838,1.441A2.939,2.939,0,0,1,595.873,402.94Z" transform="translate(74.927 49.979)" fill="#494443"/>
        <path id="Caminho_19113" data-name="Caminho 19113" d="M603.587,420.847l-21.557,24.961a3.4,3.4,0,0,1-4.7.363l-2.054-1.736a3.256,3.256,0,0,1-.375-4.629l21.557-24.961a3.4,3.4,0,0,1,4.7-.363l2.054,1.736a3.245,3.245,0,0,1,.375,4.629Z" transform="translate(74.812 55.683)" fill="#8d8788"/>
        <path id="Caminho_19114" data-name="Caminho 19114" d="M602.953,420.411l-21.353,24.7a2.939,2.939,0,0,1-4.1.318l-1.793-1.52a2.836,2.836,0,0,1-.329-4.039l21.342-24.689a2.939,2.939,0,0,1,4.107-.329l1.793,1.52a2.836,2.836,0,0,1,.329,4.039Z" transform="translate(74.891 55.745)" fill="#494443"/>
        <path id="Caminho_19115" data-name="Caminho 19115" d="M558.315,256.192l-74.645-4.663c4.13-5.673,16.837-9.814,32.336-10.121l-20.332-67.486,5.56-1.622,20.842,69.21c2.042.091,4.062.25,6,.465l14.545-47.993,5.56,1.645-14.307,47.165C547.3,245.107,557.067,250.247,558.315,256.192Z" transform="translate(62.921 23.191)" fill="#4e4d4c"/>
        <path id="Caminho_19116" data-name="Caminho 19116" d="M496.614,177.267l-9.644-31.9,2.95-.862,9.644,31.9Z" transform="translate(63.501 19.449)" fill="#808081"/>
        <path id="Caminho_19117" data-name="Caminho 19117" d="M539.648,196.71l-2.938-.908,10.835-34.242,2.939.908Z" transform="translate(69.982 21.745)" fill="#808081"/>
        <ellipse id="Elipse_128" data-name="Elipse 128" cx="4.765" cy="4.595" rx="4.765" ry="4.595" transform="translate(546.34 157.731)" fill="#4e4d4c"/>
        <ellipse id="Elipse_129" data-name="Elipse 129" cx="5.185" cy="5.117" rx="5.185" ry="5.117" transform="translate(614.749 177.666)" fill="#4e4d4c"/>
        <path id="Caminho_19118" data-name="Caminho 19118" d="M252.28,405.755l12.322-9.7a38.709,38.709,0,0,1,4.538-3.086,14.9,14.9,0,0,1,4.845-1.849,9.461,9.461,0,0,1,4.8.363,9.939,9.939,0,0,1,4.482,3.529,9,9,0,0,1,2.088,5.911,11.051,11.051,0,0,1-2.065,5.911l.068.091a11.981,11.981,0,0,1,3.687-1.407,9.847,9.847,0,0,1,3.642-.057,9.157,9.157,0,0,1,3.4,1.3,10.9,10.9,0,0,1,2.859,2.609,10.313,10.313,0,0,1,2.269,5.276,11.424,11.424,0,0,1-.681,5.128,16.27,16.27,0,0,1-2.791,4.686,26.546,26.546,0,0,1-4.039,3.948l-13.536,10.642Zm17.654,7.579,5.276-4.153a9.343,9.343,0,0,0,1.509-1.486,5.959,5.959,0,0,0,.987-1.77,4.039,4.039,0,0,0,.17-1.951,4.334,4.334,0,0,0-.919-2.008,3.914,3.914,0,0,0-1.781-1.373,4,4,0,0,0-1.963-.159,7.317,7.317,0,0,0-1.963.783,11.728,11.728,0,0,0-1.849,1.135l-4.958,3.914Zm10.733,13.785,6.535-5.14a10.484,10.484,0,0,0,1.566-1.532,5.673,5.673,0,0,0,1.044-1.883,4.776,4.776,0,0,0,.193-2.122,4.447,4.447,0,0,0-.987-2.19,3.71,3.71,0,0,0-2.065-1.441,4.8,4.8,0,0,0-2.337,0,9.733,9.733,0,0,0-2.269.987,18.914,18.914,0,0,0-2.02,1.373l-5.514,4.334Z" transform="translate(32.864 52.622)"/>
        <path id="Caminho_19119" data-name="Caminho 19119" d="M278.94,384.8l12.322-9.689a38.721,38.721,0,0,1,4.538-3.086,14.751,14.751,0,0,1,4.845-1.849,9.451,9.451,0,0,1,4.8.363,9.882,9.882,0,0,1,4.482,3.529,8.872,8.872,0,0,1,2.088,5.911,10.96,10.96,0,0,1-2.065,5.911l.079.091a12.061,12.061,0,0,1,3.676-1.418,10.1,10.1,0,0,1,3.642,0,9.439,9.439,0,0,1,3.4,1.316,11.038,11.038,0,0,1,2.848,2.61,10.211,10.211,0,0,1,2.269,5.276,11.268,11.268,0,0,1-.681,5.128,16.224,16.224,0,0,1-2.78,4.686,28.216,28.216,0,0,1-4.039,3.948L304.82,418.172Zm17.654,7.59,5.276-4.153a9.353,9.353,0,0,0,1.509-1.486,5.753,5.753,0,0,0,1-1.77,4.05,4.05,0,0,0,.17-1.952,4.244,4.244,0,0,0-.93-2.008,3.892,3.892,0,0,0-1.77-1.373,4.05,4.05,0,0,0-1.974-.159,6.582,6.582,0,0,0-2.008.715A11.856,11.856,0,0,0,296,381.4l-4.947,3.892Zm10.779,13.785,6.535-5.14a10.416,10.416,0,0,0,1.52-1.543,5.853,5.853,0,0,0,1.055-1.883,4.809,4.809,0,0,0,.182-2.133,4.459,4.459,0,0,0-.987-2.178,3.619,3.619,0,0,0-2.065-1.441,4.618,4.618,0,0,0-2.326,0,9.623,9.623,0,0,0-2.326.987,18.371,18.371,0,0,0-2.02,1.361l-5.514,4.334Z" transform="translate(36.335 49.803)"/>
        <path id="Caminho_19120" data-name="Caminho 19120" d="M305.6,363.833l12.322-9.689a42.362,42.362,0,0,1,4.538-3.1,15.021,15.021,0,0,1,4.856-1.838,9.463,9.463,0,0,1,4.8.363A10.007,10.007,0,0,1,336.6,353.1a8.975,8.975,0,0,1,2.088,5.911,11.085,11.085,0,0,1-2,5.866l.068.091a12.058,12.058,0,0,1,3.676-1.418,10.21,10.21,0,0,1,3.653-.057,9.463,9.463,0,0,1,3.4,1.316,10.9,10.9,0,0,1,2.859,2.609,10.212,10.212,0,0,1,2.269,5.276,11.345,11.345,0,0,1-.669,5.117,16.178,16.178,0,0,1-2.791,4.7,26.99,26.99,0,0,1-4.039,3.937L331.582,397.1Zm17.654,7.59,5.276-4.153a9.919,9.919,0,0,0,1.52-1.486,5.958,5.958,0,0,0,.987-1.77,4.085,4.085,0,0,0,.17-1.963,4.346,4.346,0,0,0-.919-2,3.982,3.982,0,0,0-1.781-1.373,3.891,3.891,0,0,0-1.974-.159,6.979,6.979,0,0,0-2.008.7,12.652,12.652,0,0,0-1.849,1.2l-4.947,3.892ZM334,385.209l6.535-5.14a9.909,9.909,0,0,0,1.554-1.532,5.9,5.9,0,0,0,1.055-1.895,4.766,4.766,0,0,0,.193-2.122,4.629,4.629,0,0,0-.987-2.178,3.778,3.778,0,0,0-2.065-1.452,4.8,4.8,0,0,0-2.337.057,9.541,9.541,0,0,0-2.269.987,18.578,18.578,0,0,0-2.031,1.362l-5.5,4.334Z" transform="translate(39.806 46.981)"/>
        <path id="Caminho_19121" data-name="Caminho 19121" d="M363,359.672l3.778-21.716a30.527,30.527,0,0,0,.386-3.574,5,5,0,0,0-1.067-3.4,4.073,4.073,0,0,0-3.29-1.7,5.673,5.673,0,0,0-3.6,1.271,5.049,5.049,0,0,0-2.11,3.631,6.285,6.285,0,0,0,1.135,3.982l-7.409,4.992a14.752,14.752,0,0,1-2.428-5.333,12.152,12.152,0,0,1,0-5.117,13.4,13.4,0,0,1,2.133-4.754,19.628,19.628,0,0,1,4.016-4.187,17.438,17.438,0,0,1,4.7-2.666,12.253,12.253,0,0,1,4.867-.794,10.812,10.812,0,0,1,4.709,1.339,13.843,13.843,0,0,1,4.221,3.733,14.657,14.657,0,0,1,1.929,3.154,12.332,12.332,0,0,1,.919,3.075,12.937,12.937,0,0,1,.147,3.029,30.3,30.3,0,0,1-.374,3.1l-3.245,16.6L387.081,342.8l4.833,6.206L368.848,367.16Z" transform="translate(45.349 43.11)"/>
        <path id="Caminho_19122" data-name="Caminho 19122" d="M379.441,331.884a42.9,42.9,0,0,1-4.153-6.444,22.284,22.284,0,0,1-2.417-7.057,14.637,14.637,0,0,1,.59-7.023,15.884,15.884,0,0,1,12.14-9.553,14.456,14.456,0,0,1,6.921,1.135,21.83,21.83,0,0,1,6.24,4.039,43.012,43.012,0,0,1,9.383,12.072,22.192,22.192,0,0,1,2.417,7.057,14.636,14.636,0,0,1-.59,7.023,13.808,13.808,0,0,1-4.845,6.342,13.614,13.614,0,0,1-7.3,3.2,14.318,14.318,0,0,1-6.921-1.135,22.328,22.328,0,0,1-6.24-4.039A44.035,44.035,0,0,1,379.441,331.884Zm7-5.5c.681.874,1.543,1.895,2.575,3.052a18.982,18.982,0,0,0,3.4,3.041,9.406,9.406,0,0,0,3.8,1.634,4.754,4.754,0,0,0,3.88-1.135,4.833,4.833,0,0,0,2.02-3.483,9.44,9.44,0,0,0-.647-4.119,19.287,19.287,0,0,0-2.122-4.028c-.874-1.282-1.656-2.36-2.337-3.245s-1.543-1.895-2.576-3.063a19.773,19.773,0,0,0-3.4-3.029,9.247,9.247,0,0,0-3.824-1.622,5.457,5.457,0,0,0-5.9,4.652,9.6,9.6,0,0,0,.67,4.1,19.865,19.865,0,0,0,2.122,4.028c.874,1.259,1.656,2.337,2.337,3.222Z" transform="translate(48.557 40.615)"/>
        <ellipse id="Elipse_130" data-name="Elipse 130" cx="32.949" cy="33.244" rx="32.949" ry="33.244" transform="translate(492.143 407.025)" fill="#7db9d6"/>
        <path id="Caminho_19123" data-name="Caminho 19123" d="M446.392,515.416c-.091-1.725-.885-3.336-.681-5.117.113-.953.3-1.656,1.259-2.054a2.269,2.269,0,0,0,1.486-2.848c-.454-2,0-3.994.159-5.979,0-.4.2-.964-.329-1.135s-.737.284-1,.635c-2.757,3.778-5.616,4.6-10.211,2.791a7.387,7.387,0,0,0-3.46-.545c-7.942.749-14.375-2.507-19.844-8a33.379,33.379,0,0,1-4.425-4.538,1.134,1.134,0,0,0-1.282-.488c-5.571,1.248-10.506-.851-15.385-3-7.341-3.211-12.946-8.646-18.085-14.6-2.632-3.041-5.2-6.138-7.556-9.394a3.744,3.744,0,0,1-1.135-2.439c0-.772-.783-.976-1.339-1.259q-5.333-2.644-10.7-5.2a7.114,7.114,0,0,1-2.587-1.917c-.181-.216-.352-.465-.159-.726a.59.59,0,0,1,.737-.17,9.974,9.974,0,0,1,1.611.76,62.841,62.841,0,0,0,11.142,5.276c2.462.964,4.311-.136,4.414-2.53.068-1.327-.794-1.906-1.747-2.5-.613-.374-1.554-.635-1.407-1.577s1.135-1.135,1.872-1.35a3.471,3.471,0,0,1,1.135-.181c2.689.125,3.574-2.144,4.879-3.767.511-.624,0-1.634-.488-2.269-1.135-1.362-1.339-3.188-2.269-4.64a.749.749,0,0,1,.182-1.135c.533-.261.737.25,1,.59a5.673,5.673,0,0,0,7.749,1.271c.17-.125.386-.34.556-.306,2.042.284,1.577-1,1.293-2.1-1.373-5.344-2.462-10.779-4.924-15.794-.216-.42-.567-.93,0-1.293s1.135,0,1.543.454c1.929,1.929,2.394,4.538,3.4,6.955,1.135,2.689,1.668,5.6,2.939,8.26,1.01,2.1,1.327,2.269,3.472,1.259.442-.2.851-.488,1.3-.681s.692-.908,1.2-.386.091.953-.159,1.362c-.42.737-.545,1.282.488,1.588a2.939,2.939,0,0,1,.9.681,2.768,2.768,0,0,0,4.482-1.135,18.427,18.427,0,0,0,1.135-6.808,6.887,6.887,0,0,1,.84-3.767c.726-1.135,1.509-1.135,2.371-.227a1.986,1.986,0,0,1,.59.772c.669,2.712,1.6,5.378.942,8.283s-1.055,5.673-1.577,8.441a5.858,5.858,0,0,1-.238,1.271c-.6,1.441-.511,2.428,1.384,2.53.874,0,1.044.692.431,1.2s-.477.862.113,1.316a25.912,25.912,0,0,1,4.743,5.559,3.4,3.4,0,0,1,0,4.357c-4.187,5.73-9.565,10.211-15.238,14.33-1.849,1.339-1.827,1.77,0,3.177s3.4,2.95,5.23,4.368a44.249,44.249,0,0,0,10.518,5.8c2.269.953,4.334.181,6.059-1.554,1.554-1.554,1.509-1.441,3,0a65.018,65.018,0,0,0,6.932,6.308c1.906,1.407,4.164,2.587,6.808,2.02a2.337,2.337,0,0,1,3.086,1.6c.374,1.066,1.135,1.032,1.906.4,1.554-1.2,1.668-2.689.681-4.357-1.327-2.269-3.268-4.062-4.221-6.547a2.269,2.269,0,0,1,.874-3.018,24.257,24.257,0,0,1,6.717-3.222c3.778-1.339,7.148-.4,10.211,2.1.454.386.942.726,1.43,1.078.737.545,1.282.533,1.509-.511.193-.828.465-1.532,1.532-.84.148.1.42,0,.624,0a90.782,90.782,0,0,0,11.244-2.61c.658-.193.647-.454.295-.9a2.746,2.746,0,0,1,0-3.347,2.6,2.6,0,0,0,.227-1.883,65.26,65.26,0,0,1-.465-18.8,23.632,23.632,0,0,1,.624-3.188,1.725,1.725,0,0,0-1.135-2.269c-1.032-.4-1.917-1-1.52-2.269s-.159-3.4,2.2-3.6a1.214,1.214,0,0,0,1.135-.828c.193-.658-.374-1.01-.828-1.237-2.473-1.225-4.935-2.53-7.488-3.563a53.8,53.8,0,0,1-8.135-4.743,51.2,51.2,0,0,1-4.947-3.4,98.131,98.131,0,0,0,43.773,9.644c.272.442.113.658-.068.726-2.451.976-4.7,2.53-7.454,2.6a7.375,7.375,0,0,0-2.655.7,1.685,1.685,0,0,0-1.2,1.407c-.068.76.579,1.248,1.214,1.588,2.212,1.135,2.2,1.294,1.6,3.7a2.587,2.587,0,0,1-2.61,2.008,1.9,1.9,0,0,0-1.872,1.838,50.775,50.775,0,0,0-.533,9.553,76.124,76.124,0,0,0,.658,9.077,3.9,3.9,0,0,0,.953,2.269,4.834,4.834,0,0,1,1.135,3.472,1.2,1.2,0,0,0,1.214,1.384,9.588,9.588,0,0,0,3.824.125,14.668,14.668,0,0,1,6.444.465,1.384,1.384,0,0,1,1.214,1.645c-.136,1.214.454.851,1.01.443a8.441,8.441,0,0,1,8.453-1.135c1.3.5,2.723.522,4.016,1.248,2.462,1.373,3.937,3.687,5.673,5.673,1.135,1.282.647,3.279-.726,4.538s-2.8,2.564-4.3,3.71c-.567.431-.874,1.078-1.43,1.452-.817-.329-.34-1.532-1.622-1.815,1.339,7.171,1.963,14.251.658,21.353Zm25.869-25.9a8.033,8.033,0,0,0-4.9-3.631.488.488,0,0,1-.272-.182c-2.008-2.269-4.6-2.8-7.5-2.564-1.441.113-2.961.159-3.756-1.554a.93.93,0,0,0-1.282-.363c-.6.329-.2.828-.079,1.282a11.347,11.347,0,0,1,.613,2.519,2.6,2.6,0,0,0,1.906,2.473c4.436,1.951,9.179,1.974,13.853,2.473A1.407,1.407,0,0,0,472.261,489.513Zm18.619-2.621c-1.418,0-1.362-.828-1.486-1.566-.182-1.01-.408-2.008-.658-3.007a1.577,1.577,0,0,0-1.135-1.214,4.221,4.221,0,0,0-4.9,1.815,10.008,10.008,0,0,1-2.02,2.723,4.822,4.822,0,0,0-1.339,2.7c-.193.692.068,1.01.771,1.066a18.04,18.04,0,0,0,10.767-2.553Zm5.752-3.143c1.929-1.135,3.143-.454,3.948,1.339.1.216.363.488.647.352s.25-.567.113-.828c-.431-.84-.5-2.088-1.588-2.269a3.4,3.4,0,0,0-3.12,1.373Z" transform="translate(45.493 56.227)" fill="url(#linear-gradient)"/>
        <path id="Caminho_19124" data-name="Caminho 19124" d="M500.664,506.308a29.5,29.5,0,0,0-3.982-5.276c-2.7-3.324-5.491-6.581-8.283-9.837-.7-.828-.942-1.327.272-1.917a10.326,10.326,0,0,0,3.733-3.336c.454-.613.749-.772,1.3,0,5.174,6.808,11.04,13.184,15.748,20.423Z" transform="translate(63.59 65.335)"/>
        <path id="Caminho_19125" data-name="Caminho 19125" d="M429.937,357.851a26.752,26.752,0,0,1,8.18-6.808c9.894-5.6,20.627-7.012,31.769-6.24,12.322.84,23.531,5.083,33.868,11.539,12.129,7.579,21.421,17.779,26.629,31.337.1.25.193.511.306.749.227.477.272,1.225.862,1.293s.715-.726.908-1.135c.443-1.044,1.634-1.407,2.122-2.439-1.135,2.961-.318,6.184-1.407,9.077-.375.976,1.135.42.9,1.554-.4,2.088-1.35,4.175-.647,6.705a115.112,115.112,0,0,1,3.721-11.845,3.528,3.528,0,0,1,.408,2.893,135.549,135.549,0,0,1-4.039,19.107c-.488,1.883-1.021,3.767-1.577,5.673a3.074,3.074,0,0,1-1.248,2.133c-.522-1.452,0-2.791.147-4.13s.4-2.791.613-4.187c0-.363.284-.794-.227-.964a.874.874,0,0,0-.76.147c-.6.567.193.477.352.7.386.533-.386.7-.4,1.135,0,2.746-1.554,5.038-2.269,7.568a19.278,19.278,0,0,0-.953,2.757c-.057.477-.17,1.044-.874.919s-1.135-.454-1.067-1.2c.113-1.566.125-3.154.386-4.7,1.135-7.069,2.269-14.148,4.538-20.99.783-2.451,1.793-4.9-1.135-6.751a44.4,44.4,0,0,0-11.9-13.615,88.5,88.5,0,0,0-22.386-12.481,128.317,128.317,0,0,0-22.873-6.286,80.558,80.558,0,0,0-24.122-1.2c-7.659.828-14.909,2.973-21.217,7.624-.942.692-1.759,1.554-2.655,2.269,3.132-3.9,7.3-6.365,11.811-8.294a31.846,31.846,0,0,1,3.529-1.271,11.345,11.345,0,0,0,6.036-3.4c1.657-1.94,4.141-3.245,6.161-4.97.817-.692,2.122-.477,2.961-1.271.306-.295.783-.511.771-.987s-.647-.42-1.01-.579a6.013,6.013,0,0,0-4.13.079c-7.227,1.883-13.944,4.8-19.436,10.052a5.753,5.753,0,0,1-.647.431ZM530.02,388.485a4.128,4.128,0,0,0-.159-.567,54.255,54.255,0,0,0-6.705-11.641c-.408-.567-.93-.443-1.452-.193a.908.908,0,0,0-.443,1.35c.329.681.76,1.316,1.135,2a31.089,31.089,0,0,0,6.808,9.326c.193.193.4.443.669.216s.114-.4.147-.511Z" transform="translate(55.053 46.383)" fill="url(#linear-gradient-2)"/>
        <path id="Caminho_19126" data-name="Caminho 19126" d="M468.575,428.915a34.8,34.8,0,0,1-35.445-35.229c.091-19.288,15.76-35.172,36.182-35.116A35.172,35.172,0,0,1,504,393.674C504.111,412.758,488.079,428.733,468.575,428.915Zm-.17-67.225c-17.53,0-32.086,14.319-32.075,31.485a31.837,31.837,0,0,0,32.4,32.075c17.28,0,31.825-14.545,31.769-31.667a31.769,31.769,0,0,0-32.1-31.893Z" transform="translate(56.357 48.262)" fill="#134580"/>
        <path id="Caminho_19127" data-name="Caminho 19127" d="M422.9,365.89c.2,1.259.2,1.259,1.044.987-5.673,10.563-6.728,21.966-5.832,33.732-6.41-11.539-3.211-22.306,2.439-32.9C421.083,366.707,422.183,366.627,422.9,365.89Z" transform="translate(54.069 49.247)"/>
        <path id="Caminho_19128" data-name="Caminho 19128" d="M507.08,352.09a3.4,3.4,0,0,1,2.564,1.214,63.216,63.216,0,0,1,9.508,14.477.771.771,0,0,1-.057.692A74.157,74.157,0,0,0,507.08,352.09Z" transform="translate(66.123 47.389)"/>
        <path id="Caminho_19129" data-name="Caminho 19129" d="M354.434,435.452c-.068.386.159,1.021-.579,1.055s-2.6-2.394-2.576-3.177c0-.522.306-.613.749-.59A2.871,2.871,0,0,1,354.434,435.452Z" transform="translate(45.827 58.244)"/>
        <path id="Caminho_19130" data-name="Caminho 19130" d="M477.422,391.28a12.673,12.673,0,0,1-13.116,12.31,12.481,12.481,0,0,1-12.015-12.968,12.617,12.617,0,0,1,12.934-11.981,12.481,12.481,0,0,1,12.2,12.639Zm-6.32-.136a3.869,3.869,0,0,0,3.926-3.721,3.812,3.812,0,0,0-3.778-3.835,3.9,3.9,0,0,0-3.926,3.744,3.733,3.733,0,0,0,3.778,3.812Z" transform="translate(58.952 50.962)"/>
        <ellipse id="Elipse_131" data-name="Elipse 131" cx="3.79" cy="3.699" rx="3.79" ry="3.699" transform="translate(526.405 434.652)" fill="#ededed"/>
        <g id="Grupo_3257" data-name="Grupo 3257" transform="translate(394.351 500.351)" opacity="0.69">
          <path id="Caminho_19131" data-name="Caminho 19131" d="M366.675,454.351a1.554,1.554,0,0,1-1.929.465l-13.388-7.035c-1.5-.737-2.882-2.9-1.963-4.743a3.29,3.29,0,0,1,4.47-1.475l14.409,6.717a1.293,1.293,0,0,1,.737,1.452h0a9.985,9.985,0,0,1-2.326,4.618Z" transform="translate(-348.835 -440.969)" fill="#e8e7db"/>
          <path id="Caminho_19132" data-name="Caminho 19132" d="M365.47,455.285a1.906,1.906,0,0,1-.817-.182l-13.365-7c-1.554-.76-3.109-3.086-2.1-5.117a3.483,3.483,0,0,1,2.2-1.861,3.778,3.778,0,0,1,2.655.261l14.387,6.66a1.6,1.6,0,0,1,.908,1.77,10.359,10.359,0,0,1-2.383,4.731h0A1.826,1.826,0,0,1,365.47,455.285Zm-13.127-13.717a2.973,2.973,0,0,0-.828.113,2.893,2.893,0,0,0-1.838,1.554c-.851,1.725.5,3.7,1.838,4.368l13.388,7.012a1.237,1.237,0,0,0,1.566-.386h0a9.849,9.849,0,0,0,2.269-4.538,1.044,1.044,0,0,0-.59-1.135l-14.387-6.66A3.4,3.4,0,0,0,352.342,441.568Z" transform="translate(-348.867 -440.996)" fill="#1d1d1b"/>
        </g>
        <g id="Grupo_3258" data-name="Grupo 3258" transform="translate(395.212 485.114)" opacity="0.69">
          <path id="Caminho_19133" data-name="Caminho 19133" d="M368.749,449.7a2,2,0,0,1-2.507-.284l-14.477-14.035c-1.645-1.52-2.712-4.663-1.055-6.445s4.3-1.316,5.945.216l15.8,14.08a1.759,1.759,0,0,1,.5,2.042h0a10.608,10.608,0,0,1-4.209,4.425Z" transform="translate(-349.601 -427.536)" fill="#e8e7db"/>
          <path id="Caminho_19134" data-name="Caminho 19134" d="M367.76,450.331a2.45,2.45,0,0,1-1.679-.681l-14.489-14.035c-1.657-1.543-2.871-4.9-1.055-6.808a3.88,3.88,0,0,1,3.2-1.225,5.344,5.344,0,0,1,3.143,1.43l15.862,14.035a2.031,2.031,0,0,1,.556,2.371c-1.135,2.269-2.269,3.1-4.3,4.538a1.985,1.985,0,0,1-1.237.374Zm-14.307-22.272A3.29,3.29,0,0,0,351,429.114c-1.566,1.691-.454,4.663,1.044,6.047L366.524,449.2a1.725,1.725,0,0,0,2.144.261h0c1.952-1.4,3.029-2.156,4.107-4.334a1.452,1.452,0,0,0-.431-1.7l-15.8-14.069a4.731,4.731,0,0,0-2.8-1.282Z" transform="translate(-349.633 -427.566)" fill="#1d1d1b"/>
        </g>
        <g id="Grupo_3259" data-name="Grupo 3259" transform="translate(403.745 473.071)" opacity="0.69">
          <path id="Caminho_19135" data-name="Caminho 19135" d="M375.319,442.273a2.156,2.156,0,0,1-2.553-.692l-13.706-16.747c-1.566-1.838-2.405-5.242-.545-6.808s4.538-.692,6.093,1.135l15.067,17.019a1.9,1.9,0,0,1,.34,2.178h0c-1.327,2.11-2.507,2.746-4.7,3.914Z" transform="translate(-357.145 -416.916)" fill="#e8e7db"/>
          <path id="Caminho_19136" data-name="Caminho 19136" d="M374.573,442.773a2.643,2.643,0,0,1-1.986-.976L358.87,425.051a7.477,7.477,0,0,1-1.611-3.642,3.835,3.835,0,0,1,1.135-3.563,3.789,3.789,0,0,1,3.4-.772,5.98,5.98,0,0,1,3.1,1.952l15.067,17.019a2.19,2.19,0,0,1,.363,2.519c-1.373,2.19-2.6,2.836-4.811,4.016h0a1.918,1.918,0,0,1-.942.193Zm-13.808-25.245a3.018,3.018,0,0,0-2.031.749,3.234,3.234,0,0,0-.908,3.052,6.739,6.739,0,0,0,1.486,3.4l13.706,16.747a1.838,1.838,0,0,0,2.2.613h0c2.122-1.135,3.29-1.736,4.538-3.8a1.611,1.611,0,0,0-.306-1.849l-15.067-17.019a5.435,5.435,0,0,0-2.791-1.77,4.1,4.1,0,0,0-.828-.125Z" transform="translate(-357.182 -416.951)" fill="#1d1d1b"/>
        </g>
        <g id="Grupo_3260" data-name="Grupo 3260" transform="translate(418.805 465.434)" opacity="0.69">
          <path id="Caminho_19137" data-name="Caminho 19137" d="M380.668,437.162a2.008,2.008,0,0,1-2.167-1.293l-7.329-18.789c-.862-2.065-.522-5.367,1.713-6.3s4.47.59,5.321,2.666l8.521,19.379a1.736,1.736,0,0,1-.4,2.054h0c-1.929,1.566-3.234,1.815-5.673,2.269Z" transform="translate(-370.463 -410.182)" fill="#e8e7db"/>
          <path id="Caminho_19138" data-name="Caminho 19138" d="M380.383,437.473a2.337,2.337,0,0,1-2.11-1.509l-7.329-18.789c-.874-2.088-.579-5.673,1.872-6.66s4.788.647,5.673,2.814l8.532,19.333a2.031,2.031,0,0,1-.477,2.394c-2,1.611-3.347,1.872-5.8,2.337h0A1.887,1.887,0,0,1,380.383,437.473Zm-6.093-26.686a3.326,3.326,0,0,0-1.259.25c-2.122.885-2.349,4.051-1.566,5.934l7.329,18.777a1.724,1.724,0,0,0,1.849,1.135h0a10.461,10.461,0,0,0,5.548-2.269,1.475,1.475,0,0,0,.306-1.725l-8.521-19.379a4.255,4.255,0,0,0-3.687-2.723Z" transform="translate(-370.495 -410.22)" fill="#1d1d1b"/>
        </g>
        <g id="Grupo_3261" data-name="Grupo 3261" transform="translate(440.112 475.551)" opacity="0.69">
          <path id="Caminho_19139" data-name="Caminho 19139" d="M392.143,443.281c-.964-1.248-2.655-3.4-2.553-4.357l2.485-14.75c.227-2.269,2.076-4.981,4.538-4.743s3.653,2.632,3.4,4.856l-1.5,20.547c-.352.976-.374,1.339-1.055,1.815l-.4.091a3.279,3.279,0,0,1-2.893-.919Z" transform="translate(-389.302 -419.099)" fill="#e8e7db"/>
          <path id="Caminho_19140" data-name="Caminho 19140" d="M396.454,447.154a3.835,3.835,0,0,1-2.473-1.135l-2.156-2.746c-1.362-1.747-2.575-3.4-2.485-4.391l2.485-14.75c.227-2.269,2.178-5.23,4.8-4.981s3.926,2.836,3.687,5.174l-1.52,20.6-.136.408a2.371,2.371,0,0,1-1.021,1.543h-.091l-.4.091a2.472,2.472,0,0,1-.692.182Zm-2.042-1.452a3,3,0,0,0,2.6.817l.34-.091a1.815,1.815,0,0,0,.76-1.214,1.653,1.653,0,0,1,.136-.4l1.5-20.5c.2-2.065-.919-4.323-3.177-4.538s-3.971,2.451-4.175,4.482l-2.485,14.75c-.079.817,1.509,2.871,2.371,3.96l2.133,2.734Z" transform="translate(-389.336 -419.137)" fill="#1d1d1b"/>
        </g>
        <g id="Grupo_3262" data-name="Grupo 3262" transform="translate(425.8 510.769)" opacity="0.69">
          <path id="Caminho_19141" data-name="Caminho 19141" d="M377,472.554c-.511-1.747,6.547-1.759,10.6-4.141,12.061-7.125,13.479-18.88,18.154-17.927,1.759.363,3.4,5.355,6.15,15.952,1.543,5.991,1.634,8.963.272,11.641a11.2,11.2,0,0,1-6.047,5.106c-2.394.919-6.036,1.43-12.7-.715C388,480.723,377.956,475.879,377,472.554Z" transform="translate(-376.681 -450.143)" fill="#e8e7db"/>
          <path id="Caminho_19142" data-name="Caminho 19142" d="M401.636,484.3a27.319,27.319,0,0,1-8.26-1.52c-5.423-1.747-15.612-6.615-16.622-10.109h0a.84.84,0,0,1,.079-.681c.431-.737,2-1.135,4.153-1.611a23.825,23.825,0,0,0,6.49-2.178c6.467-3.812,9.871-9.009,12.344-12.8,2.144-3.268,3.688-5.673,6.025-5.151,1.77.363,3.268,4.141,6.365,16.157,1.577,6.1,1.645,9.077.261,11.845a11.244,11.244,0,0,1-6.206,5.23,12.389,12.389,0,0,1-4.629.817ZM377.3,472.509c.874,3.029,10.211,7.783,16.247,9.723,7.012,2.269,10.506,1.5,12.48.726a10.722,10.722,0,0,0,5.889-4.97c1.316-2.6,1.237-5.491-.295-11.448-2.507-9.712-4.289-15.408-5.934-15.737-1.963-.408-3.336,1.713-5.435,4.913-2.507,3.835-5.945,9.077-12.537,12.968a24.212,24.212,0,0,1-6.649,2.269c-1.793.42-3.483.806-3.79,1.339a.25.25,0,0,0,0,.238Z" transform="translate(-376.716 -450.177)" fill="#1d1d1b"/>
        </g>
        <path id="Caminho_19143" data-name="Caminho 19143" d="M510.969,681.462c10.96-8.6,18.154-22.794,18.154-38.871,0-26.266-19.1-47.551-42.638-47.551s-42.661,21.285-42.661,47.608c0,16.077,7.182,30.271,18.154,38.871H436.29V705.7h98.869V681.462Z" transform="translate(56.701 80.089)" fill="#1d1d1b"/>
        <path id="Caminho_19144" data-name="Caminho 19144" d="M535.766,706.248H435.82V680.981h24.689c-10.779-9.077-17.166-23.282-17.166-38.327,0-26.515,19.379-48.084,43.194-48.084s43.183,21.557,43.183,48.084c0,15.045-6.388,29.25-17.166,38.327h23.214ZM436.9,705.114h97.836V682.07H509.467l1.225-.976c11.232-8.8,17.938-23.18,17.938-38.44,0-25.925-18.88-47.006-42.093-47.006s-42.1,21.081-42.1,47.063c0,15.26,6.705,29.636,17.938,38.44l1.225.976H436.9Z" transform="translate(56.637 80.026)" fill="#fff"/>
        <rect id="Retângulo_3287" data-name="Retângulo 3287" width="105.279" height="83.858" transform="translate(489.766 781.214)" fill="#1d1d1b"/>
        <path id="Caminho_19145" data-name="Caminho 19145" d="M539.323,773.006H433V688.07H539.357Zm-105.279-1.055h104.2V689.125h-104.2Z" transform="translate(56.255 92.611)" fill="#fff"/>
        <path id="Caminho_19146" data-name="Caminho 19146" d="M351.938,681.462c10.96-8.6,18.154-22.794,18.154-38.871,0-26.266-19.1-47.551-42.638-47.551s-42.661,21.285-42.661,47.608c0,16.077,7.182,30.271,18.154,38.871H277.27V705.7h98.869V681.462Z" transform="translate(36.041 80.089)" fill="#1d1d1b"/>
        <path id="Caminho_19147" data-name="Caminho 19147" d="M376.736,706.248H276.79V680.981h24.689c-10.767-9.077-17.166-23.282-17.166-38.327,0-26.515,19.379-48.084,43.194-48.084s43.183,21.557,43.183,48.084c0,15.045-6.388,29.25-17.166,38.327h23.214Zm-98.869-1.135h97.791V682.07H350.437l1.225-.976c11.232-8.8,17.938-23.18,17.938-38.44,0-25.925-18.88-47.006-42.093-47.006s-42.1,21.081-42.1,47.063c0,15.26,6.706,29.636,17.938,38.44l1.237.976H277.868Z" transform="translate(35.977 80.026)" fill="#fff"/>
        <rect id="Retângulo_3288" data-name="Retângulo 3288" width="105.279" height="83.858" transform="translate(310.081 781.214)" fill="#1d1d1b"/>
        <path id="Caminho_19148" data-name="Caminho 19148" d="M380.3,773.006H273.94V688.07H380.3Zm-105.279-1.055h104.2V689.125h-104.2Z" transform="translate(35.597 92.611)" fill="#fff"/>
        <path id="Caminho_19149" data-name="Caminho 19149" d="M195.528,681.462c10.971-8.6,18.154-22.794,18.154-38.871,0-26.266-19.1-47.551-42.649-47.551s-42.638,21.285-42.638,47.608c0,16.077,7.182,30.271,18.154,38.871H120.86V705.7h98.869V681.462Z" transform="translate(16.286 80.089)" fill="#1d1d1b"/>
        <path id="Caminho_19150" data-name="Caminho 19150" d="M220.338,706.248H120.38V680.981h24.7C134.3,671.9,127.914,657.7,127.914,642.654c0-26.515,19.368-48.084,43.183-48.084s43.183,21.557,43.183,48.084c0,15.045-6.388,29.25-17.155,38.327h23.214Zm-98.869-1.135h97.779V682.07H194.027l1.237-.976c11.232-8.8,17.938-23.18,17.938-38.44,0-25.925-18.891-47.006-42.1-47.006s-42.071,21.081-42.071,47.063c0,15.26,6.705,29.636,17.949,38.44l1.225.976H121.469Z" transform="translate(16.221 80.026)" fill="#fff"/>
        <rect id="Retângulo_3289" data-name="Retângulo 3289" width="105.279" height="83.858" transform="translate(133.912 781.214)" fill="#1d1d1b"/>
        <path id="Caminho_19151" data-name="Caminho 19151" d="M223.9,773.006H117.54V688.07H223.9Zm-105.279-1.055h104.19V689.125H118.618Z" transform="translate(15.839 92.611)" fill="#fff"/>
        <path id="Caminho_19152" data-name="Caminho 19152" d="M673.378,681.462c10.971-8.6,18.154-22.794,18.154-38.871,0-26.266-19.1-47.551-42.649-47.551s-42.638,21.285-42.638,47.608c0,16.077,7.182,30.271,18.154,38.871H598.71V705.7h98.869V681.462Z" transform="translate(77.803 80.089)" fill="#1d1d1b"/>
        <path id="Caminho_19153" data-name="Caminho 19153" d="M698.186,706.248H598.24V680.981h24.689c-10.779-9.077-17.166-23.282-17.166-38.327,0-26.515,19.368-48.084,43.183-48.084s43.194,21.569,43.194,48.141c0,15.045-6.4,29.25-17.166,38.327h23.214Zm-98.869-1.135h97.791V682.07H671.875l1.237-.976c11.232-8.8,17.893-23.18,17.893-38.383,0-25.925-18.88-47.006-42.1-47.006s-42.059,21.024-42.059,47.006c0,15.26,6.717,29.636,17.949,38.44l1.225.976h-26.7Z" transform="translate(77.738 80.026)" fill="#fff"/>
        <rect id="Retângulo_3290" data-name="Retângulo 3290" width="105.279" height="83.858" transform="translate(673.27 781.214)" fill="#1d1d1b"/>
        <path id="Caminho_19154" data-name="Caminho 19154" d="M701.747,773.006H595.39V688.07H701.747Zm-105.279-1.055h104.19V689.125H596.468Z" transform="translate(77.346 92.611)" fill="#fff"/>
        <path id="Caminho_19155" data-name="Caminho 19155" d="M609.445,719.146h-3.71A53.757,53.757,0,0,0,618.521,684.1c0-28.717-21.784-52-48.674-52s-48.674,23.282-48.674,52a53.813,53.813,0,0,0,12.787,35.048H532.5c-15.442,0-27.956,13.49-27.956,30.135H637.424C637.424,732.636,624.909,719.146,609.445,719.146Z" transform="translate(65.467 85.077)" fill="#1d1d1b"/>
        <path id="Caminho_19156" data-name="Caminho 19156" d="M638.022,749.872H504.14v-.533c0-16.917,12.776-30.634,28.49-30.634h.306a54.461,54.461,0,0,1-12.163-34.5c0-28.966,22.068-52.532,49.207-52.532S619.2,655.236,619.2,684.2a54.46,54.46,0,0,1-12.163,34.5H609.5c15.7,0,28.49,13.763,28.49,30.634Zm-132.85-1.135H636.933c-.272-16.077-12.481-29.057-27.4-29.057h-4.879l.76-.9A53.326,53.326,0,0,0,618.065,684.1c0-28.365-21.557-51.454-48.13-51.454s-48.129,23.089-48.129,51.454a53.326,53.326,0,0,0,12.651,34.685l.771.9h-2.644c-14.988.057-27.139,13.036-27.412,29.114Z" transform="translate(65.412 85.02)" fill="#fff"/>
        <path id="Caminho_19157" data-name="Caminho 19157" d="M492.6,734.2h162.78a5.083,5.083,0,0,1,5.083,5.083v79.535H487.51V739.283A5.083,5.083,0,0,1,492.6,734.2Z" transform="translate(63.131 98.819)" fill="#1d1d1b"/>
        <path id="Caminho_19158" data-name="Caminho 19158" d="M661.081,819.426H487V739.108a5.389,5.389,0,0,1,5.389-5.378H655.658a5.389,5.389,0,0,1,5.389,5.378Zm-172.946-1.089H659.992V739.108a4.3,4.3,0,0,0-4.3-4.3H492.423a4.3,4.3,0,0,0-4.3,4.3Z" transform="translate(63.061 98.756)" fill="#fff"/>
        <path id="Caminho_19159" data-name="Caminho 19159" d="M450.715,718.085H447a53.78,53.78,0,0,0,12.787-35.036c0-28.716-21.8-52-48.674-52s-48.674,23.282-48.674,52a53.724,53.724,0,0,0,12.787,35.036h-1.475c-15.431,0-27.945,13.49-27.945,30.135H478.671C478.671,731.575,466.156,718.085,450.715,718.085Z" transform="translate(44.876 84.936)" fill="#1d1d1b"/>
        <path id="Caminho_19160" data-name="Caminho 19160" d="M479.262,748.829H345.38v-.545c0-16.917,12.787-30.634,28.49-30.634h.306a54.46,54.46,0,0,1-12.208-34.537c0-28.978,22.079-52.543,49.219-52.543s49.207,23.566,49.207,52.543A54.46,54.46,0,0,1,448.2,717.6h2.541c15.714,0,28.49,13.763,28.49,30.634Zm-132.838-1.135H478.173c-.261-16.066-12.481-29.046-27.4-29.046h-4.845l.772-.9a53.326,53.326,0,0,0,12.651-34.685c0-28.365-21.557-51.465-48.129-51.465S363.1,654.737,363.1,683.113A53.326,53.326,0,0,0,375.764,717.8l.76.9h-2.644c-15,0-27.2,12.98-27.457,29.046Z" transform="translate(44.818 84.871)" fill="#fff"/>
        <path id="Caminho_19161" data-name="Caminho 19161" d="M331.893,734.2H494.685a5.083,5.083,0,0,1,5.083,5.083v79.535H326.81V739.283A5.083,5.083,0,0,1,331.893,734.2Z" transform="translate(42.327 98.819)" fill="#1d1d1b"/>
        <path id="Caminho_19162" data-name="Caminho 19162" d="M500.377,819.426H326.33V739.108a5.389,5.389,0,0,1,5.389-5.378H495.01a5.389,5.389,0,0,1,5.389,5.378Zm-172.958-1.135H499.288V739.108a4.3,4.3,0,0,0-4.3-4.3H331.719a4.3,4.3,0,0,0-4.3,4.3Z" transform="translate(42.262 98.756)" fill="#fff"/>
        <path id="Caminho_19163" data-name="Caminho 19163" d="M291.163,718.685h-3.7a53.724,53.724,0,0,0,12.787-35.036c0-28.717-21.8-52-48.674-52s-48.674,23.282-48.674,52a53.723,53.723,0,0,0,12.787,35.036h-1.464c-15.442,0-27.956,13.49-27.956,30.135H319.12C319.12,732.175,306.605,718.685,291.163,718.685Z" transform="translate(24.181 85.017)" fill="#1d1d1b"/>
        <path id="Caminho_19164" data-name="Caminho 19164" d="M319.722,749.412H185.84v-.533c0-16.917,12.787-30.634,28.5-30.634h.306a54.461,54.461,0,0,1-12.174-34.492c0-28.978,22.079-52.543,49.219-52.543s49.219,23.566,49.219,52.543a54.46,54.46,0,0,1-12.174,34.492h2.542c15.714,0,28.5,13.763,28.5,30.634Zm-132.85-1.078h131.76c-.272-16.066-12.481-29.046-27.412-29.046h-4.867l.76-.9a53.326,53.326,0,0,0,12.651-34.685c0-28.365-21.557-51.465-48.129-51.465s-48.13,23.089-48.13,51.465a53.326,53.326,0,0,0,12.651,34.685l.76.9h-2.632C199.33,719.289,187.156,732.268,186.872,748.334Z" transform="translate(24.124 84.958)" fill="#fff"/>
        <path id="Caminho_19165" data-name="Caminho 19165" d="M173.442,734.2h162.8a5.083,5.083,0,0,1,5.083,5.083v79.535H168.37V739.283A5.083,5.083,0,0,1,173.442,734.2Z" transform="translate(21.815 98.819)" fill="#1d1d1b"/>
        <path id="Caminho_19166" data-name="Caminho 19166" d="M341.925,819.426H167.89V739.108a5.389,5.389,0,0,1,5.389-5.378H336.547a5.389,5.389,0,0,1,5.378,5.378Zm-172.958-1.135h171.88V739.108a4.3,4.3,0,0,0-4.3-4.3H173.279a4.312,4.312,0,0,0-4.311,4.3Z" transform="translate(21.752 98.756)" fill="#fff"/>
        <path id="Caminho_19167" data-name="Caminho 19167" d="M129.645,718.685h-3.71a53.724,53.724,0,0,0,12.787-35.036c0-28.717-21.784-52-48.674-52s-48.674,23.282-48.674,52A53.723,53.723,0,0,0,54.16,718.685H52.7c-15.442,0-27.956,13.49-27.956,30.135H157.59C157.59,732.175,145.075,718.685,129.645,718.685Z" transform="translate(3.348 85.017)" fill="#1d1d1b"/>
        <path id="Caminho_19168" data-name="Caminho 19168" d="M158.192,749.412H24.31v-.533c0-16.917,12.776-30.634,28.49-30.634h.306a54.461,54.461,0,0,1-12.163-34.492c0-28.978,22.068-52.543,49.207-52.543s49.219,23.566,49.219,52.543A54.46,54.46,0,0,1,127.206,718.2h2.553c15.7,0,28.49,13.763,28.49,30.634Zm-132.85-1.078H157.1c-.272-16.066-12.481-29.046-27.4-29.046h-4.879l.76-.9a53.326,53.326,0,0,0,12.651-34.685c0-28.365-21.557-51.465-48.129-51.465s-48.13,23.089-48.13,51.465a53.326,53.326,0,0,0,12.617,34.685l.772.9h-2.61c-14.943,0-27.14,12.98-27.412,29.046Z" transform="translate(3.29 84.958)" fill="#fff"/>
        <path id="Caminho_19169" data-name="Caminho 19169" d="M11.923,734.2H174.715a5.083,5.083,0,0,1,5.083,5.083v79.535H6.84V739.283a5.083,5.083,0,0,1,5.083-5.083Z" transform="translate(0.939 98.819)" fill="#1d1d1b"/>
        <path id="Caminho_19170" data-name="Caminho 19170" d="M180.407,819.426H6.36V739.108a5.389,5.389,0,0,1,5.389-5.378H175.006a5.389,5.389,0,0,1,5.389,5.378ZM7.449,818.291H179.318V739.108a4.3,4.3,0,0,0-4.3-4.3H11.749a4.3,4.3,0,0,0-4.3,4.3Z" transform="translate(0.874 98.756)" fill="#fff"/>
        <path id="Caminho_19171" data-name="Caminho 19171" d="M772.275,718.685h-3.7a53.723,53.723,0,0,0,12.787-35.036c0-28.717-21.8-52-48.674-52s-48.719,23.282-48.719,52a53.723,53.723,0,0,0,12.787,35.036h-1.441c-15.43,0-27.945,13.49-27.945,30.135H800.231C800.231,732.175,787.716,718.685,772.275,718.685Z" transform="translate(86.44 85.017)" fill="#1d1d1b"/>
        <path id="Caminho_19172" data-name="Caminho 19172" d="M800.822,749.412H666.94v-.533c0-16.917,12.787-30.634,28.49-30.634h.318a54.393,54.393,0,0,1-12.174-34.492c0-28.978,22.079-52.543,49.219-52.543S782,654.776,782,683.753a54.46,54.46,0,0,1-12.163,34.492h2.542c15.714,0,28.49,13.763,28.49,30.634Zm-132.838-1.078H799.756c-.272-16.066-12.481-29.046-27.412-29.046h-4.879l.772-.9a53.327,53.327,0,0,0,12.651-34.685c0-28.365-21.557-51.465-48.13-51.465s-48.13,23.089-48.13,51.465a53.326,53.326,0,0,0,12.651,34.685l.76.9h-2.666C680.442,719.289,668.245,732.268,667.984,748.334Z" transform="translate(86.382 84.958)" fill="#fff"/>
        <path id="Caminho_19173" data-name="Caminho 19173" d="M654.61,734.2H817.356a5.083,5.083,0,0,1,5.083,5.083v79.535H649.47V739.283a5.083,5.083,0,0,1,5.14-5.083Z" transform="translate(84.031 98.819)" fill="#1d1d1b"/>
        <path id="Caminho_19174" data-name="Caminho 19174" d="M823.036,819.426H649V739.108a5.389,5.389,0,0,1,5.378-5.378H817.646a5.389,5.389,0,0,1,5.389,5.378Zm-172.9-1.089H821.958V739.108a4.311,4.311,0,0,0-4.311-4.3H654.378a4.3,4.3,0,0,0-4.3,4.3Z" transform="translate(83.967 98.756)" fill="#fff"/>
      </g>
    </g>
  </g>
</svg>
