<svg xmlns="http://www.w3.org/2000/svg" xmlns:xlink="http://www.w3.org/1999/xlink" width="1080" height="1920" viewBox="0 0 1080 1920">
  <defs>
    <linearGradient id="linear-gradient" x1="-0.007" y1="2.233" x2="1" y2="2.233" gradientUnits="objectBoundingBox">
      <stop offset="0" stop-color="#ffe340"/>
      <stop offset="0.21" stop-color="#ee721e"/>
      <stop offset="0.46" stop-color="#dc2655"/>
      <stop offset="0.78" stop-color="#5c5ea5"/>
      <stop offset="1" stop-color="#38b8ee"/>
    </linearGradient>
    <linearGradient id="linear-gradient-2" x1="0" y1="-0.779" x2="1.006" y2="-0.779" xlink:href="#linear-gradient"/>
    <linearGradient id="linear-gradient-3" x1="0" y1="0.4" x2="1" y2="0.4" xlink:href="#linear-gradient"/>
    <linearGradient id="linear-gradient-4" x1="0" y1="7.319" x2="1" y2="7.319" xlink:href="#linear-gradient"/>
    <linearGradient id="linear-gradient-5" x1="0" y1="7.797" x2="0.998" y2="7.797" xlink:href="#linear-gradient"/>
    <linearGradient id="linear-gradient-6" y1="0.5" x2="1" y2="0.5" gradientUnits="objectBoundingBox">
      <stop offset="0" stop-color="#fde648"/>
      <stop offset="0.21" stop-color="#ee7d20"/>
      <stop offset="0.455" stop-color="#df295f"/>
      <stop offset="0.781" stop-color="#6768ad"/>
      <stop offset="0.999" stop-color="#40bfef"/>
    </linearGradient>
    <linearGradient id="linear-gradient-7" x1="0" y1="0.499" x2="1" y2="0.499" xlink:href="#linear-gradient-6"/>
    <clipPath id="clip-Infográfico_2">
      <rect width="1080" height="1920"/>
    </clipPath>
  </defs>
  <g id="Infográfico_2" data-name="Infográfico 2" clip-path="url(#clip-Infográfico_2)">
    <rect width="1080" height="1920" fill="#fff"/>
    <g id="Camada_1-2" transform="translate(104 188)">
      <rect id="Retângulo_6476" data-name="Retângulo 6476" width="863.412" height="1536.583" transform="translate(5.536 4.066)" fill="#f6faf4"/>
      <path id="Caminho_31984" data-name="Caminho 31984" d="M917.278,576.963c-.346-11.937-.692-23.874-.952-35.812l-.346-17.906-.26-17.906q-.649-35.811-.865-71.623c-.087-11.937-.173-23.874-.173-35.811s-.173-23.874-.086-35.811V344.188l.173-17.906c.087-11.937.26-23.874.433-35.811l1.124-71.623c.086-11.937.26-23.874.26-35.812l.086-17.906V147.052c0-11.937-.086-23.874-.173-35.812l-.433-35.812L914.942,3.72,917.624,6.4c-38.147.433-76.294.519-114.441.779l-28.632.173-28.632.087H717.287l-28.632-.087q-57.22-.26-114.441-1.038c-19.03-.26-38.147-.519-57.177-.865l-28.632-.606L474.132,4.5l-14.186-.433a.372.372,0,0,1-.346-.346h0a.372.372,0,0,1,.346-.346h0l14.273-.346,14.273-.346,28.632-.606c19.03-.346,38.147-.606,57.177-.865Q631.521.433,688.742.173L717.374,0h57.264l28.632.173c38.147.26,76.294.346,114.441.779h2.768V3.633L919.44,75.343l-.433,35.812c-.086,11.937-.173,23.874-.173,35.812v17.906l.086,17.906c0,11.937.173,23.874.26,35.811l1.124,71.623c.173,11.937.346,23.874.433,35.811l.173,17.906v17.906c.086,11.937-.086,23.874-.086,35.811s-.086,23.874-.173,35.811q-.259,35.811-.865,71.623l-.26,17.906-.346,17.906c-.26,11.937-.606,23.874-.952,35.812a.372.372,0,0,1-.346.346c-.432.259-.605.086-.605-.087Z" transform="translate(-48.935)" fill="url(#linear-gradient)"/>
      <path id="Caminho_31985" data-name="Caminho 31985" d="M3.46,1024.156q1.038,43.078,1.557,86.155l.519,43.078.173,21.539.173,21.539c.26,28.718.26,57.437.346,86.155V1325.7l-.26,43.078-1.038,86.155c-.173,14.359-.346,28.718-.433,43.078l-.26,21.625-.087,21.539q-.13,43.077.173,86.155l.865,86.155-2.163-2.163c53.285-.692,106.656-.951,159.941-1.124l80.014-.346h79.927q39.964.13,80.014.346l39.964.259,39.964.346q39.964.389,80.014.952l39.964.605q19.982.259,39.964.778a.346.346,0,1,1,0,.692l-39.964.779-39.964.605q-39.964.519-80.014.952l-39.964.346-39.964.26q-39.964.259-80.014.346-19.982.13-39.964,0H242.982l-80.014-.346c-53.285-.173-106.656-.432-159.941-1.125H.865v-2.162l.865-86.155q.26-43.077.173-86.155v-21.539L1.73,1498.1c-.087-14.359-.26-28.718-.433-43.078L.26,1368.863,0,1325.786v-43.078q.13-43.078.346-86.155l.173-21.539.173-21.539q.13-21.539.519-43.078.519-43.078,1.557-86.155a.372.372,0,0,1,.346-.346h0c.173-.086.346.087.346.259Z" transform="translate(0 -173.182)" fill="url(#linear-gradient-2)"/>
      <path id="Caminho_31986" data-name="Caminho 31986" d="M697.908,995.5a1.465,1.465,0,0,1-1.99-.086,1.3,1.3,0,0,1-.346-.952c.259-10.986,2.509-20.414,3.72-30.016.173-1.211.865-2.682-.346-3.46-.692-.432-1.99-.173-2.941,0a1.5,1.5,0,0,0-1.3,1.73v.173c1.3,6.92-.865,13.235-2.768,19.29-2.768,8.391-6.487,16.349-9,24.739-.606,2.076-.173,5.1-3.633,4.758-3.374-.346-4.239-2.682-4.152-5.882.519-13.235,3.287-26.123,5.363-39.185,3.893-24.48,10.121-48.354,17.3-71.969.865-2.941,1.816-5.709-2.6-6.834-2.336-.606-3.633-2.768-4.758-4.844-16.954-32.005-43.683-54.323-73.872-72.661-44.894-27.334-93.681-43.943-145.5-53.2-31.659-5.623-63.146-8.391-94.978-4.931-29.5,3.2-57.523,11.5-81.83,29.41-3.633,2.681-6.747,5.969-10.294,8.823,13.408-16.262,30.967-26.383,50.344-33.822a96.565,96.565,0,0,1,11.937-3.979c7.612-1.9,13.235-5.969,19.376-11.159,9.948-8.391,19.117-18.771,32.351-22.923,2.855-.865,6.834-2.682,6.574-5.969-.259-3.46-4.758-2.336-7.353-3.2-3.547-1.211-7.439.086-11.072,1.038-28.372,7.266-54.669,18.511-76.208,39.1a32.1,32.1,0,0,1-2.768,1.99c1.99-4.671,9.948-11.851,19.117-18.252,34.081-23.874,72.574-32.438,113.49-33.13,52.247-.779,99.909,14.878,144.63,40.569,34.773,19.982,64.1,46.278,86.847,79.581a239.224,239.224,0,0,1,25.258,49.046c.692,1.9,1.038,4.758,3.287,4.931,2.6.26,2.768-2.768,3.46-4.5.865-2.076,2.6-3.46,4.325-4.931a1.39,1.39,0,0,1,1.99.173,1.551,1.551,0,0,1,.346,1.211c-1.99,9.688-.865,19.809-3.2,29.5-.606,2.509,4.585,7.526,2.249,11.245-2.076,3.2-2.336,6.488-2.249,9.861a1.423,1.423,0,0,0,1.384,1.384,1.406,1.406,0,0,0,1.3-.952c3.374-10.553,7.093-21.193,10.986-32.351a1.442,1.442,0,0,1,1.816-.779,1.376,1.376,0,0,1,.779.779c1.038,3.028.346,5.623,0,8.131-3.633,30.275-11.678,59.6-19.809,88.837-1.211,4.411-1.99,9-4.412,13.062A1.978,1.978,0,0,0,697.908,995.5ZM663.654,820.765c-3.287.692-5.623,2.422-3.547,6.488,7.7,15.224,16,30.189,29.151,41.607,1.125.951,1.73,3.719,3.72,2.336s.432-3.547-.26-5.19a215.883,215.883,0,0,0-25.085-43.251c-1.038-1.3-1.9-2.335-3.979-1.99Z" transform="translate(-30.659 -111.211)" fill="#1b1b1a"/>
      <path id="Caminho_31987" data-name="Caminho 31987" d="M604.33,905.209c1.038,73.959-60.9,136.066-136.326,136.931-76.208.865-137.191-58.648-137.1-135.634.087-74.045,60.378-136.066,139.353-135.807C540.579,770.959,603.465,828.223,604.33,905.209Zm-261.147.346c.433,68.768,55.447,122.659,125.167,122.4,66.692-.173,122.832-56.226,122.572-122.226-.346-68.768-55.188-123.178-123.956-123-68.25.173-124.216,55.707-123.783,122.832Z" transform="translate(-38.26 -121.866)" fill="url(#linear-gradient-3)"/>
      <path id="Caminho_31988" data-name="Caminho 31988" d="M269.209,809.9c.346,1.557.606,2.163,1.3,2.249a1.346,1.346,0,0,1,1.211,1.471,1.229,1.229,0,0,1-.173.519c-19.809,38.58-24.22,79.927-20.5,123.61a1.32,1.32,0,0,1-1.3,1.471,1.455,1.455,0,0,1-1.3-.605c-13.408-20.587-13.408-42.213-9.861-64.443,2.682-16.781,6.92-33.13,14.965-48.354,3.46-6.661,6.4-13.754,13.667-17.041a1.331,1.331,0,0,1,1.817.692C269.209,809.73,269.209,809.817,269.209,809.9Z" transform="translate(-28.681 -126.046)" fill="#1b1b1a"/>
      <path id="Caminho_31989" data-name="Caminho 31989" d="M708.639,741.13a1.465,1.465,0,0,1,0-1.99,1.3,1.3,0,0,1,1.47-.26,11.118,11.118,0,0,1,4.585,3.114A186.041,186.041,0,0,1,737.7,772.875a1.38,1.38,0,0,1-2.336,1.471A248.217,248.217,0,0,0,708.639,741.13Z" transform="translate(-85.922 -114.209)" fill="#1b1b1a"/>
      <path id="Caminho_31990" data-name="Caminho 31990" d="M427.8,921.085c-.519-26.037,21.02-48.268,47.316-48.787,26.815-.606,49.046,20.068,49.652,46.105a48.841,48.841,0,0,1-47.4,50.084h-.606C450.029,969.093,428.318,948.159,427.8,921.085Zm73.007-.519c8.218-.173,14.878-6.92,14.705-14.792a14.656,14.656,0,0,0-14.705-14.532h-.173a15.012,15.012,0,0,0-14.705,14.878,14.4,14.4,0,0,0,14.359,14.446Z" transform="translate(-51.381 -135.544)" fill="#1b1b1a"/>
      <path id="Caminho_31991" data-name="Caminho 31991" d="M363.222,1140.762h0a4.454,4.454,0,0,1,4.931-.26c37.455,19.549,77.851,24.48,120.583,21.712a1.379,1.379,0,0,1,1.557,1.211,1.276,1.276,0,0,1-.692,1.384c-20.847,12.975-42.472,12.543-64.616,8.564-16.781-3.028-32.957-7.612-48.008-16-5.45-3.028-11.245-5.623-14.792-10.64A4.381,4.381,0,0,1,363.222,1140.762Z" transform="translate(-43.177 -176.217)" fill="#1b1b1a"/>
      <path id="Caminho_31992" data-name="Caminho 31992" d="M233.756,1261.1l39.1,4.671a91.676,91.676,0,0,1,13.581,2.595,36.218,36.218,0,0,1,11.937,5.363,23.06,23.06,0,0,1,7.872,9.169c1.817,3.719,2.422,8.477,1.73,14.186-.692,5.882-2.941,10.64-6.747,14.1a28.029,28.029,0,0,1-14.1,6.834v.26a31.553,31.553,0,0,1,9.083,3.979,24.079,24.079,0,0,1,6.574,6.315,23.165,23.165,0,0,1,3.72,8.3,30.332,30.332,0,0,1,.519,9.688c-.692,5.536-2.422,9.948-5.19,13.408a28.447,28.447,0,0,1-10.207,7.872,38.79,38.79,0,0,1-13.235,3.374,70.769,70.769,0,0,1-14.186-.173l-42.9-5.1Zm12.975,87.972,20.674,2.422a22.972,22.972,0,0,0,5.45.086,15.519,15.519,0,0,0,5.19-1.47,11.289,11.289,0,0,0,4.066-3.46,10.867,10.867,0,0,0,2.076-5.623,9.746,9.746,0,0,0-1.125-6.228,12.725,12.725,0,0,0-4.239-4.066,23.2,23.2,0,0,0-5.882-2.335,35.6,35.6,0,0,0-6.055-1.125L249.5,1325.2Zm5.19-43.337,16.695,1.99a26.892,26.892,0,0,0,5.277,0,13.067,13.067,0,0,0,4.844-1.384,9.462,9.462,0,0,0,3.72-3.2,11.113,11.113,0,0,0,1.9-5.19,9.437,9.437,0,0,0-3.979-9.342,16.726,16.726,0,0,0-4.844-2.335,28.155,28.155,0,0,0-5.363-1.125l-15.657-1.9Z" transform="translate(-26.623 -196.21)" fill="#1b1b1a"/>
      <path id="Caminho_31993" data-name="Caminho 31993" d="M342.191,1274l39.185,3.114a91.518,91.518,0,0,1,13.667,2.076,35.959,35.959,0,0,1,12.11,4.844,23.931,23.931,0,0,1,8.3,8.823c1.99,3.633,2.768,8.391,2.336,14.1-.432,5.969-2.509,10.726-6.142,14.359a27.7,27.7,0,0,1-13.84,7.353v.26a28.26,28.26,0,0,1,9.169,3.633,25.324,25.324,0,0,1,6.834,6.055,22.485,22.485,0,0,1,4.066,8.131,27.683,27.683,0,0,1,.865,9.6c-.433,5.536-1.99,10.034-4.671,13.581a27.759,27.759,0,0,1-9.948,8.218,41.339,41.339,0,0,1-13.062,3.893,70.593,70.593,0,0,1-14.186.346l-43.078-3.46Zm16.349,87.366,20.76,1.644a23.011,23.011,0,0,0,5.45-.173,15.979,15.979,0,0,0,5.19-1.73,11.015,11.015,0,0,0,5.882-9.256,9.029,9.029,0,0,0-1.384-6.142,12,12,0,0,0-4.412-3.893,28.948,28.948,0,0,0-5.969-2.162A46.465,46.465,0,0,0,378,1338.7l-17.56-1.384Zm3.46-43.51,16.781,1.384a21.445,21.445,0,0,0,5.277-.173,15.881,15.881,0,0,0,4.844-1.557,10.185,10.185,0,0,0,3.633-3.287,10.346,10.346,0,0,0,1.73-5.277,9.46,9.46,0,0,0-.951-5.536,10.431,10.431,0,0,0-3.374-3.633,17.59,17.59,0,0,0-4.931-2.076,29.986,29.986,0,0,0-5.45-.952l-15.743-1.211Z" transform="translate(-40.169 -198.185)" fill="#1b1b1a"/>
      <path id="Caminho_31994" data-name="Caminho 31994" d="M451.384,1282.1l39.358.519a104.046,104.046,0,0,1,13.754,1.125,36.541,36.541,0,0,1,12.37,4.065,23.029,23.029,0,0,1,8.823,8.218c2.249,3.547,3.287,8.131,3.287,13.927q-.13,8.953-5.19,14.792a27.163,27.163,0,0,1-13.321,8.218v.26a30.077,30.077,0,0,1,9.429,3.028,24.145,24.145,0,0,1,7.266,5.622,25.736,25.736,0,0,1,4.585,7.872,29.644,29.644,0,0,1,1.557,9.515c-.086,5.536-1.3,10.207-3.719,13.927a28.156,28.156,0,0,1-9.429,8.91,40.171,40.171,0,0,1-12.8,4.757,64.352,64.352,0,0,1-14.1,1.3L450,1387.545Zm22.144,86.069,20.847.26a29.059,29.059,0,0,0,5.45-.519,14.864,14.864,0,0,0,5.017-1.99,12.029,12.029,0,0,0,3.72-3.806,10.544,10.544,0,0,0,1.471-5.8,9.459,9.459,0,0,0-1.816-6.055,11.811,11.811,0,0,0-4.671-3.547,24.287,24.287,0,0,0-6.055-1.73,36.038,36.038,0,0,0-6.142-.519l-17.56-.26Zm.519-43.6,16.868.26a26.62,26.62,0,0,0,5.277-.519,14.085,14.085,0,0,0,4.758-1.9,9.49,9.49,0,0,0,3.374-3.547,10.479,10.479,0,0,0,1.3-5.363,9.978,9.978,0,0,0-1.3-5.45,9.735,9.735,0,0,0-3.633-3.374,17.464,17.464,0,0,0-5.017-1.817,29.327,29.327,0,0,0-5.536-.605l-15.83-.173Z" transform="translate(-54.167 -199.4)" fill="#1b1b1a"/>
      <path id="Caminho_31995" data-name="Caminho 31995" d="M613.851,1360.835,650.7,1319.92a85.582,85.582,0,0,0,5.536-7.007,12.392,12.392,0,0,0,2.249-8.65,10.036,10.036,0,0,0-4.758-7.958,14.147,14.147,0,0,0-9.342-2.076c-4.152.432-7.266,2.076-9.256,4.844a15.6,15.6,0,0,0-2.941,9.861l-22.4.692a36.063,36.063,0,0,1,1.9-14.532,29.5,29.5,0,0,1,6.834-10.813,32.389,32.389,0,0,1,10.813-7.18,49.657,49.657,0,0,1,14.1-3.547,42.212,42.212,0,0,1,13.581.605A32.546,32.546,0,0,1,668.433,1279a26.718,26.718,0,0,1,8.218,9.083,34.949,34.949,0,0,1,4.065,13.494,36.865,36.865,0,0,1-.086,9.256,28.944,28.944,0,0,1-2.076,7.7,33.572,33.572,0,0,1-3.72,6.661c-1.557,2.076-3.2,4.152-4.931,6.055l-28.978,30.794,46.538-4.931,2.076,19.549-73.18,7.785Z" transform="translate(-73.429 -198.117)" fill="#1b1b1a"/>
      <path id="Caminho_31996" data-name="Caminho 31996" d="M710.573,1320.407a107.683,107.683,0,0,1-2.076-19.03,57.817,57.817,0,0,1,2.509-18.425,36.207,36.207,0,0,1,9.169-14.965c4.325-4.239,10.294-7.18,17.992-8.736s14.359-1.211,19.982,1.038a35.239,35.239,0,0,1,14.273,10.294,55.626,55.626,0,0,1,9.515,16,106.606,106.606,0,0,1,7.526,37.368,57.82,57.82,0,0,1-2.509,18.425,35.51,35.51,0,0,1-9.256,14.965c-4.325,4.239-10.294,7.18-17.992,8.737s-14.359,1.211-19.982-1.038a35.237,35.237,0,0,1-14.273-10.294,53.486,53.486,0,0,1-9.429-16A106.129,106.129,0,0,1,710.573,1320.407ZM732.457,1316c.519,2.768,1.3,5.969,2.336,9.688a52.466,52.466,0,0,0,4.152,10.553,24.647,24.647,0,0,0,6.661,7.958c2.682,1.99,6.055,2.6,10.034,1.817,3.893-.778,6.747-2.595,8.477-5.536a23.672,23.672,0,0,0,3.2-9.861,49.57,49.57,0,0,0-.26-11.332c-.519-3.806-1.038-7.093-1.643-9.861s-1.3-5.969-2.336-9.688a47.8,47.8,0,0,0-4.152-10.553,23.714,23.714,0,0,0-6.747-7.872,12.18,12.18,0,0,0-9.948-1.817c-3.979.779-6.834,2.682-8.564,5.536a24.854,24.854,0,0,0-3.114,9.861,49.566,49.566,0,0,0,.26,11.332c.605,3.72,1.124,7.007,1.643,9.775Z" transform="translate(-85.311 -195.744)" fill="#1b1b1a"/>
      <path id="Caminho_31997" data-name="Caminho 31997" d="M198.055,571a64.47,64.47,0,0,1-13.667,11.072,93.006,93.006,0,0,1-16,7.526,51.566,51.566,0,0,1-17.733,2.941,40.69,40.69,0,0,1-16-3.547,39.277,39.277,0,0,1-13.062-9.775A49.719,49.719,0,0,1,110,545.745,38.119,38.119,0,0,1,114.235,530a39.665,39.665,0,0,1,10.38-12.629,51.374,51.374,0,0,1,15.657-8.65,62.819,62.819,0,0,1,17.819-3.633,35.458,35.458,0,0,1,16.349,2.941L167,525.245a25.456,25.456,0,0,0-9.688-2.768,29.011,29.011,0,0,0-11.5,1.9,27.007,27.007,0,0,0-9.169,5.277,24.442,24.442,0,0,0-5.8,7.785,22.826,22.826,0,0,0-2.076,9.6,32.409,32.409,0,0,0,6.834,19.9,24.5,24.5,0,0,0,7.526,6.142,23.478,23.478,0,0,0,9.342,2.509,27.029,27.029,0,0,0,10.467-1.557,33.735,33.735,0,0,0,9.169-4.585,41.234,41.234,0,0,0,5.536-4.758l-4.325-12.543-13.84,4.758-5.45-15.657,30.1-10.467Z" transform="translate(-14.845 -78.415)" fill="#1b1b1a"/>
      <path id="Caminho_31998" data-name="Caminho 31998" d="M207.1,491.3l17.387-4.5,16.262,62.886,32.178-8.3,4.152,16.089-49.652,12.8Z" transform="translate(-24.98 -75.559)" fill="#1b1b1a"/>
      <path id="Caminho_31999" data-name="Caminho 31999" d="M284.278,512.451a45,45,0,0,1,.259-17.992,39.384,39.384,0,0,1,6.747-14.878,40.89,40.89,0,0,1,12.283-10.813,53.917,53.917,0,0,1,34.773-5.882,39.977,39.977,0,0,1,15.138,6.142,38.384,38.384,0,0,1,11.245,11.764,49.925,49.925,0,0,1,5.969,34.947,39.384,39.384,0,0,1-6.747,14.878,40.891,40.891,0,0,1-12.283,10.813,52.842,52.842,0,0,1-34.773,5.882,39.976,39.976,0,0,1-15.138-6.142,37.73,37.73,0,0,1-11.245-11.851A44.636,44.636,0,0,1,284.278,512.451Zm18.425-3.114a28.289,28.289,0,0,0,3.547,10.121,23.981,23.981,0,0,0,6.488,7.353,22.24,22.24,0,0,0,8.823,4.066,25.53,25.53,0,0,0,10.553.173,27.026,27.026,0,0,0,9.948-3.633,22.669,22.669,0,0,0,7.007-6.747,23.241,23.241,0,0,0,3.633-9,31.575,31.575,0,0,0-3.547-20.76,23.982,23.982,0,0,0-6.488-7.353,22.24,22.24,0,0,0-8.823-4.066,28.668,28.668,0,0,0-20.587,3.46,24.777,24.777,0,0,0-7.007,6.747,25.063,25.063,0,0,0-3.633,9.083A28.871,28.871,0,0,0,302.7,509.336Z" transform="translate(-34.099 -71.748)" fill="#1b1b1a"/>
      <path id="Caminho_32000" data-name="Caminho 32000" d="M438.729,471.224a13.078,13.078,0,0,0-6.228-3.633,20.161,20.161,0,0,0-7.18-.779,15.451,15.451,0,0,0-3.979.779,16.67,16.67,0,0,0-3.806,1.73,7.969,7.969,0,0,0-2.768,2.855A7.147,7.147,0,0,0,417.1,481.6a24.23,24.23,0,0,0,7.18,2.768c2.855.692,5.969,1.384,9.256,2.076a36.189,36.189,0,0,1,9.342,3.2,21.871,21.871,0,0,1,7.526,6.228q3.114,4.022,3.633,11.159a25.872,25.872,0,0,1-1.557,12.024,24.571,24.571,0,0,1-6.142,8.91,27.772,27.772,0,0,1-9.6,5.709,46.189,46.189,0,0,1-26.729,1.384,36.447,36.447,0,0,1-13.235-6.834l11.591-14.965a18.512,18.512,0,0,0,7.439,5.1,19.866,19.866,0,0,0,13.235.433,13.559,13.559,0,0,0,3.893-1.9,9.365,9.365,0,0,0,2.682-2.854,6.12,6.12,0,0,0,.779-3.893,6.666,6.666,0,0,0-3.287-5.536,24.907,24.907,0,0,0-7.353-3.028c-2.941-.779-6.055-1.557-9.429-2.249a41.32,41.32,0,0,1-9.515-3.287,22.5,22.5,0,0,1-7.612-6.055c-2.076-2.6-3.287-6.142-3.72-10.726a24.016,24.016,0,0,1,7.872-20.5,29.938,29.938,0,0,1,9.515-5.8,42.926,42.926,0,0,1,11.418-2.6,47.111,47.111,0,0,1,13.494.865,29.914,29.914,0,0,1,12.11,5.623Z" transform="translate(-47.765 -69.899)" fill="#1b1b1a"/>
      <path id="Caminho_32001" data-name="Caminho 32001" d="M518.146,468.811a12.967,12.967,0,0,0-5.969-4.066,24.48,24.48,0,0,0-7.093-1.3,16.379,16.379,0,0,0-4.066.519,15.069,15.069,0,0,0-3.893,1.471,7.72,7.72,0,0,0-2.941,2.6,7.167,7.167,0,0,0,1.73,9.515,25.959,25.959,0,0,0,7.007,3.287c2.855.865,5.8,1.817,9.083,2.682a38.114,38.114,0,0,1,9.083,3.806,20.9,20.9,0,0,1,7.007,6.747c1.9,2.855,2.855,6.574,2.855,11.332a26.724,26.724,0,0,1-2.422,11.851,23.86,23.86,0,0,1-6.747,8.477,28.615,28.615,0,0,1-9.948,5.1,45.7,45.7,0,0,1-26.815-.606,36.1,36.1,0,0,1-12.716-7.7l12.629-14.186a18.545,18.545,0,0,0,7.007,5.623,20.194,20.194,0,0,0,8.737,1.99,19.207,19.207,0,0,0,4.412-.519,15.867,15.867,0,0,0,3.979-1.557,8.476,8.476,0,0,0,2.855-2.681,6.484,6.484,0,0,0,1.038-3.806,6.938,6.938,0,0,0-2.854-5.8,24.791,24.791,0,0,0-7.093-3.547c-2.854-.952-5.882-1.9-9.256-2.941a41.528,41.528,0,0,1-9.256-3.979,22.7,22.7,0,0,1-7.18-6.574c-1.9-2.768-2.855-6.4-2.941-10.9a24.049,24.049,0,0,1,2.509-11.5,24.475,24.475,0,0,1,6.834-8.3,29.966,29.966,0,0,1,9.948-5.017,40.907,40.907,0,0,1,11.591-1.73,47.276,47.276,0,0,1,13.408,1.817,30.5,30.5,0,0,1,11.678,6.488Z" transform="translate(-57.064 -69.408)" fill="#1b1b1a"/>
      <path id="Caminho_32002" data-name="Caminho 32002" d="M585.475,448.371l14.792,1.038,29.324,83.906-20.241-1.471-5.709-17.733-31.573-2.336-8.045,16.695L544.3,527Zm5.1,24.134-11.764,24.566,19.9,1.471Zm4.239-46.105,23.442,1.73-21.106,15.051-15.138-1.125Z" transform="translate(-65.498 -66.321)" fill="#1b1b1a"/>
      <path id="Caminho_32003" data-name="Caminho 32003" d="M663.362,458.6l31.141,5.1a56.946,56.946,0,0,1,11.418,3.028,27.49,27.49,0,0,1,9,5.536,19.762,19.762,0,0,1,5.363,8.564,25.553,25.553,0,0,1,.519,12.2,24.142,24.142,0,0,1-6.747,13.754,20.168,20.168,0,0,1-14.186,5.45l14.965,37.282-21.279-3.46-11.591-34.86-8.736-1.471-5.19,32.265L650.3,539.133Zm12.283,36.158,10.467,1.73c1.557.259,3.287.519,5.1.692a16.328,16.328,0,0,0,5.017-.259,8.825,8.825,0,0,0,3.979-2.076A7.909,7.909,0,0,0,702.46,490a9.331,9.331,0,0,0-.433-5.1,8.437,8.437,0,0,0-2.768-3.287,14.659,14.659,0,0,0-4.239-1.99,30.321,30.321,0,0,0-4.844-1.125l-11.591-1.9Z" transform="translate(-78.426 -71.228)" fill="#1b1b1a"/>
      <path id="Caminho_32004" data-name="Caminho 32004" d="M751.419,474.4l17.56,3.979L751.16,557.96l-17.56-3.893Z" transform="translate(-88.929 -73.635)" fill="#1b1b1a"/>
      <path id="Caminho_32005" data-name="Caminho 32005" d="M779.263,522.714a46.914,46.914,0,0,1,8.218-16,39.462,39.462,0,0,1,12.629-10.38,40.275,40.275,0,0,1,15.743-4.239,53.584,53.584,0,0,1,33.735,10.121,40.852,40.852,0,0,1,10.9,12.2,39.588,39.588,0,0,1,4.931,15.57,49.161,49.161,0,0,1-10.207,33.995,40.627,40.627,0,0,1-12.629,10.38,41.813,41.813,0,0,1-15.743,4.239A53.584,53.584,0,0,1,793.1,568.473a40.853,40.853,0,0,1-10.9-12.2,39.588,39.588,0,0,1-4.931-15.57A46.924,46.924,0,0,1,779.263,522.714Zm17.906,5.363a31.541,31.541,0,0,0-1.3,10.64,23.882,23.882,0,0,0,2.509,9.429,23.272,23.272,0,0,0,6.055,7.526,28.708,28.708,0,0,0,19.982,5.969,24.7,24.7,0,0,0,9.256-2.941,23.675,23.675,0,0,0,7.266-6.488,31.569,31.569,0,0,0,6.055-20.155,23.882,23.882,0,0,0-2.508-9.429,23.274,23.274,0,0,0-6.055-7.526,28.709,28.709,0,0,0-19.982-5.969,23.246,23.246,0,0,0-9.256,2.941,23.8,23.8,0,0,0-7.266,6.488A28.117,28.117,0,0,0,797.169,528.077Z" transform="translate(-91.794 -76.394)" fill="#1b1b1a"/>
      <path id="Caminho_32006" data-name="Caminho 32006" d="M286.83,315.854a3.951,3.951,0,0,1-1.99,2.422h0l-.346.086a5.4,5.4,0,0,1-1.471,2.422,2.062,2.062,0,0,1-.952.519l-.692.26a7.708,7.708,0,0,0-.952.173l-3.979.346L228.1,325.888l-18.684,10.726L222.3,358.931a9.639,9.639,0,0,1-3.547,13.148l-4.844,2.768a9.456,9.456,0,0,1-4.844,1.3,8,8,0,0,1-2.509-.346,9.636,9.636,0,0,1-5.882-4.5l-13.148-22.75c-9.169,2.855-20.674-1.557-26.3-10.207l-6.142-9.429c-6.834-10.38-4.5-24.22,5.19-31.4l33.216-24.22.173-.346h0l25-42.472,1.644-2.682,1.211-1.73.087-.087.26-.26c.087-.087.346-.346.433-.346.173-.173.432-.26.605-.433a4.876,4.876,0,0,1,1.038-.346h.087a6.677,6.677,0,0,1,1.3.173,2.629,2.629,0,0,1,.605-.433,4.322,4.322,0,0,1,3.287-.173c9.775,2.768,31.919,28.113,42.991,49.306C283.716,295.353,288.733,310.058,286.83,315.854Z" transform="translate(-18.035 -30.227)" fill="url(#linear-gradient-4)"/>
      <path id="Caminho_32007" data-name="Caminho 32007" d="M278.934,266.328c-11.678-21.539-34.946-47.316-45.24-50.171a4.388,4.388,0,0,0-3.46.173,1.552,1.552,0,0,0-.605.432,3.586,3.586,0,0,0-1.384-.173h-.087a2.453,2.453,0,0,0-1.125.346,3.035,3.035,0,0,0-.692.433l-.433.433-.259.346-.087.087-1.3,1.817-1.73,2.682-26.3,43.251h0l-.173.346-34.86,24.566a23.113,23.113,0,0,0-5.45,31.919l6.488,9.515c5.969,8.823,18.079,13.321,27.68,10.38l13.84,23.182a10.3,10.3,0,0,0,6.142,4.585,8.93,8.93,0,0,0,2.6.346,10.088,10.088,0,0,0,5.017-1.3l5.1-2.855a9.964,9.964,0,0,0,4.758-5.969,9.382,9.382,0,0,0-1.038-7.439l-13.581-22.75L232.483,319.7l50.776-3.893,4.239-.346a6.117,6.117,0,0,0,1.038-.173l.778-.259,1.038-.519a4.548,4.548,0,0,0,1.557-2.422l.346-.173h0a4.091,4.091,0,0,0,2.076-2.422C296.234,303.437,290.957,288.558,278.934,266.328Zm-52.852,87.107a9.091,9.091,0,0,1,.952,7.18,9.431,9.431,0,0,1-4.585,5.709l-5.1,2.855a9.721,9.721,0,0,1-7.439.952,9.921,9.921,0,0,1-5.969-4.412L190.01,342.276h-.173c-9.515,2.941-21.539-1.557-27.421-10.207l-6.4-9.6a22.747,22.747,0,0,1,5.363-31.486l34.773-24.566c-1.644,10.207,1.73,22.75,8.91,32.87,8.218,11.418,17.473,18.338,26.815,20.068l-19.549,10.813Zm64.011-39.272a7.593,7.593,0,0,1-.865.519l-.779.259s-.606.087-.952.173l-4.239.346L232.4,319.353c-9.429-1.557-18.771-8.477-27.075-19.982-7.266-10.207-10.64-22.923-8.737-33.216l26.3-43.251,1.73-2.682,1.3-1.73.087-.087.26-.346c.087-.087.346-.346.433-.346a2.168,2.168,0,0,1,.606-.346,1.972,1.972,0,0,1,.952-.259h.087a4.211,4.211,0,0,1,1.038.087c-5.1,5.1,2.249,25.431,18.079,49.565,17.473,26.729,32.957,43.683,41.348,45.413a7.57,7.57,0,0,0,1.384.173,6.677,6.677,0,0,0,1.3-.173,5.926,5.926,0,0,1-1.384,1.99Zm-42.386-47.749c-3.893-5.969-7.353-11.764-10.121-17.127a10.127,10.127,0,0,1,7.7-.26c6.747,1.99,13.84,8.65,18.165,16.781,6.488,12.2,6.834,19.982,1.3,24.393C259.384,283.541,253.675,275.583,247.707,266.414ZM293.9,309.232a4.157,4.157,0,0,1-1.471,1.99h0a2.59,2.59,0,0,1-.692.346h-.173a5.957,5.957,0,0,1-2.768.086c-5.363-1.124-13.84-8.737-23.874-21.279,5.709-4.5,5.363-12.37-1.211-24.739-4.325-8.218-11.591-14.878-18.425-16.954a10.8,10.8,0,0,0-7.958.26c-8.391-16-11.591-28.372-7.7-31.919h0l.087-.087c.173-.173.433-.346.605-.519a3.911,3.911,0,0,1,3.114-.087c10.207,2.768,33.389,28.459,44.981,50,12.024,21.971,17.473,37.109,15.484,42.9Z" transform="translate(-18.067 -29.141)" fill="#1b1b1a" stroke="#1b1b1a" stroke-miterlimit="10" stroke-width="0.75"/>
      <path id="Caminho_32008" data-name="Caminho 32008" d="M845.966,163.382h-.346c0-1.557-.086-3.2-.173-4.758l-5.882-.087c.087,1.644.087,3.287.173,4.844h-4.931V122.813a28.113,28.113,0,0,0-56.226,0v40.569h-5.536a33.853,33.853,0,0,1,.606-5.536l-6.488-.087c-.086,1.817-.086,3.72-.173,5.623h-.346a3.021,3.021,0,0,0-2.076.865,2.977,2.977,0,0,0,0,4.152,3.021,3.021,0,0,0,2.076.865h.346c0,4.412.087,9.169.26,14.186.865,31.659,13.581,44.029,32.438,46.538v22.836H778.063a5.611,5.611,0,0,0-5.623,5.623h0v6.661h67.9v-6.661a5.611,5.611,0,0,0-5.623-5.623H812.663V230.247c29.41-2.768,33.735-31.227,33.3-61.07h.173a3.021,3.021,0,0,0,2.076-.865,2.977,2.977,0,0,0,0-4.152,3.734,3.734,0,0,0-2.249-.778Zm-37.974,60.9c-18.857,1.211-35.206-11.937-35.206-41.348,0-5.19,0-9.775.086-13.754h5.8v21.539a28.113,28.113,0,1,0,56.226,0V169.178H840C840.6,196.425,838.44,222.289,807.992,224.279Z" transform="translate(-89.988 -12.783)" fill="url(#linear-gradient-5)"/>
      <path id="Caminho_32009" data-name="Caminho 32009" d="M841.363,167.268h-.346c0-1.644-.086-3.2-.173-4.844l-5.882-.087.173,4.844H830.2V126.613a28.113,28.113,0,0,0-56.226,0v40.656h-5.536a33.84,33.84,0,0,1,.606-5.536l-6.488-.087c-.086,1.817-.086,3.633-.173,5.623h-.346a2.953,2.953,0,0,0-2.941,2.941,2.9,2.9,0,0,0,2.854,2.941h.346c0,4.412.087,9.169.26,14.186C763.425,219,776.141,231.366,795,233.874v22.836H773.373a5.611,5.611,0,0,0-5.623,5.623h0v6.661h67.817V262.42a5.668,5.668,0,0,0-5.536-5.709H807.973V234.134c29.41-2.682,33.735-31.227,33.3-61.07h.173a3.021,3.021,0,0,0,2.076-.865,2.977,2.977,0,0,0,0-4.152,3.686,3.686,0,0,0-2.162-.778Zm-38.061,60.9c-18.857,1.211-35.206-11.937-35.206-41.348,0-5.19,0-9.775.086-13.754h5.8V194.6a28.113,28.113,0,0,0,56.226,0V173.064h5.1c.692,27.161-1.557,53.025-32.005,55.1Z" transform="translate(-89.364 -13.296)" fill="none" stroke="#1b1b1a" stroke-miterlimit="10" stroke-width="1"/>
      <path id="Caminho_32010" data-name="Caminho 32010" d="M674.207,1579.4a6.964,6.964,0,1,0,6.92,7.007v-.087A6.94,6.94,0,0,0,674.207,1579.4Z" transform="translate(-81.113 -248.171)" fill="none"/>
      <path id="Caminho_32011" data-name="Caminho 32011" d="M646.307,1579.3a6.963,6.963,0,1,0,6.92,7.007v-.086a6.831,6.831,0,0,0-6.92-6.92Z" transform="translate(-77.721 -248.158)" fill="none"/>
      <path id="Caminho_32012" data-name="Caminho 32012" d="M617.307,1579.3a6.963,6.963,0,1,0,6.92,7.007v-.086A6.941,6.941,0,0,0,617.307,1579.3Z" transform="translate(-74.195 -248.158)" fill="none"/>
      <path id="Caminho_32013" data-name="Caminho 32013" d="M642.533,1664.084c-10.553,6.228-25.172,10.207-40.483,10.812a66.076,66.076,0,0,1-30.189-5.709l-.173-.087-26.988,9.948,10.294-22.75-.173-.173a32.971,32.971,0,0,1-7.353-18.944c-.779-18.425,14.878-34.946,38.061-40.483a34.117,34.117,0,0,0-2.855,15.051c.519,12.716,7.872,26.037,20.068,36.59C614.766,1658.721,629.212,1664.43,642.533,1664.084Z" transform="translate(-65.414 -250.506)" fill="url(#linear-gradient-6)"/>
      <path id="Caminho_32014" data-name="Caminho 32014" d="M718.528,1631.749l.173-.173c5.363-6.488,8.218-13.927,8.218-21.452,0-23.961-28.286-43.423-63.059-43.423s-63.059,19.463-63.059,43.423,28.286,43.424,63.059,43.424a83.991,83.991,0,0,0,35.12-7.353l.173-.086.173.086,30.189,9.775Zm-78.8-11.851a8.391,8.391,0,1,1,8.391-8.391A8.381,8.381,0,0,1,639.726,1619.9Zm25.172,0a8.391,8.391,0,1,1,8.3-8.391A8.38,8.38,0,0,1,664.9,1619.9Zm24.047.087a8.391,8.391,0,1,1,8.391-8.391A8.381,8.381,0,0,1,688.945,1619.985Z" transform="translate(-71.773 -246.457)" fill="url(#linear-gradient-7)"/>
      <g id="Grupo_3650" data-name="Grupo 3650" transform="translate(478.018 1305.625)">
        <g id="Grupo_3642" data-name="Grupo 3642" transform="translate(52.074)">
          <path id="Caminho_32015" data-name="Caminho 32015" d="M733.436,1641.318l-31.919-10.294a84.505,84.505,0,0,1-35.293,7.353c-35.206,0-63.924-19.9-63.924-44.289s28.718-44.289,63.924-44.289,63.924,19.9,63.924,44.289c0,7.612-2.855,15.138-8.218,21.8Zm-31.919-11.245.173.086,30.189,9.775L720.893,1615.8l.173-.173c5.363-6.488,8.218-13.927,8.218-21.452,0-23.961-28.286-43.424-63.059-43.424s-63.059,19.463-63.059,43.424,28.286,43.424,63.059,43.424a83.992,83.992,0,0,0,35.12-7.353Z" transform="translate(-602.3 -1549.8)" fill="#1d1d1b"/>
        </g>
        <g id="Grupo_3643" data-name="Grupo 3643" transform="translate(0 30.189)">
          <path id="Caminho_32016" data-name="Caminho 32016" d="M542.1,1669.817l10.9-24.134a33.6,33.6,0,0,1-7.353-19.29c-.779-19.03,15.484-36.158,39.617-41.521l.865-.173-.346.778a31.716,31.716,0,0,0-3.114,15.484c.519,12.456,7.7,25.6,19.722,35.984s26.556,16.089,39.877,15.484a3.546,3.546,0,0,0,.952-.087l1.73-.173-1.471.952c-10.813,6.833-26.21,11.159-42.3,11.851a66.088,66.088,0,0,1-30.448-5.8Zm42.559-83.906c-23.269,5.536-38.839,22.058-38.061,40.483a32.39,32.39,0,0,0,7.353,18.944l.173.173-10.294,22.75,26.988-9.948.173.086a65,65,0,0,0,30.189,5.8c15.224-.606,29.843-4.585,40.4-10.813-13.321.346-27.767-5.363-39.7-15.743-12.2-10.553-19.463-23.874-20.068-36.59A32,32,0,0,1,584.659,1585.911Z" transform="translate(-542.1 -1584.7)" fill="#1d1d1b"/>
        </g>
        <g id="Grupo_3645" data-name="Grupo 3645" transform="translate(83.56 37.282)">
          <g id="Grupo_3644" data-name="Grupo 3644">
            <path id="Caminho_32017" data-name="Caminho 32017" d="M647,1609.681a8.391,8.391,0,1,1,8.3-8.391A8.381,8.381,0,0,1,647,1609.681Zm0-15.4a7.007,7.007,0,1,0,6.92,7.007A6.959,6.959,0,0,0,647,1594.284Z" transform="translate(-638.7 -1592.9)" fill="#1d1d1b"/>
          </g>
        </g>
        <g id="Grupo_3647" data-name="Grupo 3647" transform="translate(108.732 37.196)">
          <g id="Grupo_3646" data-name="Grupo 3646">
            <path id="Caminho_32018" data-name="Caminho 32018" d="M676.1,1609.581a8.391,8.391,0,1,1,8.3-8.391A8.381,8.381,0,0,1,676.1,1609.581Zm0-15.311a7.007,7.007,0,1,0,6.92,7.007A6.959,6.959,0,0,0,676.1,1594.271Z" transform="translate(-667.8 -1592.8)" fill="#1d1d1b"/>
          </g>
        </g>
        <g id="Grupo_3649" data-name="Grupo 3649" transform="translate(132.779 37.369)">
          <g id="Grupo_3648" data-name="Grupo 3648">
            <path id="Caminho_32019" data-name="Caminho 32019" d="M703.9,1609.781a8.391,8.391,0,1,1,8.3-8.39A8.38,8.38,0,0,1,703.9,1609.781Zm0-15.4a7.007,7.007,0,1,0,6.92,7.007A6.959,6.959,0,0,0,703.9,1594.384Z" transform="translate(-695.6 -1593)" fill="#1d1d1b"/>
          </g>
        </g>
      </g>
    </g>
  </g>
</svg>
