<svg xmlns="http://www.w3.org/2000/svg" xmlns:xlink="http://www.w3.org/1999/xlink" width="1920" height="1080" viewBox="0 0 1920 1080">
  <defs>
    <linearGradient id="linear-gradient" y1="0.5" x2="1.005" y2="0.5" gradientUnits="objectBoundingBox">
      <stop offset="0" stop-color="#ffe340"/>
      <stop offset="0.21" stop-color="#ee721e"/>
      <stop offset="0.46" stop-color="#dc2655"/>
      <stop offset="0.78" stop-color="#5c5ea5"/>
      <stop offset="1" stop-color="#38b8ee"/>
    </linearGradient>
    <linearGradient id="linear-gradient-2" y1="0.5" x2="1" y2="0.5" xlink:href="#linear-gradient"/>
    <linearGradient id="linear-gradient-3" y1="0.5" x2="1" y2="0.5" xlink:href="#linear-gradient"/>
    <linearGradient id="linear-gradient-4" x1="-0.005" y1="0.5" x2="1.001" y2="0.5" xlink:href="#linear-gradient"/>
    <linearGradient id="linear-gradient-5" x1="-0.001" y1="0.5" x2="0.999" y2="0.5" xlink:href="#linear-gradient"/>
    <linearGradient id="linear-gradient-6" y1="-129.266" x2="1" y2="-129.266" gradientUnits="objectBoundingBox">
      <stop offset="0" stop-color="#fee340"/>
      <stop offset="0.21" stop-color="#ed731f"/>
      <stop offset="0.46" stop-color="#dc2756"/>
      <stop offset="0.78" stop-color="#5b5ea5"/>
      <stop offset="1" stop-color="#39b7ed"/>
    </linearGradient>
    <linearGradient id="linear-gradient-7" x1="0" y1="-118.702" x2="1" y2="-118.702" xlink:href="#linear-gradient-6"/>
    <clipPath id="clip-PAGE_oficial_4">
      <rect width="1920" height="1080"/>
    </clipPath>
  </defs>
  <g id="PAGE_oficial_4" data-name="PAGE_oficial – 4" clip-path="url(#clip-PAGE_oficial_4)">
    <rect width="1920" height="1080" fill="#fff"/>
    <g id="Camada_2" data-name="Camada 2" transform="translate(275 78.042)">
      <g id="Camada_1" data-name="Camada 1" transform="translate(0 -0.042)">
        <rect id="Retângulo_4690" data-name="Retângulo 4690" width="1363.002" height="919.028" transform="translate(1.982 4.972)" fill="#f6faf4"/>
        <path id="Caminho_24250" data-name="Caminho 24250" d="M3.984,324.248c.717,24.9,1.165,49.713,1.584,74.565l.538,37.292.4,37.3.289,37.282.179,18.626v18.636L7.1,585.235v37.292c-.129,49.7-1.126,99.416-1.733,149.129S4.662,871.082,4.98,920.8l-1.424-1.424c15.4-.08,30.8-.319,46.2-.478l46.2-.548c30.8-.408,61.606-.807,92.4-1l92.394-.488c30.8-.139,61.606-.359,92.4-.319q92.394-.07,184.8.936t184.8,2.918a.4.4,0,1,1,0,.8q-92.414,2.151-184.8,2.918t-184.8.936c-30.8,0-61.606-.179-92.4-.319l-92.394-.488c-30.8-.189-61.606-.588-92.4-1L49.8,922.7c-15.4-.149-30.8-.388-46.2-.468H2.122v-1.424c.339-49.713.319-99.426-.369-149.139S.139,672.23,0,622.527V585.235l.129-37.282L.2,529.316.329,510.67l.289-37.262L1,436.105l.538-37.292c.428-24.852.877-49.7,1.594-74.565a.4.4,0,0,1,.8,0Z" transform="translate(0 -1.895)" fill="url(#linear-gradient)"/>
        <path id="Caminho_24251" data-name="Caminho 24251" d="M844.7,552.577a1.315,1.315,0,0,1-2.2-1c.259-10.409,2.411-19.413,3.506-28.517.139-1.175.8-2.53-.349-3.3-.648-.438-1.883-.189-2.809,0a1.444,1.444,0,0,0-1.175,1.783c1.205,6.624-.777,12.57-2.659,18.317-2.6,7.968-6.146,15.518-8.516,23.517-.588,1.992-.14,4.881-3.456,4.5s-4.064-2.58-3.984-5.588c.468-12.59,3.108-24.9,5.1-37.253,3.735-23.258,9.642-45.968,16.455-68.469.857-2.819,1.693-5.428-2.46-6.484-2.241-.568-3.456-2.659-4.482-4.6-16.116-30.469-41.575-51.655-70.272-69.126-42.671-26-89.037-41.834-138.322-50.61-30.121-5.369-60.022-7.968-90.292-4.691-28.059,3.058-54.683,10.957-77.832,27.959-3.446,2.54-6.424,5.707-9.751,8.407,12.71-15.509,29.453-25.061,47.811-32.163a92.205,92.205,0,0,1,11.335-3.775c7.241-1.763,12.57-5.648,18.417-10.578,9.463-7.968,18.138-17.829,30.718-21.794,2.709-.847,6.474-2.55,6.255-5.668-.239-3.3-4.552-2.231-6.972-3.078-3.377-1.185-7.092.08-10.538,1-26.963,6.913-52.014,17.59-72.493,37.183a26.45,26.45,0,0,1-2.63,1.912c1.912-4.413,9.462-11.226,18.168-17.321,32.432-22.69,69.007-30.878,107.883-31.445,49.673-.757,94.964,14.194,137.455,38.6,33.1,19,60.949,44,82.553,75.7a227.189,227.189,0,0,1,24,46.665c.687,1.8,1,4.492,3.148,4.711,2.47.249,2.61-2.64,3.327-4.323.867-1.992,2.49-3.327,4.084-4.681a1.315,1.315,0,0,1,2.151,1.245c-1.892,9.233-.837,18.835-3.068,28.049-.578,2.4,4.393,7.162,2.142,10.668-1.992,3.068-2.211,6.205-2.132,9.363a1.325,1.325,0,0,0,2.58.359c3.187-10.07,6.733-20.14,10.4-30.778a1.325,1.325,0,0,1,2.5,0c1,2.9.319,5.389,0,7.729-3.456,28.786-11.1,56.656-18.845,84.485-1.165,4.213-1.912,8.586-4.183,12.421A3.159,3.159,0,0,1,844.7,552.577ZM812.1,386.386c-3.148.677-5.349,2.311-3.4,6.156,7.331,14.5,15.17,28.686,27.66,39.593,1.076.936,1.663,3.516,3.516,2.221s.438-3.367-.239-4.93a203.119,203.119,0,0,0-23.806-41.147C814.949,387.1,814.053,386.146,812.1,386.386Z" transform="translate(-1.832 -1.314)" fill="#1b1b1a"/>
        <path id="Caminho_24252" data-name="Caminho 24252" d="M749.84,457.923c1,70.3-57.871,129.4-129.636,130.2-72.443.817-130.483-55.779-130.374-128.969.09-70.381,57.373-129.367,132.475-129.138C689.27,330.219,749.053,384.693,749.84,457.923Zm-248.286.349c.379,65.381,52.791,116.638,118.969,116.419,63.409-.209,116.748-53.448,116.5-116.269-.279-65.4-52.412-117.166-117.813-116.986-64.853.189-118.012,52.99-117.654,116.837Z" transform="translate(-1.98 -1.585)" fill="url(#linear-gradient-2)"/>
        <path id="Caminho_24253" data-name="Caminho 24253" d="M443.077,362.576c.329,1.474.6,2.062,1.265,2.122a1.3,1.3,0,0,1,1,1.922c-18.865,36.685-23.029,76.029-19.513,117.534a1.325,1.325,0,0,1-2.43.837c-12.769-19.573-12.75-40.161-9.393-61.257,2.54-15.937,6.6-31.525,14.214-45.968,3.327-6.305,6.086-13.068,13.018-16.166a1.325,1.325,0,0,1,1.843.976Z" transform="translate(-1.659 -1.681)" fill="#1b1b1a"/>
        <path id="Caminho_24254" data-name="Caminho 24254" d="M801.769,305.841a1.325,1.325,0,0,1,1.424-2.151,10.7,10.7,0,0,1,4.353,2.988A179.711,179.711,0,0,1,829.459,336a1.317,1.317,0,0,1-2.221,1.414,242.511,242.511,0,0,0-25.469-31.575Z" transform="translate(-3.227 -1.38)" fill="#1b1b1a"/>
        <path id="Caminho_24255" data-name="Caminho 24255" d="M569.9,460.326c-.468-24.742,20.011-45.878,44.992-46.416,25.5-.538,46.655,19.114,47.233,43.886a46.366,46.366,0,0,1-45.639,47.631C591.016,505.985,570.4,486.024,569.9,460.326Zm69.415-.538c7.779-.149,14.184-6.564,14.024-14.044a13.945,13.945,0,0,0-14.164-13.815,14.254,14.254,0,0,0-14.015,14.114,13.686,13.686,0,0,0,14.154,13.775Z" transform="translate(-2.297 -1.917)" fill="#1b1b1a"/>
        <path id="Caminho_24256" data-name="Caminho 24256" d="M516.833,635.717h0a4.313,4.313,0,0,1,4.721-.279c35.579,18.547,73.987,23.258,114.646,20.678a1.325,1.325,0,0,1,.777,2.44c-19.831,12.361-40.4,11.953-61.417,8.118-15.937-2.879-31.376-7.261-45.639-15.19-5.169-2.869-10.668-5.349-14.074-10.1A4.084,4.084,0,0,1,516.833,635.717Z" transform="translate(-2.077 -2.931)" fill="#1b1b1a"/>
        <path id="Caminho_24257" data-name="Caminho 24257" d="M381.928,671.9l44.932,6.783a114.6,114.6,0,0,1,15.578,3.486,43.408,43.408,0,0,1,13.546,6.574,27.4,27.4,0,0,1,8.805,10.817q2.988,6.554,1.534,16.425-1.554,10.22-8.267,16.076a31.713,31.713,0,0,1-16.515,7.351l-.05.339a34.864,34.864,0,0,1,10.309,4.98,29.094,29.094,0,0,1,7.391,7.56,27.192,27.192,0,0,1,3.984,9.751,32.033,32.033,0,0,1,.229,11.176q-1.454,9.532-6.494,15.3a32.423,32.423,0,0,1-12.1,8.706,46.709,46.709,0,0,1-15.4,3.426,78.82,78.82,0,0,1-16.345-.727L363.7,792.462Zm11.753,102.076,23.856,3.606a29.469,29.469,0,0,0,6.315.259,16.752,16.752,0,0,0,6.066-1.524,13.685,13.685,0,0,0,4.831-3.795,12.869,12.869,0,0,0,2.62-6.395,10.767,10.767,0,0,0-1.086-7.221,13.727,13.727,0,0,0-4.751-4.811,27.721,27.721,0,0,0-6.7-2.928,52.623,52.623,0,0,0-6.9-1.564l-20.08-2.988Zm7.53-49.892,19.234,2.908a26.9,26.9,0,0,0,6.136.229,16.7,16.7,0,0,0,5.7-1.4,11.584,11.584,0,0,0,4.452-3.506A12.421,12.421,0,0,0,439.1,716.4a11.275,11.275,0,0,0-.677-6.464,11.484,11.484,0,0,0-3.6-4.452,20.242,20.242,0,0,0-5.488-2.839,35.628,35.628,0,0,0-6.215-1.544l-18.039-2.729Z" transform="translate(-1.466 -3.268)" fill="#1b1b1a"/>
        <path id="Caminho_24258" data-name="Caminho 24258" d="M489.617,688.24l45.151,5.04a115.08,115.08,0,0,1,15.7,2.869,43.356,43.356,0,0,1,13.786,6.046,27.6,27.6,0,0,1,9.234,10.469q3.257,6.424,2.161,16.355-1.145,10.259-7.63,16.385a31.774,31.774,0,0,1-16.216,7.969v.339a34.924,34.924,0,0,1,10.488,4.542,29.268,29.268,0,0,1,7.68,7.271,27.242,27.242,0,0,1,4.383,9.582,31.812,31.812,0,0,1,.667,11.166q-1.076,9.592-5.9,15.538a32.441,32.441,0,0,1-11.753,9.174,46.812,46.812,0,0,1-15.26,3.984,78.683,78.683,0,0,1-16.355-.089L476.14,809.35Zm15.7,101.6,23.955,2.669a29.719,29.719,0,0,0,6.315,0,16.533,16.533,0,0,0,5.976-1.763,13.666,13.666,0,0,0,4.681-3.984,13,13,0,0,0,2.371-6.494,10.8,10.8,0,0,0-1.365-7.171,13.775,13.775,0,0,0-4.98-4.622,27.64,27.64,0,0,0-6.8-2.659,51.626,51.626,0,0,0-6.972-1.295l-20.18-2.261Zm5.548-50.191,19.373,2.142a27.57,27.57,0,0,0,6.146,0,16.837,16.837,0,0,0,5.638-1.634,11.665,11.665,0,0,0,4.313-3.676,12.432,12.432,0,0,0,2.141-5.976,10.837,10.837,0,0,0-4.741-10.757,20.08,20.08,0,0,0-5.588-2.61,34.858,34.858,0,0,0-6.265-1.315l-18.138-1.992Z" transform="translate(-1.919 -3.333)" fill="#1b1b1a"/>
        <path id="Caminho_24259" data-name="Caminho 24259" d="M597.829,699.72l45.39,1.992a114.936,114.936,0,0,1,15.857,1.833,43.228,43.228,0,0,1,14.164,5.11,27.471,27.471,0,0,1,9.9,9.831q3.7,6.205,3.247,16.176-.458,10.319-6.524,16.853a31.674,31.674,0,0,1-15.648,9.044v.349a34.779,34.779,0,0,1,10.757,3.835,29.217,29.217,0,0,1,8.138,6.743,26.975,26.975,0,0,1,4.98,9.273,31.878,31.878,0,0,1,1.4,11.086q-.428,9.632-4.841,15.937a32.661,32.661,0,0,1-11.126,9.961,46.927,46.927,0,0,1-14.941,4.98,78.622,78.622,0,0,1-16.325,1l-49.842-2.2ZM620.25,799.993l24.075,1.066a28.88,28.88,0,0,0,6.3-.408A16.346,16.346,0,0,0,656.5,798.5a13.612,13.612,0,0,0,4.413-4.283,12.8,12.8,0,0,0,1.932-6.634,10.807,10.807,0,0,0-1.833-7.062,13.775,13.775,0,0,0-5.239-4.283,27.888,27.888,0,0,0-6.972-2.211,54.113,54.113,0,0,0-6.972-.827l-20.29-.9Zm2.241-50.4,19.433.867a27.541,27.541,0,0,0,6.136-.418,16.831,16.831,0,0,0,5.518-1.992,11.544,11.544,0,0,0,4.044-3.984,12.343,12.343,0,0,0,1.743-6.126,11.286,11.286,0,0,0-1.354-6.355,11.426,11.426,0,0,0-4.044-4.054,20.47,20.47,0,0,0-5.757-2.241,34.95,34.95,0,0,0-6.335-.877l-18.228-.817Z" transform="translate(-2.388 -3.378)" fill="#1b1b1a"/>
        <path id="Caminho_24260" data-name="Caminho 24260" d="M758.319,797.174l44.055-45.928a88.664,88.664,0,0,0,6.654-7.968,14.135,14.135,0,0,0,2.889-9.881,11.7,11.7,0,0,0-5.18-9.373A16.5,16.5,0,0,0,796,721.285q-7.2.538-10.907,5.3a18.048,18.048,0,0,0-3.735,11.325h-25.9a42.164,42.164,0,0,1,2.729-16.694,34.526,34.526,0,0,1,8.237-12.261,38.286,38.286,0,0,1,12.789-7.969A56.774,56.774,0,0,1,795.6,697.44a50.44,50.44,0,0,1,15.628,1.165,36.048,36.048,0,0,1,13.038,5.976,31.325,31.325,0,0,1,9.174,10.8,39.684,39.684,0,0,1,4.233,15.807,42.935,42.935,0,0,1-.418,10.648,36.021,36.021,0,0,1-2.709,8.835,38.94,38.94,0,0,1-4.532,7.5A83.9,83.9,0,0,1,824.138,765l-34.553,34.5,53.906-3.984,1.683,22.67-84.824,6.3Z" transform="translate(-3.045 -3.369)" fill="#1b1b1a"/>
        <path id="Caminho_24261" data-name="Caminho 24261" d="M856.333,755.721a126.191,126.191,0,0,1-1.713-22.063,64.469,64.469,0,0,1,3.566-21.206,41.963,41.963,0,0,1,11.186-16.993q7.7-7.152,21.1-9.423t23.029,1.992A42.094,42.094,0,0,1,929.643,700.4a64.475,64.475,0,0,1,10.339,18.865,123.593,123.593,0,0,1,7.351,43.428,64.494,64.494,0,0,1-3.576,21.216A42,42,0,0,1,932.581,800.9q-7.7,7.152-21.106,9.423t-23.019-1.992a41.832,41.832,0,0,1-16.146-12.371,64.577,64.577,0,0,1-10.339-18.836A126.972,126.972,0,0,1,856.333,755.721Zm25.459-4.3q.807,4.751,2.351,11.305a56.325,56.325,0,0,0,4.443,12.341,27.283,27.283,0,0,0,7.44,9.393q4.522,3.6,11.495,2.42,6.783-1.135,9.961-6.046a26.9,26.9,0,0,0,3.984-11.335,57.094,57.094,0,0,0,.14-13.118q-.7-6.694-1.5-11.445t-2.341-11.305a56.927,56.927,0,0,0-4.442-12.351,26.9,26.9,0,0,0-7.52-9.383q-4.612-3.586-11.4-2.44-6.972,1.185-10.06,6.066a27.429,27.429,0,0,0-3.984,11.315,56.1,56.1,0,0,0-.14,13.128C880.757,744.436,881.265,748.251,881.792,751.418Z" transform="translate(-3.445 -3.321)" fill="#1b1b1a"/>
        <path id="Caminho_24262" data-name="Caminho 24262" d="M371.008,226.445A74.844,74.844,0,0,1,355,239.045a97.233,97.233,0,0,1-18.646,8.437,58.109,58.109,0,0,1-20.409,3.118,46.676,46.676,0,0,1-18.4-4.343,44.943,44.943,0,0,1-14.941-11.514,57.333,57.333,0,0,1-12.919-38.926,45.051,45.051,0,0,1,5.12-18.168,46.674,46.674,0,0,1,12.122-14.443,58.1,58.1,0,0,1,18.238-9.692,75.313,75.313,0,0,1,20.618-3.984,40.838,40.838,0,0,1,18.8,3.646l-8.845,19.782a29.254,29.254,0,0,0-11.186-3.3,34.065,34.065,0,0,0-13.337,1.992,30.878,30.878,0,0,0-10.718,5.976,27.153,27.153,0,0,0-6.783,8.915,27.651,27.651,0,0,0-2.58,11.016,36.785,36.785,0,0,0,7.64,23.049,27.77,27.77,0,0,0,8.636,7.231,26.893,26.893,0,0,0,10.767,3.088,30.878,30.878,0,0,0,12.132-1.643,39.843,39.843,0,0,0,10.638-5.14,44.91,44.91,0,0,0,6.464-5.438l-4.821-14.522L326.555,209.5l-6.026-18.188,34.971-11.6Z" transform="translate(-1.087 -0.667)" fill="#1b1b1a"/>
        <path id="Caminho_24263" data-name="Caminho 24263" d="M367.83,137.11l20.15-4.93,17.869,72.891,37.342-9.134,4.492,18.606-57.472,14.074Z" transform="translate(-1.482 -0.48)" fill="#1b1b1a"/>
        <path id="Caminho_24264" data-name="Caminho 24264" d="M445,166.312a53.339,53.339,0,0,1,.578-20.827,44.941,44.941,0,0,1,8.038-17.082,46.705,46.705,0,0,1,14.363-12.291,61.655,61.655,0,0,1,40.221-6.3,46.605,46.605,0,0,1,17.431,7.311,45.041,45.041,0,0,1,12.9,13.785,57.3,57.3,0,0,1,6.335,40.5,45.013,45.013,0,0,1-8.038,17.082,46.436,46.436,0,0,1-14.363,12.281,61.626,61.626,0,0,1-40.221,6.3,46.6,46.6,0,0,1-17.431-7.3,44.973,44.973,0,0,1-12.839-13.8A53.36,53.36,0,0,1,445,166.312Zm21.3-3.327a34.594,34.594,0,0,0,3.944,11.753,28.038,28.038,0,0,0,7.331,8.556,27.063,27.063,0,0,0,10.11,4.811,33.079,33.079,0,0,0,23.786-3.725,26.972,26.972,0,0,0,8.158-7.67,28.049,28.049,0,0,0,4.373-10.379,36.853,36.853,0,0,0-3.755-23.995,27.729,27.729,0,0,0-7.341-8.616,26.894,26.894,0,0,0-10.13-4.871,33.218,33.218,0,0,0-23.786,3.725,27,27,0,0,0-8.158,7.68,27.89,27.89,0,0,0-4.363,10.439,34.763,34.763,0,0,0-.139,12.291Z" transform="translate(-1.791 -0.387)" fill="#1b1b1a"/>
        <path id="Caminho_24265" data-name="Caminho 24265" d="M607,122.543a14.841,14.841,0,0,0-7.162-4.253,24.522,24.522,0,0,0-8.257-1,21.375,21.375,0,0,0-4.612.847,17.68,17.68,0,0,0-4.4,1.992,9.831,9.831,0,0,0-3.247,3.217,7.571,7.571,0,0,0-1,4.612,7.49,7.49,0,0,0,3.626,6.285,30.009,30.009,0,0,0,8.287,3.307q4.98,1.275,10.638,2.48a43.646,43.646,0,0,1,10.7,3.785,24.9,24.9,0,0,1,8.556,7.291q3.506,4.691,4.074,12.949a30.39,30.39,0,0,1-1.992,13.875,27.75,27.75,0,0,1-7.241,10.219,33.866,33.866,0,0,1-11.156,6.464,50.978,50.978,0,0,1-13.745,2.789,50.351,50.351,0,0,1-17.182-1.634,42.939,42.939,0,0,1-15.21-8.048l13.646-17.192a21.534,21.534,0,0,0,8.466,6.036,23.129,23.129,0,0,0,10.18,1.643,22.808,22.808,0,0,0,5.07-.946,16.725,16.725,0,0,0,4.522-2.1,10.17,10.17,0,0,0,3.118-3.277,7.68,7.68,0,0,0,1-4.472,7.968,7.968,0,0,0-3.705-6.484,30.25,30.25,0,0,0-8.447-3.626q-5.03-1.394-10.857-2.739a47.681,47.681,0,0,1-10.957-3.924,25.619,25.619,0,0,1-8.726-7.122q-3.576-4.552-4.1-12.391a28.319,28.319,0,0,1,2.092-13.477,28.785,28.785,0,0,1,7.321-10.1,34.863,34.863,0,0,1,11.116-6.564,47.143,47.143,0,0,1,13.277-2.829,52.981,52.981,0,0,1,15.548,1.215,35.719,35.719,0,0,1,13.945,6.664Z" transform="translate(-2.243 -0.345)" fill="#1b1b1a"/>
        <path id="Caminho_24266" data-name="Caminho 24266" d="M687.137,121.309a14.652,14.652,0,0,0-6.823-4.751,24.743,24.743,0,0,0-8.178-1.574,21.752,21.752,0,0,0-4.651.518,17.732,17.732,0,0,0-4.532,1.644,9.811,9.811,0,0,0-3.476,2.988,8.307,8.307,0,0,0,1.813,11.046,29.994,29.994,0,0,0,8.028,3.895q4.861,1.634,10.429,3.247a42.69,42.69,0,0,1,10.429,4.572,24.681,24.681,0,0,1,7.968,7.879q3.168,4.98,3.138,13.188a30.458,30.458,0,0,1-2.988,13.7,27.888,27.888,0,0,1-7.968,9.682A33.865,33.865,0,0,1,678.82,193a52.97,52.97,0,0,1-30.927-1.076,42.671,42.671,0,0,1-14.592-9.114l14.841-16.166a21.594,21.594,0,0,0,8.018,6.624,22.91,22.91,0,0,0,9.98,2.42,23.416,23.416,0,0,0,5.13-.578,16.674,16.674,0,0,0,4.661-1.783,9.96,9.96,0,0,0,3.337-3.038,7.611,7.611,0,0,0,1.285-4.393,7.969,7.969,0,0,0-3.227-6.733,30.211,30.211,0,0,0-8.158-4.223q-4.911-1.743-10.628-3.506a47.493,47.493,0,0,1-10.6-4.751,25.539,25.539,0,0,1-8.148-7.749q-3.237-4.811-3.207-12.66a28.248,28.248,0,0,1,3.058-13.287,28.885,28.885,0,0,1,8.018-9.552A34.782,34.782,0,0,1,659.2,97.7a46.814,46.814,0,0,1,13.447-1.873,52.561,52.561,0,0,1,15.419,2.331,35.779,35.779,0,0,1,13.407,7.64Z" transform="translate(-2.551 -0.336)" fill="#1b1b1a"/>
        <path id="Caminho_24267" data-name="Caminho 24267" d="M754.167,101.65l17.092,1.494,32.631,97.414-23.328-1.992-6.345-20.6-36.446-3.177-9.552,19.2L705.43,192Zm5.618,28L745.84,157.818l22.909,1.992Zm5.578-53.209L792.4,78.8,767.753,95.923l-17.491-1.534Z" transform="translate(-2.844 -0.26)" fill="#1b1b1a"/>
        <path id="Caminho_24268" data-name="Caminho 24268" d="M828,109.57l35.858,6.315a64.593,64.593,0,0,1,13.188,3.745,32.482,32.482,0,0,1,10.329,6.544,23.259,23.259,0,0,1,6.076,9.961,29.567,29.567,0,0,1,.428,14.064q-1.713,9.831-8.048,15.807t-16.465,6.1l16.694,43.328-24.5-4.313-12.869-40.5-10.08-1.773-6.524,37.093-20.439-3.606Zm13.686,41.994,12.052,2.122c1.833.329,3.785.6,5.867.827a18.139,18.139,0,0,0,5.777-.2,9.711,9.711,0,0,0,4.662-2.351,9.472,9.472,0,0,0,2.719-5.608,9.96,9.96,0,0,0-.448-5.887,9.671,9.671,0,0,0-3.108-3.855,16.433,16.433,0,0,0-4.841-2.41,42.467,42.467,0,0,0-5.568-1.385l-13.367-2.351Z" transform="translate(-3.271 -0.39)" fill="#1b1b1a"/>
        <path id="Caminho_24269" data-name="Caminho 24269" d="M916.834,126.6l20.19,4.8L915.26,223.038l-20.19-4.8Z" transform="translate(-3.605 -0.458)" fill="#1b1b1a"/>
        <path id="Caminho_24270" data-name="Caminho 24270" d="M941.73,180.062a53.109,53.109,0,0,1,9.741-18.417,44.823,44.823,0,0,1,14.762-11.753,46.6,46.6,0,0,1,18.327-4.652,61.6,61.6,0,0,1,38.846,12.182A46.578,46.578,0,0,1,1035.8,171.7a44.9,44.9,0,0,1,5.419,18.078,57.332,57.332,0,0,1-12.251,39.115,44.922,44.922,0,0,1-14.772,11.753,46.5,46.5,0,0,1-18.317,4.642,61.665,61.665,0,0,1-38.846-12.172,46.694,46.694,0,0,1-12.391-14.273,44.953,44.953,0,0,1-5.419-18.058,53.2,53.2,0,0,1,2.51-20.718Zm20.559,6.444a34.674,34.674,0,0,0-1.673,12.281,27.89,27.89,0,0,0,2.789,10.907,27.022,27.022,0,0,0,6.972,8.805,33.178,33.178,0,0,0,22.939,7.182,27.092,27.092,0,0,0,10.708-3.267,28.118,28.118,0,0,0,8.516-7.371,36.854,36.854,0,0,0,7.261-23.178,27.889,27.889,0,0,0-2.769-10.957,26.98,26.98,0,0,0-6.972-8.8,33.178,33.178,0,0,0-22.939-7.191,27.044,27.044,0,0,0-10.708,3.267,27.889,27.889,0,0,0-8.536,7.431,35.012,35.012,0,0,0-5.588,10.887Z" transform="translate(-3.785 -0.647)" fill="#1b1b1a"/>
        <path id="Caminho_24271" data-name="Caminho 24271" d="M253.269,459.02a4.462,4.462,0,0,1-2.261,2.769h0l-.388.149a5.687,5.687,0,0,1-1.713,2.789,3.894,3.894,0,0,1-1.1.638l-.837.309c-.06,0-.727.139-1.155.179l-4.622.428-55.839,4.393-21.624,12.371,14.941,25.828a11.136,11.136,0,0,1-4.074,15.22l-5.618,3.217a11.136,11.136,0,0,1-15.21-4.054l-15.19-26.316c-10.578,3.337-23.905-1.833-30.429-11.813l-7.082-10.867c-7.859-12.042-5.239-27.969,5.976-36.266l38.338-27.959.219-.359h0l28.886-49.105,1.873-3.1,1.444-1.992.12-.139.289-.349.488-.448a6.03,6.03,0,0,1,.727-.478,2.989,2.989,0,0,1,1.235-.369h.08a4.334,4.334,0,0,1,1.464.209,4.662,4.662,0,0,1,.707-.528,4.751,4.751,0,0,1,3.775-.169c11.305,3.207,36.854,32.491,49.683,56.964C249.683,435.363,255.5,452.286,253.269,459.02Z" transform="translate(-0.381 -1.66)" fill="url(#linear-gradient-3)"/>
        <path id="Caminho_24272" data-name="Caminho 24272" d="M244.077,402.979c-13.506-24.9-40.36-54.683-52.243-57.95a5.169,5.169,0,0,0-3.984.179,4.125,4.125,0,0,0-.737.538,4.352,4.352,0,0,0-1.554-.209h-.08a3.186,3.186,0,0,0-1.295.379,5.307,5.307,0,0,0-.767.488c-.08.07-.408.349-.508.458l-.309.349-.12.139-1.514,2.052-1.992,3.148L148.566,402.5h0l-.229.378-40.29,28.477a26.665,26.665,0,0,0-6.275,36.854l7.45,11.056c6.843,10.15,20.917,15.409,31.993,12.012l15.937,26.764a11.574,11.574,0,0,0,7.112,5.289,12.246,12.246,0,0,0,3.048.388,12.013,12.013,0,0,0,5.837-1.524l5.9-3.3a11.315,11.315,0,0,0,5.448-6.883,10.956,10.956,0,0,0-1.165-8.6L167.72,477.175l22.69-12.59,58.707-4.462,4.861-.438a6.236,6.236,0,0,0,1.205-.179l.887-.319a3.984,3.984,0,0,0,1.155-.647,5.857,5.857,0,0,0,1.793-2.829l.418-.159h0a4.582,4.582,0,0,0,2.381-2.809C264.138,445.879,258.012,428.667,244.077,402.979ZM183.009,503.64a10.6,10.6,0,0,1,1.126,8.3,10.887,10.887,0,0,1-5.269,6.644l-5.9,3.3a11.535,11.535,0,0,1-8.576,1.1,11.176,11.176,0,0,1-6.863-5.1l-16.136-27.043h-.149c-10.957,3.436-24.9-1.743-31.684-11.813l-7.45-11.046a26.316,26.316,0,0,1,6.176-36.356l40.161-28.328c-1.932,11.823,1.992,26.276,10.309,37.94,9.453,13.228,20.17,21.246,31.017,23.218l-22.64,12.53Zm73.917-45.39a3.555,3.555,0,0,1-1,.568l-.857.309s-.707.13-1.136.169l-4.851.428L190.32,464.2c-10.907-1.8-21.714-9.8-31.246-23.138-8.447-11.823-12.321-26.515-10.12-38.378l30.4-49.932,1.992-3.138,1.514-1.992.09-.11.309-.349c.08-.08.379-.349.468-.418a5.772,5.772,0,0,1,.707-.448,2.769,2.769,0,0,1,1.136-.329h.08a3.736,3.736,0,0,1,1.185.129c-5.976,5.976,2.58,29.344,20.917,57.313,20.21,30.878,38.049,50.48,47.731,52.482a7.965,7.965,0,0,0,1.634.179,5.676,5.676,0,0,0,1.444-.179,5.07,5.07,0,0,1-1.634,2.361Zm-48.9-55.092c-4.522-6.913-8.466-13.586-11.734-19.8,2.41-1.225,5.488-1.335,8.895-.309,7.779,2.341,16.026,9.961,21.007,19.393,7.45,14.134,7.919,23.089,1.474,28.148-6.106-7.65-12.74-16.863-19.642-27.431ZM261.4,452.573a4.333,4.333,0,0,1-1.653,2.281h0a4.3,4.3,0,0,1-.827.418l-.139.05h-.1a6.116,6.116,0,0,1-3.167.08c-6.255-1.295-15.937-10.07-27.591-24.573,6.624-5.189,6.186-14.3-1.365-28.637-4.98-9.522-13.367-17.222-21.246-19.592-3.516-1.056-6.693-.936-9.194.339-9.662-18.457-13.357-32.76-8.875-36.854h0l.09-.08a3.246,3.246,0,0,1,.747-.558,4.741,4.741,0,0,1,3.646-.139c11.8,3.237,38.527,32.93,51.994,57.771C257.365,428.4,263.68,445.959,261.4,452.573Z" transform="translate(-0.383 -1.622)" fill="#1b1b1a" stroke="#1b1b1a" stroke-miterlimit="10" stroke-width="0.75"/>
        <path id="Caminho_24273" data-name="Caminho 24273" d="M1368.887,536.086c-.707-22.162-1.145-44.324-1.564-66.477l-.538-33.238-.409-33.238c-.428-44.324-.727-88.649-.637-132.963,0-22.152.279-44.314.588-66.477l1-66.477c.737-44.314.837-88.649.568-132.953l1.4,1.355-21.325.159-21.326.259-42.651.548-42.651.608-42.651.458-85.292.508-42.651.229-21.326.11H1028.1c-56.865.09-113.739-.329-170.6-.9S743.773,6.106,686.879,4.661a.408.408,0,0,1-.388-.408.4.4,0,0,1,.388-.388q85.312-2.181,170.6-2.988c56.865-.578,113.739-1,170.6-.906h21.326l21.326.1L1113.389.3l85.292.518,42.651.458,42.651.6,42.651.548,21.326.259,21.326.159h1.365V4.263c-.269,44.314-.169,88.649.568,132.953l1,66.477c.309,22.162.548,44.324.588,66.477.09,44.324-.209,88.649-.637,132.963l-.409,33.238-.538,33.238c-.418,22.152-.856,44.314-1.564,66.477a.4.4,0,1,1-.8,0Z" transform="translate(-2.817 0.042)" fill="url(#linear-gradient-4)"/>
        <path id="Caminho_24274" data-name="Caminho 24274" d="M1214.554,319.686h-.418c0-1.853-.119-3.7-.209-5.548l-6.833-.07c.07,1.863.14,3.755.209,5.618h-5.628V272.871a32.469,32.469,0,1,0-64.938,0l.005,46.815h-6.424c.139-2.371.349-4.522.637-6.435l-7.49-.09c-.09,2.072-.14,4.253-.179,6.524h-.419a3.367,3.367,0,0,0,0,6.733h.389c0,5.07.12,10.548.289,16.445,1,36.565,15.658,50.9,37.5,53.787v26.405h-24.9a6.524,6.524,0,0,0-6.524,6.534v7.67H1208v-7.67a6.524,6.524,0,0,0-6.514-6.534h-25.529V397.049c34.016-3.158,38.986-36.1,38.448-70.59h.239a3.387,3.387,0,1,0-.09-6.773Zm-43.916,70.351c-21.754,1.464-40.679-13.8-40.679-47.711,0-5.976,0-11.285.07-15.867h6.673v24.9a32.469,32.469,0,1,0,64.938,0l-.005-24.9h5.887c.827,31.425-1.733,61.317-36.884,63.618Z" transform="translate(-4.526 -1.124)" fill="url(#linear-gradient-5)"/>
        <path id="Caminho_24275" data-name="Caminho 24275" d="M1209.853,323.616h-.418c0-1.853-.119-3.7-.209-5.548l-6.833-.07.209,5.618h-5.687V276.741a32.461,32.461,0,1,0-64.923,0v46.874h-6.435c.139-2.371.349-4.522.647-6.434l-7.5-.09c-.09,2.082-.14,4.253-.169,6.524h-.418a3.367,3.367,0,1,0,0,6.733h.378q0,7.6.3,16.445c1,36.565,15.658,50.9,37.5,53.787v26.405h-24.9a6.524,6.524,0,0,0-6.514,6.534v7.7h78.38v-7.67a6.524,6.524,0,0,0-6.524-6.534h-25.519V400.939c34.015-3.158,38.986-36.1,38.438-70.59h.249a3.466,3.466,0,0,0,2.391-1,3.377,3.377,0,0,0-2.391-5.757Zm-43.916,70.351c-21.774,1.424-40.689-13.835-40.689-47.751,0-5.976,0-11.285.07-15.867h6.674v24.9a32.461,32.461,0,1,0,64.923,0v-24.9h5.9C1203.648,361.775,1201.078,391.666,1165.937,393.967Z" transform="translate(-4.507 -1.142)" fill="none" stroke="#1b1b1a" stroke-miterlimit="10" stroke-width="1"/>
        <path id="Caminho_24276" data-name="Caminho 24276" d="M1168.2,771.323c-12.152,7.172-28.985,11.753-46.615,12.451a76.089,76.089,0,0,1-34.762-6.574l-.2-.1-31.077,11.455,11.853-26.2-.2-.2a37.969,37.969,0,0,1-8.467-21.814c-.9-21.216,17.132-40.241,43.827-46.615a39.286,39.286,0,0,0-3.287,17.331c.6,14.642,9.064,29.981,23.108,42.133C1136.23,765.147,1152.865,771.691,1168.2,771.323Z" transform="translate(-4.256 -3.244)" fill="url(#linear-gradient-6)"/>
        <path id="Caminho_24277" data-name="Caminho 24277" d="M1247.213,738.633l.2-.2c6.175-7.47,9.462-16.036,9.462-24.7,0-27.591-32.571-50-72.612-50s-72.612,22.411-72.612,50,32.571,50,72.612,50a96.717,96.717,0,0,0,40.44-8.466l.2-.1.2.1,34.762,11.255Zm-90.74-13.646a9.652,9.652,0,1,1,6.835-2.827A9.662,9.662,0,0,1,1156.473,724.987Zm28.985,0a9.662,9.662,0,1,1,9.562-9.662A9.662,9.662,0,0,1,1185.458,724.987Zm27.69.1a9.652,9.652,0,1,1,6.835-2.827,9.662,9.662,0,0,1-6.835,2.827Z" transform="translate(-4.495 -3.107)" fill="url(#linear-gradient-7)"/>
        <path id="Caminho_24278" data-name="Caminho 24278" d="M1264.152,752.213,1227.4,740.36a97.307,97.307,0,0,1-40.639,8.466c-40.539,0-73.608-22.909-73.608-51s33.069-51,73.608-51,73.609,22.909,73.609,51c0,8.765-3.287,17.431-9.463,25.1ZM1227.4,739.264l.2.1,34.812,11.225-12.65-27.79.2-.2c6.175-7.47,9.462-16.036,9.462-24.7,0-27.591-32.571-50-72.612-50s-72.612,22.411-72.612,50,32.571,50,72.612,50a96.716,96.716,0,0,0,40.44-8.466Z" transform="translate(-4.501 -3.029)" fill="#1c1c1b"/>
        <path id="Caminho_24279" data-name="Caminho 24279" d="M1053,779.742l12.55-27.79a38.7,38.7,0,0,1-8.466-22.212c-.9-21.913,17.829-41.635,45.619-47.811l1-.2-.4.9a36.525,36.525,0,0,0-3.586,17.829c.6,14.343,8.865,29.483,22.71,41.436s30.579,18.527,45.918,17.829a4.079,4.079,0,0,0,1.1-.1l1.992-.2-1.693,1.1c-12.451,7.869-30.181,12.849-48.707,13.646a76.1,76.1,0,0,1-35.061-6.673Zm49.006-96.617c-26.794,6.375-44.723,25.4-43.826,46.615a37.292,37.292,0,0,0,8.466,21.814l.2.2-11.853,26.2,31.077-11.455.2.1a74.852,74.852,0,0,0,34.762,6.674c17.53-.7,34.364-5.279,46.516-12.451-15.339.4-31.973-6.176-45.719-18.128-14.044-12.152-22.411-27.491-23.109-42.133a36.854,36.854,0,0,1,3.238-17.431Z" transform="translate(-4.264 -3.19)" fill="#1c1c1b"/>
        <path id="Caminho_24280" data-name="Caminho 24280" d="M1159.112,709.254a9.662,9.662,0,1,1,9.562-9.662A9.662,9.662,0,0,1,1159.112,709.254Zm0-17.73a8.068,8.068,0,1,0,7.968,8.068,7.969,7.969,0,0,0-7.968-8.068Z" transform="translate(-4.644 -3.181)" fill="#1c1c1b"/>
        <path id="Caminho_24281" data-name="Caminho 24281" d="M1188.211,709.154a9.662,9.662,0,1,1,9.562-9.662,9.661,9.661,0,0,1-9.562,9.662Zm0-17.63a8.068,8.068,0,1,0,7.969,8.068,7.968,7.968,0,0,0-7.969-8.068Z" transform="translate(-4.759 -3.18)" fill="#1c1c1b"/>
        <path id="Caminho_24282" data-name="Caminho 24282" d="M1216.011,709.354a9.662,9.662,0,1,1,9.562-9.662,9.662,9.662,0,0,1-9.562,9.662Zm0-17.73a8.068,8.068,0,1,0,7.969,8.068,7.968,7.968,0,0,0-7.969-8.068Z" transform="translate(-4.868 -3.181)" fill="#1c1c1b"/>
      </g>
    </g>
  </g>
</svg>
