<svg xmlns="http://www.w3.org/2000/svg" xmlns:xlink="http://www.w3.org/1999/xlink" width="1080" height="1289" viewBox="0 0 1080 1289">
  <defs>
    <linearGradient id="linear-gradient" y1="0.5" x2="0.999" y2="0.5" gradientUnits="objectBoundingBox">
      <stop offset="0" stop-color="#f1841d"/>
      <stop offset="0.15" stop-color="#f1841d"/>
      <stop offset="1" stop-color="#f1841d"/>
    </linearGradient>
    <linearGradient id="linear-gradient-2" x1="0" y1="0.5" x2="1" y2="0.5" xlink:href="#linear-gradient"/>
    <clipPath id="clip-Arte_gráfica_4">
      <rect width="1080" height="1289"/>
    </clipPath>
  </defs>
  <g id="Arte_gráfica_4" data-name="Arte gráfica 4" clip-path="url(#clip-Arte_gráfica_4)">
    <rect width="1080" height="1289" fill="#fff"/>
    <g id="Camada_2" data-name="Camada 2" transform="translate(421.77 -68)">
      <g id="Camada_1" data-name="Camada 1" transform="translate(-421.77 68)">
        <rect id="Retângulo_5064" data-name="Retângulo 5064" width="1073.869" height="1283.588" transform="translate(4.948 0.941)" fill="#fde1c7" opacity="0.39"/>
        <path id="Caminho_23253" data-name="Caminho 23253" d="M334.053,89.581c3.917,20.042,10.919,64.086-26.6,179.466C272.488,376.582,239.4,409.956,204.42,455.764c-52.225,68.371-71.423,87.093-75.892,93.607-4.74,6.85-21.762,28.418-30.485,48.3-5.292,12.055-8.095,23.7-10.2,36.436-6.32,38.254-3.907,71.661-2.911,84.409,4.956,63.523,8.636,75.427,14.631,139.956,3.366,36.61,7.272,88.045,7.283,88.207h0c0,.065-2.705,18.4-4.329,23.018C95.771,988.188,1.828,993.22,1.32,964.348-2.479,750.242,3.246,394.784,2.6,167.269c0-10.086,54.216,7.478,88.088-5.259C194.94,122.8,195.525,93.358,203.23,84.992c.509-.552,58.437-5.411,58.956-5.952L297.486,44S329.67,67.147,334.053,89.581Z" transform="translate(-0.008 3.615)" fill="#d62f21"/>
        <path id="Caminho_23254" data-name="Caminho 23254" d="M.122,558.517c0-5.616,5.573-5.66,11.081-6.493,12.661-1.872,16.3-3.777,36.1-8.787,6.98-1.775,14.945-2.651,30.863-4.4,29.1-3.246,31.307-3.6,31.794-1.428.162.747-2.305,3.3-7.067,12.034-6.385,11.752-5.129,11.1-7.348,16.6A60.687,60.687,0,0,0,91.738,578.2c-1.288,5.248-.638,10.822-3.452,13.744-1.926,1.991-5.227,1.688-6.493,1.851-12.25,1.591-29.056,1.45-29.056,1.45-21.384-1.309-23.678-1.082-32.984-1.883-2.695-.249-5.151-.433-11.276-1.45-1.082-.184-8.224-.454-8.214-1.407C.393,576.546-.008,584.273.122,558.517Z" transform="translate(-0.001 44.073)" fill="#8c1d14"/>
        <path id="Caminho_23255" data-name="Caminho 23255" d="M689.164,88.208c-3.917,20.052-10.93,64.1,26.589,179.466C750.717,375.252,783.81,408.594,818.8,454.391c52.214,68.382,71.423,87.1,75.892,93.618,4.729,6.85,21.751,28.407,30.474,48.3,5.292,12.044,8.105,23.7,10.2,36.426,6.32,38.255,3.907,71.672,2.911,84.409-4.945,63.5-8.657,75.416-14.566,139.989-3.366,36.61-7.272,88.056-7.283,88.218h0c0,.065,2.705,18.4,4.329,23.007,6.634,18.494,100.576,23.526,101.085-5.335,3.809-214.106-1.872-569.576-1.277-797.09,0-10.075-54.206,7.478-88.088-5.259-104.256-39.2-104.84-68.653-112.545-77.018-.5-.541-58.437-5.411-58.956-5.941L725.719,42.66S693.579,65.753,689.164,88.208Z" transform="translate(56.833 3.505)" fill="#d62f21"/>
        <path id="Caminho_23256" data-name="Caminho 23256" d="M1020.613.57V169.388a463.009,463.009,0,0,1-86.822-.584C828.918,158.274,706.893,81.732,675.9.57Z" transform="translate(56.007 0.047)" fill="#8c1d14"/>
        <path id="Caminho_23257" data-name="Caminho 23257" d="M1019.259.57v151.5a464.137,464.137,0,0,1-82.32-.53C837.5,142.128,721.794,73.432,692.37.592Z" transform="translate(57.36 0.047)" fill="#d62f21"/>
        <path id="Caminho_23258" data-name="Caminho 23258" d="M2.17.41V169.228A462.226,462.226,0,0,0,89,168.643C193.865,158.125,315.9,81.572,346.893.41Z" transform="translate(0.17 0.034)" fill="#8c1d14"/>
        <path id="Caminho_23259" data-name="Caminho 23259" d="M2.17.41v151.5a464.25,464.25,0,0,0,82.331-.53C183.941,141.968,299.646,73.272,329.07.432Z" transform="translate(0.17 0.034)" fill="#d62f21"/>
        <path id="Caminho_23260" data-name="Caminho 23260" d="M908.686,0c-51.63,93.6-212.064,184.812-384.9,184.812-174.7,0-331.9-90.9-380.079-184.812Z" transform="translate(11.799)" fill="#8c1d14"/>
        <path id="Caminho_23261" data-name="Caminho 23261" d="M885.188,0C836.729,84.777,686.142,167.411,523.925,167.411,359.954,167.411,212.4,85.036,167.2,0Z" transform="translate(13.729)" fill="#d62f21"/>
        <path id="Caminho_23262" data-name="Caminho 23262" d="M1005.82,557.148c0-5.606-5.573-5.66-11.081-6.493-12.661-1.883-16.3-3.788-36.09-8.8-6.98-1.764-14.945-2.641-30.874-4.394-29.089-3.247-31.307-3.614-31.794-1.428-.162.747,2.316,3.247,7.067,12.034,6.385,11.752,5.129,11.1,7.348,16.59a60.186,60.186,0,0,1,3.809,12.109c1.3,5.259.638,10.822,3.452,13.754,1.926,1.991,5.227,1.677,6.493,1.851,12.239,1.591,29.056,1.439,29.056,1.439,21.384-1.3,23.667-1.082,32.984-1.883,2.684-.238,5.14-.433,11.265-1.439,1.082-.184,8.235-.465,8.224-1.418C1005.56,575.177,1005.993,582.9,1005.82,557.148Z" transform="translate(74.089 43.96)" fill="#8c1d14"/>
        <ellipse id="Elipse_111" data-name="Elipse 111" cx="343.966" cy="21.568" rx="343.966" ry="21.568" transform="translate(177.056 937.615)" fill="#1d1d1b" stroke="#fff" stroke-miterlimit="10" stroke-width="1" opacity="0.4"/>
        <path id="Caminho_23263" data-name="Caminho 23263" d="M644.541,850.67H623.98L636.7,892.1l23.267.26Z" transform="translate(51.572 69.943)" fill="#020304"/>
        <path id="Caminho_23264" data-name="Caminho 23264" d="M333.262,892.355H312.69l12.726-41.425,23.267-.26Z" transform="translate(25.839 69.943)" fill="#020304"/>
        <path id="Caminho_23265" data-name="Caminho 23265" d="M740.727,839.853a14.588,14.588,0,0,1-3.615,9.739,11.806,11.806,0,0,1-8.755,4.026H269.369c-6.828,0-12.369-6.168-12.369-13.754a14.588,14.588,0,0,1,3.614-9.74,12.38,12.38,0,0,1,5.27-3.485c36.144,6.774,129.286,11.6,238.466,11.6,101.723,0,189.454-4.188,230.23-10.237a14.068,14.068,0,0,1,6.147,11.85Z" transform="translate(21.332 67.967)" fill="#5b5153"/>
        <path id="Caminho_23266" data-name="Caminho 23266" d="M821.963,639.35c0,63.718-3.539,126.332-6.98,170.809-.92,11.9-2.543,30.853-3.9,39.932-1.872,12.575-15.443,12.131-28.515,14.133-3.528.552-24.717,2.164-28.526,2.283-64.389,2.316-137.24,10.1-234.83,7.294-109.537-3.138-224.311-2.164-285.356-11.969-4.437-.714-8.549-1.84-12.423-2.857-10.822-2.857-19.035-11.265-21.059-21.827-1.266-6.58-2.359-14.176-3.3-22.639-4.7-42.291-5.638-106.366-5.638-175.754,0-64.324,1.731-116.127,6.277-151.893a233.27,233.27,0,0,1,5.822-31.6,28.418,28.418,0,0,1,20.853-19.847c3.647-.9,7.51-1.742,11.547-2.532,62.149-12.293,168.45-13.235,274.123-13.592,102.3-.335,207.267,3.69,271.212,14.068,3.528.563,6.926,1.158,10.2,1.764a28.7,28.7,0,0,1,23.039,21.99,236.981,236.981,0,0,1,3.733,26.113C821.757,519.359,821.963,572.84,821.963,639.35Z" transform="translate(15.943 34.485)" fill="#f1841d"/>
        <path id="Caminho_23267" data-name="Caminho 23267" d="M561.389,875.466q-20.291,0-42.107-.606c-28.872-.833-58.231-1.374-86.627-1.9-79.117-1.472-153.84-2.857-198.869-10.086a118.512,118.512,0,0,1-11.8-2.684l-.725-.195c-11.168-2.954-19.728-11.817-21.795-22.585q-1.867-9.739-3.311-22.725c-4.978-44.758-5.649-114.006-5.649-175.852,0-68.966,2.056-118.692,6.287-152.012a233.812,233.812,0,0,1,5.855-31.729,29.381,29.381,0,0,1,21.578-20.561c3.625-.887,7.575-1.742,11.6-2.543,60.352-11.9,159.944-13.224,274.329-13.6,115.023-.368,213.944,4.751,271.385,14.068,3.528.574,6.948,1.169,10.226,1.775a29.619,29.619,0,0,1,23.808,22.725,233.927,233.927,0,0,1,3.766,26.221c3.42,35.538,3.679,87.158,3.679,156.21,0,66.629-3.788,129.7-6.969,170.885-.53,6.731-2.348,29.532-3.907,40.04-1.71,11.449-12.347,12.78-23.613,14.187-1.9.238-3.842.487-5.757.779-3.528.541-24.544,2.164-28.645,2.294-18.83.671-38.384,1.818-59.075,3.03C655.613,872.912,612,875.466,561.389,875.466ZM521.9,420.329H510.16c-114.266.379-213.749,1.667-273.917,13.57-4.047.79-7.921,1.634-11.5,2.511a27.433,27.433,0,0,0-20.107,19.154,233.245,233.245,0,0,0-5.811,31.469c-4.21,33.233-6.266,82.883-6.266,151.774,0,61.792.671,130.942,5.638,175.646.952,8.582,2.056,16.232,3.246,22.574,1.926,10.032,9.913,18.3,20.334,21.048l.736.195a116.851,116.851,0,0,0,11.579,2.651c44.877,7.2,119.536,8.582,198.577,10.053,28.4.53,57.766,1.082,86.649,1.9,68.966,1.98,125.628-1.331,175.624-4.264,20.7-1.212,40.267-2.359,59.119-3.03,3.842-.141,24.976-1.753,28.4-2.273,1.937-.3,3.9-.541,5.822-.79,10.919-1.364,20.356-2.543,21.849-12.521,1.547-10.4,3.365-33.147,3.885-39.867,3.182-41.122,6.969-104.158,6.969-170.733,0-69-.26-120.575-3.679-156.026a230.582,230.582,0,0,0-3.723-25.972,27.628,27.628,0,0,0-22.239-21.221q-4.88-.909-10.162-1.764C725.835,425.415,631.784,420.329,521.9,420.329Z" transform="translate(15.866 34.41)" fill="none"/>
        <path id="Caminho_23268" data-name="Caminho 23268" d="M521.208,843.146c-11.374,0-28.136.379-40.386,0-24.284-.736-44.033,1.18-67.917.7-66.542-1.309-128.5-2.457-168.341-6.341a56.156,56.156,0,0,1-9.923-2.4l-.617-.173c-9.393-2.651-13.6-9.036-15.345-18.667-1.082-5.757-2.381-22.628-3.182-30.3-4.188-40.04-5.487-93.423-5.487-148.722,0-61.683-.119-106.171,3.441-135.963a223.192,223.192,0,0,1,4.924-28.374,25.442,25.442,0,0,1,18.148-18.4,68.292,68.292,0,0,1,9.74-2.273c51.771-5.714,135.271-9.631,231.432-9.978,96.746-.325,171.588-1.147,220.448,4.459,3,.335,21.081,2.586,24.435,5.79,7.326,6.969,7.315,9.177,9.393,19.544,1.288,6.417,2.3,18.4,3.149,27.736C738,531.558,737.2,575.906,737.2,637.643c0,59.584-.249,116.051-2.922,152.877-.444,6.028-.682,16.232-2,25.528-1.428,10.237-9.988,18.473-19.479,19.728-1.6.216-21.481,2.4-23.126,2.467-4.329.162-17.477.92-20.929,1.082-15.832.606-24.792.584-42.2,1.418C589.493,842.4,563.748,843.146,521.208,843.146Z" transform="translate(17.445 36.353)" fill="#1a1a1a"/>
        <rect id="Retângulo_5065" data-name="Retângulo 5065" width="439.543" height="325.645" rx="22.94" transform="translate(273.162 512.418)" fill="#ededed"/>
        <g id="Grupo_3603" data-name="Grupo 3603" transform="translate(207.989 453.023)" opacity="0.57">
          <path id="Caminho_23269" data-name="Caminho 23269" d="M818.932,639.09c0,63.231-3.506,125.347-6.915,169.489-.909,11.9-2.521,30.614-3.863,39.618-1.861,12.477-15.313,12.034-28.266,14.068-3.5.53-24.5,2.164-28.277,2.262-63.848,2.294-136.05,10.021-232.763,7.24-108.584-3.127-222.363-2.164-282.878-11.9a122.958,122.958,0,0,1-12.3-2.835c-10.692-2.835-18.873-11.179-20.886-21.643-1.255-6.493-2.337-14.068-3.246-22.466-4.653-41.956-5.584-105.533-5.584-174.391,0-63.848,1.721-115.218,6.212-150.724a232.5,232.5,0,0,1,5.779-31.383,28.2,28.2,0,0,1,20.669-19.7q5.411-1.331,11.449-2.5c61.608-12.207,166.989-13.137,271.732-13.495,101.41-.325,205.47,3.658,268.853,13.96,3.5.563,6.872,1.147,10.107,1.753A28.439,28.439,0,0,1,811.6,458.261a236.7,236.7,0,0,1,3.712,25.918C818.727,520.031,818.932,573.1,818.932,639.09Z" transform="translate(-191.84 -418.42)" fill="none"/>
          <path id="Caminho_23270" data-name="Caminho 23270" d="M561.321,874.722c-13.462,0-27.411-.184-41.923-.606-28.742-.822-57.982-1.364-86.259-1.894-78.771-1.472-153.191-2.857-198.036-10.064a117.352,117.352,0,0,1-11.72-2.684l-.725-.195c-11.179-2.944-19.652-11.8-21.719-22.531-1.223-6.428-2.337-14.068-3.246-22.725-5-44.618-5.692-113.725-5.692-175.43,0-68.826,2.045-118.443,6.255-151.7a235.373,235.373,0,0,1,5.833-31.664,29.3,29.3,0,0,1,21.481-20.507c3.6-.877,7.5-1.732,11.558-2.532,60.093-11.9,159.262-13.2,273.149-13.581,114.59-.357,213.067,4.751,270.27,14.046,3.517.574,6.915,1.158,10.183,1.775a29.511,29.511,0,0,1,23.743,22.725,233.709,233.709,0,0,1,3.744,26.167c3.409,35.462,3.669,86.974,3.669,155.832,0,66.488-3.777,129.427-6.948,170.517-.519,6.731-2.337,29.478-3.885,39.921-1.7,11.428-12.293,12.759-23.5,14.155-1.894.238-3.82.487-5.746.779-3.5.541-24.435,2.164-28.515,2.283-18.754.682-38.211,1.818-58.826,3.03C655.166,872.168,611.7,874.722,561.321,874.722ZM522.06,420.548H510.373c-113.779.379-212.84,1.667-272.705,13.538-4.036.79-7.889,1.645-11.46,2.511a27.324,27.324,0,0,0-20.139,19.133,233.5,233.5,0,0,0-5.768,31.383c-4.21,33.168-6.244,82.71-6.244,151.5,0,61.683.66,130.693,5.606,175.311.952,8.56,2.045,16.135,3.246,22.52,1.926,10.021,9.869,18.267,20.247,21.016l.725.195a117.414,117.414,0,0,0,11.536,2.64c44.693,7.175,119.038,8.56,197.733,10.032,28.277.53,57.517,1.082,86.281,1.894,68.685,1.98,125.1-1.331,174.878-4.242,20.561-1.212,40.04-2.359,58.87-3.03,3.82-.141,24.89-1.742,28.277-2.273,1.937-.292,3.874-.541,5.8-.779,10.822-1.364,20.269-2.543,21.751-12.5,1.537-10.378,3.355-33.071,3.874-39.78,3.16-41.057,6.937-103.888,6.937-170.376,0-68.847-.26-120.315-3.658-155.691a235.188,235.188,0,0,0-3.712-25.972,27.53,27.53,0,0,0-22.109-21.232q-4.87-.909-10.129-1.764C725.074,425.624,631.424,420.548,522.06,420.548Z" transform="translate(-192 -418.594)" fill="#fff"/>
        </g>
        <rect id="Retângulo_5066" data-name="Retângulo 5066" width="5.487" height="117.804" rx="1.34" transform="translate(773.165 489.804)" fill="#494443"/>
        <rect id="Retângulo_5067" data-name="Retângulo 5067" width="5.487" height="117.804" rx="1.34" transform="translate(781.902 490.031)" fill="#494443"/>
        <rect id="Retângulo_5068" data-name="Retângulo 5068" width="5.487" height="117.804" rx="1.34" transform="translate(790.228 490.031)" fill="#494443"/>
        <rect id="Retângulo_5069" data-name="Retângulo 5069" width="5.487" height="117.804" rx="1.34" transform="translate(798.564 489.815)" fill="#494443"/>
        <rect id="Retângulo_5070" data-name="Retângulo 5070" width="5.487" height="117.804" rx="1.34" transform="translate(806.662 490.031)" fill="#494443"/>
        <ellipse id="Elipse_112" data-name="Elipse 112" cx="4.881" cy="4.826" rx="4.881" ry="4.826" transform="translate(769.745 806.026)" fill="#494443"/>
        <ellipse id="Elipse_113" data-name="Elipse 113" cx="4.881" cy="4.826" rx="4.881" ry="4.826" transform="translate(786.126 806.026)" fill="#494443"/>
        <ellipse id="Elipse_114" data-name="Elipse 114" cx="4.881" cy="4.826" rx="4.881" ry="4.826" transform="translate(802.301 806.026)" fill="#494443"/>
        <ellipse id="Elipse_115" data-name="Elipse 115" cx="4.881" cy="4.826" rx="4.881" ry="4.826" transform="translate(769.583 822.682)" fill="#494443"/>
        <ellipse id="Elipse_116" data-name="Elipse 116" cx="4.881" cy="4.826" rx="4.881" ry="4.826" transform="translate(785.963 822.682)" fill="#494443"/>
        <ellipse id="Elipse_117" data-name="Elipse 117" cx="4.881" cy="4.826" rx="4.881" ry="4.826" transform="translate(802.149 822.682)" fill="#494443"/>
        <ellipse id="Elipse_118" data-name="Elipse 118" cx="4.881" cy="4.826" rx="4.881" ry="4.826" transform="translate(769.713 838.742)" fill="#494443"/>
        <ellipse id="Elipse_119" data-name="Elipse 119" cx="4.881" cy="4.826" rx="4.881" ry="4.826" transform="translate(786.093 838.742)" fill="#494443"/>
        <ellipse id="Elipse_120" data-name="Elipse 120" cx="4.881" cy="4.826" rx="4.881" ry="4.826" transform="translate(802.268 838.742)" fill="#494443"/>
        <ellipse id="Elipse_121" data-name="Elipse 121" cx="4.881" cy="4.826" rx="4.881" ry="4.826" transform="translate(769.713 855.256)" fill="#494443"/>
        <ellipse id="Elipse_122" data-name="Elipse 122" cx="4.881" cy="4.826" rx="4.881" ry="4.826" transform="translate(786.093 855.256)" fill="#494443"/>
        <ellipse id="Elipse_123" data-name="Elipse 123" cx="4.881" cy="4.826" rx="4.881" ry="4.826" transform="translate(802.268 855.256)" fill="#494443"/>
        <ellipse id="Elipse_124" data-name="Elipse 124" cx="23.959" cy="22.531" rx="23.959" ry="22.531" transform="translate(769.985 642.341)" fill="#8d8788"/>
        <ellipse id="Elipse_125" data-name="Elipse 125" cx="21.145" cy="19.879" rx="21.145" ry="19.879" transform="translate(772.798 644.711)" fill="#494443"/>
        <ellipse id="Elipse_126" data-name="Elipse 126" cx="23.959" cy="22.531" rx="23.959" ry="22.531" transform="translate(771.166 703.909)" fill="#8d8788"/>
        <ellipse id="Elipse_127" data-name="Elipse 127" cx="21.145" cy="19.879" rx="21.145" ry="19.879" transform="translate(773.979 706.29)" fill="#494443"/>
        <path id="Caminho_23271" data-name="Caminho 23271" d="M743.567,635.78l-27.206-33.266a4.134,4.134,0,0,1,.747-5.952l2.824-2.164a4.545,4.545,0,0,1,6.2.725l27.206,33.255a4.112,4.112,0,0,1-.747,5.952l-2.824,2.164a4.545,4.545,0,0,1-6.2-.714Z" transform="translate(59.132 48.798)" fill="#8d8788"/>
        <path id="Caminho_23272" data-name="Caminho 23272" d="M744.109,635.1l-26.957-32.952a3.614,3.614,0,0,1,.66-5.205l2.467-1.851a3.972,3.972,0,0,1,5.411.628l26.946,32.952a3.593,3.593,0,0,1-.649,5.194l-2.468,1.861A3.993,3.993,0,0,1,744.109,635.1Z" transform="translate(59.206 48.864)" fill="#494443"/>
        <path id="Caminho_23273" data-name="Caminho 23273" d="M754.259,660.8l-28.6,32.173a4.545,4.545,0,0,1-6.222.465l-2.738-2.229a4.112,4.112,0,0,1-.487-5.974L744.8,653.113a4.556,4.556,0,0,1,6.233-.476l2.727,2.24a4.112,4.112,0,0,1,.5,5.919Z" transform="translate(59.109 53.577)" fill="#8d8788"/>
        <path id="Caminho_23274" data-name="Caminho 23274" d="M753.446,660.32l-28.331,31.87a3.961,3.961,0,0,1-5.411.411l-2.392-1.948a3.593,3.593,0,0,1-.433-5.216l28.342-31.87a3.982,3.982,0,0,1,5.411-.422l2.392,1.959a3.6,3.6,0,0,1,.422,5.216Z" transform="translate(59.175 53.631)" fill="#494443"/>
        <path id="Caminho_23275" data-name="Caminho 23275" d="M688.362,433.218,589.29,427.19c5.476-7.391,22.347-12.672,42.908-13.062l-26.989-87.049,7.38-2.1,27.66,89.268c2.716.119,5.411.314,7.965.6L667.52,352.9l7.38,2.164L655.919,415.9C673.742,418.944,686.706,425.643,688.362,433.218Z" transform="translate(48.723 26.721)" fill="#4e4d4c"/>
        <path id="Caminho_23276" data-name="Caminho 23276" d="M606.671,329.651,593.88,288.475l3.917-1.115,12.791,41.176Z" transform="translate(49.078 23.627)" fill="#808081"/>
        <path id="Caminho_23277" data-name="Caminho 23277" d="M666.986,355.815l-3.9-1.169,14.382-44.206,3.9,1.169Z" transform="translate(54.799 25.525)" fill="#808081"/>
        <ellipse id="Elipse_128" data-name="Elipse 128" cx="6.32" cy="5.93" rx="6.32" ry="5.93" transform="translate(637.446 302.967)" fill="#4e4d4c"/>
        <ellipse id="Elipse_129" data-name="Elipse 129" cx="6.883" cy="6.601" rx="6.883" ry="6.601" transform="translate(728.628 328.703)" fill="#4e4d4c"/>
        <path id="Caminho_23278" data-name="Caminho 23278" d="M267.29,639.987,283.641,627.5a53.314,53.314,0,0,1,6.06-3.993,20.369,20.369,0,0,1,6.439-2.381,12.985,12.985,0,0,1,6.363.465,13.224,13.224,0,0,1,5.952,4.567,11.255,11.255,0,0,1,2.76,7.575,13.884,13.884,0,0,1-2.727,7.575l.087.13a16.084,16.084,0,0,1,4.891-1.829,13.482,13.482,0,0,1,4.837-.076,12.609,12.609,0,0,1,4.5,1.688,14.511,14.511,0,0,1,3.8,3.365,13.05,13.05,0,0,1,3.063,6.818,14.209,14.209,0,0,1-.9,6.612,20.444,20.444,0,0,1-3.7,6.049,34.478,34.478,0,0,1-5.411,5.086l-17.964,13.754Zm23.429,9.794,7-5.411a12.58,12.58,0,0,0,2.013-1.926,7.51,7.51,0,0,0,1.32-2.283,5.075,5.075,0,0,0,.216-2.521,5.411,5.411,0,0,0-1.223-2.586,5.086,5.086,0,0,0-2.359-1.775,5.519,5.519,0,0,0-2.619-.206,9.868,9.868,0,0,0-2.662.92,15.77,15.77,0,0,0-2.456,1.537l-6.58,5.032Zm14.263,17.758,8.657-6.634a12.725,12.725,0,0,0,2.067-1.98,7.261,7.261,0,0,0,1.4-2.435,6.125,6.125,0,0,0,.26-2.738,5.736,5.736,0,0,0-1.309-2.814,4.978,4.978,0,0,0-2.749-1.872,6.5,6.5,0,0,0-3.041.076,12.988,12.988,0,0,0-3.073,1.277,23.715,23.715,0,0,0-2.695,1.764l-7.348,5.616Z" transform="translate(22.09 51.054)"/>
        <path id="Caminho_23279" data-name="Caminho 23279" d="M304.39,611.608l16.362-12.51a53.151,53.151,0,0,1,6.049-3.993,20.17,20.17,0,0,1,6.439-2.37,12.824,12.824,0,0,1,6.363.465,13.192,13.192,0,0,1,5.952,4.556,11.319,11.319,0,0,1,2.77,7.575,13.992,13.992,0,0,1-2.738,7.575l.1.13a16.014,16.014,0,0,1,4.881-1.829,13.733,13.733,0,0,1,4.837-.076,12.532,12.532,0,0,1,4.5,1.688,14.511,14.511,0,0,1,3.8,3.366A13.051,13.051,0,0,1,366.766,623a14.209,14.209,0,0,1-.9,6.612,20.822,20.822,0,0,1-3.69,6.06,36.584,36.584,0,0,1-5.411,5.086l-17.975,13.743Zm23.44,9.794,7-5.411a12.49,12.49,0,0,0,2-1.926,7.51,7.51,0,0,0,1.32-2.283,5.086,5.086,0,0,0,.227-2.521,5.508,5.508,0,0,0-1.223-2.586,5.14,5.14,0,0,0-2.37-1.764,5.215,5.215,0,0,0-2.608-.206,9.536,9.536,0,0,0-2.673.909,16.336,16.336,0,0,0-2.457,1.547l-6.569,5.021Zm14.252,17.791,8.657-6.634a13.677,13.677,0,0,0,2.067-1.98,7.574,7.574,0,0,0,1.4-2.435,5.973,5.973,0,0,0,.249-2.738,5.778,5.778,0,0,0-1.309-2.814,4.945,4.945,0,0,0-2.749-1.872,6.494,6.494,0,0,0-3.095.065,13.123,13.123,0,0,0-3.073,1.277,22.614,22.614,0,0,0-2.684,1.764l-7.272,5.584Z" transform="translate(25.157 48.719)"/>
        <path id="Caminho_23280" data-name="Caminho 23280" d="M341.5,583.228l16.351-12.51a52.574,52.574,0,0,1,6.049-3.982,19.944,19.944,0,0,1,6.439-2.381,12.878,12.878,0,0,1,6.374.465,13.17,13.17,0,0,1,5.941,4.556,11.266,11.266,0,0,1,2.77,7.575,13.971,13.971,0,0,1-2.738,7.629l.1.119a16.016,16.016,0,0,1,4.881-1.829,13.743,13.743,0,0,1,4.837-.076,12.606,12.606,0,0,1,4.513,1.753,14.318,14.318,0,0,1,3.8,3.365,13.051,13.051,0,0,1,3.052,6.807,14.2,14.2,0,0,1-.9,6.612,20.56,20.56,0,0,1-3.69,6.06,35,35,0,0,1-5.411,5.086L375.9,626.223Zm23.429,9.794,7-5.411a12.12,12.12,0,0,0,2.013-1.926,7.478,7.478,0,0,0,1.309-2.283,4.955,4.955,0,0,0,.227-2.521,5.411,5.411,0,0,0-1.223-2.586,5.162,5.162,0,0,0-2.359-1.764,5.271,5.271,0,0,0-2.619-.206,9.467,9.467,0,0,0-2.662.909,16.443,16.443,0,0,0-2.467,1.547l-6.569,5.021Zm14.263,17.791,8.657-6.634a13.619,13.619,0,0,0,2.067-1.97,7.208,7.208,0,0,0,1.4-2.446,5.974,5.974,0,0,0,.249-2.738,5.779,5.779,0,0,0-1.309-2.814,4.957,4.957,0,0,0-2.76-1.872,6.493,6.493,0,0,0-3.095.065,12.985,12.985,0,0,0-3.084,1.277,23.524,23.524,0,0,0-2.684,1.764l-7.3,5.595Z" transform="translate(28.225 46.386)"/>
        <path id="Caminho_23281" data-name="Caminho 23281" d="M420.41,576.107l5.021-28.028a38.734,38.734,0,0,0,.519-4.6,6.266,6.266,0,0,0-1.428-4.394,5.411,5.411,0,0,0-4.329-2.164,7.575,7.575,0,0,0-4.772,1.645,6.374,6.374,0,0,0-2.792,4.675,7.889,7.889,0,0,0,1.472,5.14l-9.837,6.493a18.743,18.743,0,0,1-3.246-6.893,15.151,15.151,0,0,1,0-6.612,16.959,16.959,0,0,1,2.824-6.125,25.878,25.878,0,0,1,5.324-5.411,23.178,23.178,0,0,1,6.233-3.441,16.815,16.815,0,0,1,6.493-1.082,14.6,14.6,0,0,1,6.244,1.731,18.3,18.3,0,0,1,5.606,4.816,19.685,19.685,0,0,1,2.565,4.069,15.949,15.949,0,0,1,1.212,3.961,17.035,17.035,0,0,1,.195,3.917,37.714,37.714,0,0,1-.487,4L432.9,569.225l19.479-14.88,6.428,8.019-30.614,23.418Z" transform="translate(33.115 43.191)"/>
        <path id="Caminho_23282" data-name="Caminho 23282" d="M443.814,539.043a56.648,56.648,0,0,1-5.519-8.322,28.71,28.71,0,0,1-3.246-9.112,18.4,18.4,0,0,1,.79-9.068,17.9,17.9,0,0,1,6.417-8.192,18.483,18.483,0,0,1,9.685-4.123,19.479,19.479,0,0,1,9.2,1.439,29.631,29.631,0,0,1,8.279,5.216,55.539,55.539,0,0,1,12.456,15.54,28.538,28.538,0,0,1,3.246,9.112,18.461,18.461,0,0,1-.779,9.068,17.878,17.878,0,0,1-6.428,8.192,18.473,18.473,0,0,1-9.685,4.134,19.783,19.783,0,0,1-9.2-1.439,29.728,29.728,0,0,1-8.279-5.227,57.2,57.2,0,0,1-6.937-7.218Zm9.3-7.11q1.363,1.688,3.409,3.95a25.519,25.519,0,0,0,4.491,3.907,12.64,12.64,0,0,0,5.043,2.164,6.493,6.493,0,0,0,5.151-1.493,6.233,6.233,0,0,0,2.684-4.5,11.9,11.9,0,0,0-.855-5.313,25.25,25.25,0,0,0-2.814-5.195c-1.169-1.656-2.164-3.052-3.106-4.188s-2.045-2.446-3.42-3.95a25.52,25.52,0,0,0-4.48-3.917,12.477,12.477,0,0,0-5.075-2.089,6.493,6.493,0,0,0-5.119,1.461A6.2,6.2,0,0,0,446.3,517.3a12.023,12.023,0,0,0,.887,5.292A24.736,24.736,0,0,0,450,527.788Q451.746,530.223,453.11,531.933Z" transform="translate(35.937 41.123)"/>
        <ellipse id="Elipse_130" data-name="Elipse 130" cx="43.73" cy="42.897" rx="43.73" ry="42.897" transform="translate(565.382 624.735)" fill="#7db9d6"/>
        <path id="Caminho_23283" data-name="Caminho 23283" d="M531.28,783.169c-.119-2.229-1.169-4.329-.9-6.623.141-1.212.39-2.164,1.656-2.651a2.878,2.878,0,0,0,1.98-3.679c-.6-2.576,0-5.151.206-7.727,0-.509.271-1.234-.433-1.483s-.974.368-1.32.822c-3.658,4.881-7.456,5.93-13.549,3.6a10.009,10.009,0,0,0-4.6-.714c-10.594.974-19.079-3.246-26.329-10.324-1.97-1.937-4.329-3.539-5.876-5.844a1.526,1.526,0,0,0-1.71-.628c-7.38,1.612-13.938-1.082-20.41-3.852-9.74-4.156-17.185-11.168-24.013-18.851-3.5-3.928-6.883-7.921-10.032-12.12-.7-.952-1.547-1.786-1.483-3.16,0-1-1.082-1.266-1.786-1.612q-7.077-3.409-14.187-6.72a9.663,9.663,0,0,1-3.474-2.413c-.227-.281-.454-.606-.195-.941a.779.779,0,0,1,.974-.216,13.294,13.294,0,0,1,2.164.985,84.7,84.7,0,0,0,14.815,6.828c3.246,1.245,5.725-.162,5.865-3.247.076-1.721-1.082-2.456-2.327-3.246-.822-.487-2.067-.833-1.872-2.045s1.461-1.418,2.489-1.731a4.672,4.672,0,0,1,1.483-.238c3.571.162,4.751-2.77,6.493-4.848.671-.822.054-2.164-.649-2.922-1.537-1.764-1.775-4.123-3.052-6a.952.952,0,0,1,.238-1.483c.7-.335.985.325,1.32.768a7.575,7.575,0,0,0,10.281,1.634c.238-.152.519-.433.747-.4,2.705.368,2.1-1.277,1.721-2.705-1.829-6.893-3.246-13.906-6.493-20.377-.281-.541-.758-1.2,0-1.677s1.461,0,2.067.6c2.554,2.5,3.16,5.909,4.534,8.971,1.547,3.463,2.218,7.24,3.907,10.659,1.331,2.716,1.753,2.9,4.61,1.634.6-.26,1.082-.639,1.721-.877s.931-1.18,1.6-.509c.5.509.119,1.234-.206,1.764-.563.941-.725,1.656.638,2.056a3.765,3.765,0,0,1,1.2.866,3.7,3.7,0,0,0,5.941-1.526,22.91,22.91,0,0,0,1.493-8.841,8.593,8.593,0,0,1,1.082-4.859c.952-1.461,1.991-1.4,3.149-.292a2.425,2.425,0,0,1,.768,1.006c.9,3.5,2.164,6.926,1.255,10.67s-1.4,7.272-2.078,10.908a8.1,8.1,0,0,1-.325,1.634c-.79,1.872-.682,3.138,1.84,3.246,1.158.065,1.385.887.563,1.548s-.628,1.082.152,1.7c2.608,1.959,4.329,4.642,6.287,7.175a4.253,4.253,0,0,1,0,5.616c-5.552,7.413-12.694,13.159-20.237,18.505-2.446,1.731-2.424,2.283,0,4.1s4.588,3.809,6.948,5.638A58.97,58.97,0,0,0,479.9,746.2c3.008,1.234,5.746.238,8.04-2,2.056-2,1.991-1.861,3.972,0a85.143,85.143,0,0,0,9.2,8.138c2.543,1.818,5.53,3.333,9.036,2.608,1.9-.39,3.376.054,4.1,2.067.5,1.374,1.45,1.331,2.532.509,2.067-1.558,2.164-3.474.9-5.616-1.764-2.889-4.329-5.248-5.595-8.452-.66-1.667-.476-2.705,1.147-3.907a32.684,32.684,0,0,1,8.928-4.145c5.01-1.742,9.48-.509,13.484,2.705.606.487,1.255.941,1.894,1.4.985.693,1.71.682,2.013-.66.249-1.082.617-1.98,2.024-1.082.195.119.563,0,.833,0a119.063,119.063,0,0,0,14.923-3.376c.866-.238.855-.574.39-1.147a3.463,3.463,0,0,1-.065-4.329,3.247,3.247,0,0,0,.3-2.435,81.875,81.875,0,0,1-.606-24.273,31.386,31.386,0,0,1,.822-4.112A2.218,2.218,0,0,0,556.6,695.1c-1.364-.509-2.543-1.3-2.013-2.965s-.216-4.329,2.922-4.642A1.591,1.591,0,0,0,559,686.413c.26-.855-.5-1.309-1.082-1.6-3.247-1.58-6.547-3.246-9.945-4.588-3.928-1.537-7.25-4-10.822-6.125a66.362,66.362,0,0,1-6.569-4.415,133.281,133.281,0,0,0,58.361,12.586c.379.574.151.844-.087.942-3.247,1.255-6.233,3.247-9.891,3.344a9.837,9.837,0,0,0-3.528.92c-.812.325-1.558.823-1.58,1.807a2.391,2.391,0,0,0,1.6,2.045c2.933,1.5,2.922,1.677,2.164,4.783-.487,1.894-1.84,2.413-3.463,2.6a2.456,2.456,0,0,0-2.478,2.359,63.555,63.555,0,0,0-.714,12.326,96.4,96.4,0,0,0,.877,11.72,4.978,4.978,0,0,0,1.266,3,6.19,6.19,0,0,1,1.536,4.48,1.609,1.609,0,0,0,1.612,1.8,12.813,12.813,0,0,0,5.065.152c2.814-.639,5.735,0,8.549.606a1.807,1.807,0,0,1,1.623,2.164c-.184,1.558.606,1.082,1.331.563a11.417,11.417,0,0,1,11.222-1.439c1.731.628,3.614.671,5.324,1.6,3.247,1.775,5.238,4.762,7.575,7.37,1.483,1.645.866,4.22-.963,5.865s-3.712,3.311-5.7,4.794c-.758.552-1.158,1.4-1.9,1.872-1.082-.422-.444-1.98-2.164-2.348,1.786,9.263,2.608,18.4.877,27.573Zm34.337-33.547c-1.721-2.316-3.679-4.112-6.493-4.675a.627.627,0,0,1-.346-.238c-2.684-2.933-6.1-3.615-9.956-3.311-1.915.141-3.928.206-4.989-1.991a1.255,1.255,0,0,0-1.71-.487c-.79.444-.271,1.082-.1,1.667a14,14,0,0,1,.812,3.246c.065,1.753.974,2.522,2.532,3.247,5.876,2.521,12.185,2.554,18.4,3.247a1.894,1.894,0,0,0,1.851-.649Zm24.706-3.376c-1.872,0-1.8-1.082-1.98-2.024-.238-1.3-.541-2.586-.855-3.874a2.088,2.088,0,0,0-1.569-1.569,5.681,5.681,0,0,0-6.493,2.338,12.984,12.984,0,0,1-2.684,3.517,6.146,6.146,0,0,0-1.775,3.484c-.26.9.1,1.309,1.082,1.385a24.435,24.435,0,0,0,14.274-3.2Zm7.64-4.058c2.554-1.4,4.166-.574,5.238,1.721.13.292.487.638.866.465s.325-.725.141-1.082c-.574-1.082-.66-2.695-2.1-2.943a4.6,4.6,0,0,0-4.145,1.894Z" transform="translate(33.488 54.033)" fill="url(#linear-gradient)"/>
        <path id="Caminho_23284" data-name="Caminho 23284" d="M612.1,775.65c-1.309-2.608-3.441-4.61-5.281-6.818-3.593-4.329-7.283-8.495-10.995-12.694-.941-1.082-1.245-1.721.357-2.478a13.745,13.745,0,0,0,4.956-4.329c.6-.8,1-1.006,1.742,0,6.861,8.852,14.642,17.012,20.9,26.329Z" transform="translate(49.178 61.554)"/>
        <path id="Caminho_23285" data-name="Caminho 23285" d="M514.126,575.224a35.452,35.452,0,0,1,10.822-8.744c13.148-7.229,27.39-9.036,42.2-8.051C583.5,559.511,598.383,565,612.1,573.319c16.1,9.794,28.428,22.942,35.343,40.44a9.925,9.925,0,0,0,.411.985c.3.606.357,1.569,1.082,1.656s.952-.931,1.212-1.515c.584-1.342,2.164-1.818,2.814-3.149-1.439,3.82-.422,7.976-1.872,11.741-.487,1.255,1.483.541,1.2,2-.53,2.705-1.8,5.411-.866,8.657,1.32-5.281,3.084-10.075,4.935-15.28a4.513,4.513,0,0,1,.552,3.733c-.974,8.376-3.182,16.514-5.411,24.652-.649,2.435-1.364,4.87-2.089,7.283a3.961,3.961,0,0,1-1.667,2.77c-.682-1.872.065-3.614.195-5.335s.53-3.6.822-5.411c.065-.476.368-1.082-.3-1.255a1.18,1.18,0,0,0-1.006.195c-.8.725.249.617.465.909.519.682-.519.909-.519,1.407-.065,3.539-2.067,6.493-3.063,9.74a22.55,22.55,0,0,0-1.266,3.571c-.087.6-.238,1.342-1.158,1.18s-1.493-.584-1.418-1.547c.152-2.024.173-4.08.519-6.071,1.569-9.112,3.052-18.256,5.963-27.054,1.082-3.16,2.381-6.32-1.428-8.657a57.928,57.928,0,0,0-15.681-17.693,118.143,118.143,0,0,0-29.738-16.1,173.758,173.758,0,0,0-30.3-8.105,109.009,109.009,0,0,0-32.021-1.547c-10.151,1.082-19.782,3.831-28.136,9.826-1.255.9-2.327,2.013-3.528,2.965,4.166-5.032,9.685-8.214,15.681-10.7a41.987,41.987,0,0,1,4.675-1.645c3.019-.855,5.714-1.742,8.019-4.329s5.5-4.188,8.181-6.406c1.082-.9,2.814-.628,3.917-1.656.411-.379,1.082-.649,1.082-1.266,0-.8-.844-.541-1.331-.747-1.851-.812-3.679-.346-5.487.108-9.6,2.435-18.505,6.19-25.8,12.986a10.243,10.243,0,0,1-.963.574Zm132.836,39.51a6.293,6.293,0,0,0-.216-.725,69.806,69.806,0,0,0-8.9-15.031c-.552-.725-1.244-.563-1.926-.249a1.158,1.158,0,0,0-.6,1.753c.444.877,1.006,1.688,1.439,2.576a40.151,40.151,0,0,0,9.058,12.034c.26.238.519.563.887.281C646.885,615.232,646.907,614.885,646.961,614.734Z" transform="translate(41.863 45.896)" fill="url(#linear-gradient-2)"/>
        <path id="Caminho_23286" data-name="Caminho 23286" d="M566,667.811c-26.2.238-47.193-19.782-47.052-45.451.13-24.836,20.918-45.451,48.026-45.31,24.316.13,45.895,19.479,46.046,45.3C613.152,646.969,591.888,667.584,566,667.811Zm-.227-86.757c-23.267,0-42.594,18.494-42.583,40.646,0,23.277,18.895,41.447,43.016,41.382,22.931,0,42.2-18.776,42.2-40.863C608.272,599.213,589.431,581,565.775,581.054Z" transform="translate(42.905 47.447)" fill="#134580"/>
        <path id="Caminho_23287" data-name="Caminho 23287" d="M504.179,586.93c.281,1.634.281,1.634,1.385,1.277-7.489,13.635-8.928,28.353-7.737,43.546-8.506-14.9-4.253-28.786,3.246-42.453C501.765,588,503.237,587.893,504.179,586.93Z" transform="translate(40.75 48.258)"/>
        <path id="Caminho_23288" data-name="Caminho 23288" d="M621.85,568.26a4.534,4.534,0,0,1,3.409,1.569,81.422,81.422,0,0,1,12.618,18.711.909.909,0,0,1-.065.887A95.914,95.914,0,0,0,621.85,568.26Z" transform="translate(51.39 46.722)"/>
        <path id="Caminho_23289" data-name="Caminho 23289" d="M409.249,680.9c-.087.5.206,1.32-.779,1.364s-3.474-3.127-3.42-4.1c0-.671.422-.79,1.006-.758a3.744,3.744,0,0,1,3.192,3.5Z" transform="translate(33.468 55.695)"/>
        <path id="Caminho_23290" data-name="Caminho 23290" d="M578.973,620.5a16.611,16.611,0,0,1-17.4,15.886,16.232,16.232,0,0,1-15.951-16.741c.26-8.657,8.062-15.659,17.163-15.453S579.222,611.744,578.973,620.5Zm-8.387-.173a5.075,5.075,0,0,0,5.205-4.8,4.967,4.967,0,0,0-4.978-4.989,5.108,5.108,0,0,0-5.205,4.837,4.87,4.87,0,0,0,4.978,4.956Z" transform="translate(45.093 49.676)"/>
        <ellipse id="Elipse_131" data-name="Elipse 131" cx="5.021" cy="4.783" rx="5.021" ry="4.783" transform="translate(610.877 660.37)" fill="#ededed"/>
        <g id="Grupo_3604" data-name="Grupo 3604" transform="translate(434.862 745.182)" opacity="0.69">
          <path id="Caminho_23291" data-name="Caminho 23291" d="M425.351,705.815a2.067,2.067,0,0,1-2.554.6L405.028,697.4c-2-.963-3.82-3.755-2.619-6.125a4.448,4.448,0,0,1,5.952-1.9l19.1,8.6a1.721,1.721,0,0,1,.985,1.883h0C427.883,702.493,427.007,703.651,425.351,705.815Z" transform="translate(-401.64 -688.542)" fill="#e8e7db"/>
          <path id="Caminho_23292" data-name="Caminho 23292" d="M423.735,707.01a2.457,2.457,0,0,1-1.082-.238l-17.78-9.025c-2.056-.985-4.112-3.982-2.781-6.612A4.588,4.588,0,0,1,405,688.743a5.13,5.13,0,0,1,3.539.325l19.1,8.625a2.056,2.056,0,0,1,1.2,2.283c-.584,2.738-1.493,3.939-3.16,6.114h0A2.435,2.435,0,0,1,423.735,707.01ZM406.356,689.3a4.176,4.176,0,0,0-1.082.151,3.788,3.788,0,0,0-2.446,2.013c-1.082,2.164.671,4.772,2.446,5.627l17.78,9.025a1.7,1.7,0,0,0,2.078-.487h0c1.6-2.1,2.478-3.247,3.03-5.822a1.331,1.331,0,0,0-.779-1.472l-19.1-8.657A4.489,4.489,0,0,0,406.356,689.3Z" transform="translate(-401.669 -688.568)" fill="#1d1d1b"/>
        </g>
        <g id="Grupo_3605" data-name="Grupo 3605" transform="translate(436.062 725.475)" opacity="0.69">
          <path id="Caminho_23293" data-name="Caminho 23293" d="M428.151,698.977a2.727,2.727,0,0,1-3.322-.368L405.61,680.5c-2.164-1.98-3.6-6.028-1.407-8.322s5.714-1.7,7.889.271l20.983,18.169a2.164,2.164,0,0,1,.66,2.63h0c-1.472,2.868-2.911,3.874-5.584,5.725Z" transform="translate(-402.749 -670.329)" fill="#e8e7db"/>
          <path id="Caminho_23294" data-name="Caminho 23294" d="M426.826,699.784a3.377,3.377,0,0,1-2.229-.877l-19.219-18.115c-2.164-2-3.82-6.331-1.418-8.83a5.194,5.194,0,0,1,4.253-1.58,7.11,7.11,0,0,1,4.166,1.829l20.94,18.169a2.565,2.565,0,0,1,.747,3.063c-1.526,2.976-3.008,3.993-5.7,5.865a2.761,2.761,0,0,1-1.537.476Zm-19.068-28.731a4.328,4.328,0,0,0-3.246,1.364c-2.078,2.164-.6,6.006,1.385,7.8l19.219,18.115a2.37,2.37,0,0,0,2.846.335h0c2.6-1.786,4.026-2.781,5.465-5.584a1.872,1.872,0,0,0-.574-2.164L411.87,672.752a6.493,6.493,0,0,0-3.712-1.645Z" transform="translate(-402.776 -670.358)" fill="#1d1d1b"/>
        </g>
        <g id="Grupo_3606" data-name="Grupo 3606" transform="translate(447.4 709.938)" opacity="0.69">
          <path id="Caminho_23295" data-name="Caminho 23295" d="M437.36,688.728a2.889,2.889,0,0,1-3.387-.9l-18.2-21.643c-2.067-2.359-3.171-6.753-.714-8.787s6.017-.877,8.084,1.483l20,21.979a2.381,2.381,0,0,1,.454,2.814h0c-1.764,2.738-3.322,3.55-6.233,5.054Z" transform="translate(-413.216 -655.972)" fill="#e8e7db"/>
          <path id="Caminho_23296" data-name="Caminho 23296" d="M436.354,689.363a3.593,3.593,0,0,1-2.64-1.266l-18.191-21.643a9.393,9.393,0,0,1-2.164-4.707,4.859,4.859,0,0,1,1.461-4.6,5.162,5.162,0,0,1,4.523-.985,7.943,7.943,0,0,1,4.091,2.511l20,21.946a2.738,2.738,0,0,1,.5,3.246c-1.84,2.835-3.452,3.669-6.385,5.173h0a2.629,2.629,0,0,1-1.19.325Zm-18.321-32.584a3.907,3.907,0,0,0-3.907,4.9,8.657,8.657,0,0,0,1.97,4.329l18.2,21.643a2.51,2.51,0,0,0,2.922.8h0c2.814-1.461,4.329-2.262,6.082-4.924a2.013,2.013,0,0,0-.411-2.381l-20-21.9a7.2,7.2,0,0,0-3.7-2.283,5.411,5.411,0,0,0-1.158-.184Z" transform="translate(-413.249 -656.001)" fill="#1d1d1b"/>
        </g>
        <g id="Grupo_3607" data-name="Grupo 3607" transform="translate(467.481 700.019)" opacity="0.69">
          <path id="Caminho_23297" data-name="Caminho 23297" d="M445.311,681.663a2.673,2.673,0,0,1-2.868-1.677L432.7,655.745c-1.136-2.673-.693-6.937,2.283-8.138s5.93.768,7.067,3.441l11.309,25.009a2.229,2.229,0,0,1-.53,2.662h0c-2.565,2.013-4.329,2.348-7.521,2.943Z" transform="translate(-431.771 -646.802)" fill="#e8e7db"/>
          <path id="Caminho_23298" data-name="Caminho 23298" d="M444.927,682.108a3.127,3.127,0,0,1-2.8-1.948l-9.739-24.251c-1.147-2.705-.758-7.294,2.489-8.657s6.363.833,7.575,3.636L453.757,675.9a2.576,2.576,0,0,1-.638,3.084c-2.651,2.089-4.437,2.413-7.683,3.019h0a2.489,2.489,0,0,1-.509.108Zm-8.095-34.456a4.4,4.4,0,0,0-1.667.336c-2.824,1.19-3.149,5.216-2.067,7.683l9.739,24.24a2.294,2.294,0,0,0,2.446,1.461h0c3.127-.584,4.859-.909,7.359-2.868a1.861,1.861,0,0,0,.422-2.229l-11.309-25.041a5.638,5.638,0,0,0-4.924-3.582Z" transform="translate(-431.798 -646.836)" fill="#1d1d1b"/>
        </g>
        <g id="Grupo_3608" data-name="Grupo 3608" transform="translate(495.883 713.24)" opacity="0.69">
          <path id="Caminho_23299" data-name="Caminho 23299" d="M461.768,690.157c-1.288-1.6-3.528-4.329-3.4-5.616l3.246-19.024c.3-2.879,2.759-6.428,5.963-6.114s4.848,3.387,4.556,6.266l-1.991,26.513c-.455,1.266-.487,1.742-1.4,2.337l-.53.13a4.426,4.426,0,0,1-3.842-1.19Z" transform="translate(-458.006 -659.025)" fill="#e8e7db"/>
          <path id="Caminho_23300" data-name="Caminho 23300" d="M467.455,695.151a5.086,5.086,0,0,1-3.247-1.407l-2.868-3.55c-1.807-2.262-3.43-4.394-3.3-5.66l3.279-19.046c.3-2.889,2.9-6.742,6.374-6.417s5.194,3.658,4.891,6.677l-2.013,26.589c-.076.195-.141.379-.195.541a3.019,3.019,0,0,1-1.353,1.98h-.119l-.519.13a4.07,4.07,0,0,1-.931.162Zm-2.705-1.894a4.069,4.069,0,0,0,3.452,1.082l.454-.108c.617-.422.725-.747,1.006-1.58.054-.152.108-.314.184-.5l1.98-26.459c.281-2.662-1.223-5.595-4.21-5.887s-5.281,3.171-5.552,5.79l-3.3,19.057c-.108,1.082,2.013,3.69,3.149,5.119l2.835,3.506Z" transform="translate(-458.033 -659.052)" fill="#1d1d1b"/>
        </g>
        <g id="Grupo_3609" data-name="Grupo 3609" transform="translate(476.838 758.701)" opacity="0.69">
          <path id="Caminho_23301" data-name="Caminho 23301" d="M440.833,729.888c-.671-2.262,8.657-2.262,14.068-5.346,16.005-9.187,17.888-24.37,24.111-23.137,2.327.465,4.534,6.915,8.159,20.561,2.056,7.727,2.164,11.557.368,15.021-2.316,4.469-7,6.212-8.019,6.59-3.192,1.18-8.03,1.84-16.871-.92C455.442,740.428,442.1,734.173,440.833,729.888Z" transform="translate(-440.406 -701.036)" fill="#e8e7db"/>
          <path id="Caminho_23302" data-name="Caminho 23302" d="M473.511,745.028a36.976,36.976,0,0,1-10.962-1.969c-7.2-2.251-20.713-8.538-22.065-12.986h0a1.082,1.082,0,0,1,.108-.877c.574-.952,2.641-1.428,5.508-2.078a32.79,32.79,0,0,0,8.657-2.8c8.592-4.935,13.094-11.633,16.395-16.525,2.835-4.22,4.881-7.261,7.986-6.655,2.359.476,4.329,5.346,8.452,20.853,2.089,7.889,2.164,11.741.335,15.291a14.88,14.88,0,0,1-8.224,6.764,17.077,17.077,0,0,1-6.19.985Zm-32.3-15.215c1.169,3.907,13.549,10.042,21.568,12.542,9.3,2.922,13.938,1.926,16.611.931a14.068,14.068,0,0,0,7.824-6.406c1.742-3.355,1.645-7.088-.39-14.772-3.333-12.542-5.692-19.879-7.878-20.312-2.608-.53-4.437,2.164-7.207,6.331-3.333,4.956-7.9,11.731-16.644,16.752a32.931,32.931,0,0,1-8.82,2.889c-2.381.541-4.621,1.082-5.032,1.731a.325.325,0,0,0,0,.314Z" transform="translate(-440.436 -701.059)" fill="#1d1d1b"/>
        </g>
        <path id="Caminho_23303" data-name="Caminho 23303" d="M627.536,1017.5c12.77-10.032,21.135-26.556,21.135-45.3,0-30.593-22.238-55.385-49.682-55.385s-49.682,24.792-49.682,55.385c0,18.743,8.365,35.268,21.145,45.3H540.53v28.136H655.748V1017.5Z" transform="translate(44.695 75.395)" fill="#1d1d1b"/>
        <path id="Caminho_23304" data-name="Caminho 23304" d="M656.4,1046.349H540v-29.435h28.775c-12.553-10.573-20-27.13-20-44.661,0-30.885,22.563-56.013,50.31-56.013s50.321,25.128,50.321,56.013c0,17.531-7.445,34.088-20,44.661h27.054Zm-115.186-1.255h113.93V1018.18H625.751l1.439-1.082c13.083-10.27,20.9-27.054,20.9-44.8,0-30.192-22-54.758-49.055-54.758S549.978,942.1,549.978,972.3c0,17.78,7.813,34.532,20.907,44.8l1.428,1.082h-31.1Z" transform="translate(44.652 75.347)" fill="#fff"/>
        <rect id="Retângulo_5071" data-name="Retângulo 5071" width="122.652" height="97.698" transform="translate(581.471 1115.809)" fill="#1d1d1b"/>
        <path id="Caminho_23305" data-name="Caminho 23305" d="M660.41,1129.414H536.47V1030.45H660.41Zm-122.652-1.266H659.133v-96.443h-121.4Z" transform="translate(44.362 84.731)" fill="#fff"/>
        <path id="Caminho_23306" data-name="Caminho 23306" d="M433.276,1017.5c12.77-10.032,21.135-26.556,21.135-45.3,0-30.593-22.238-55.385-49.682-55.385s-49.682,24.792-49.682,55.385c0,18.743,8.365,35.268,21.146,45.3H346.27v28.136h115.2V1017.5Z" transform="translate(28.629 75.395)" fill="#1d1d1b"/>
        <path id="Caminho_23307" data-name="Caminho 23307" d="M462.142,1046.349H345.69v-29.435h28.775c-12.553-10.573-20-27.13-20-44.661,0-30.885,22.563-56.013,50.31-56.013S455.1,941.368,455.1,972.253c0,17.531-7.445,34.088-20,44.661h27.054Zm-115.186-1.255h113.93V1018.18h-29.37l1.439-1.082c13.083-10.27,20.9-27.054,20.9-44.8,0-30.192-22-54.758-49.055-54.758s-49.033,24.522-49.033,54.714c0,17.78,7.813,34.532,20.907,44.8l1.428,1.082H346.956Z" transform="translate(28.582 75.347)" fill="#fff"/>
        <rect id="Retângulo_5072" data-name="Retângulo 5072" width="122.652" height="97.698" transform="translate(371.133 1115.809)" fill="#1d1d1b"/>
        <path id="Caminho_23308" data-name="Caminho 23308" d="M466.129,1129.414H342.21V1030.45H466.129Zm-122.652-1.266h121.4v-96.443h-121.4Z" transform="translate(28.295 84.731)" fill="#fff"/>
        <path id="Caminho_23309" data-name="Caminho 23309" d="M242.215,1017.5c12.78-10.032,21.145-26.556,21.145-45.3,0-30.593-22.238-55.385-49.682-55.385s-49.693,24.792-49.693,55.385c0,18.743,8.376,35.268,21.146,45.3H155.22v28.136h115.2V1017.5Z" transform="translate(12.829 75.395)" fill="#1d1d1b"/>
        <path id="Caminho_23310" data-name="Caminho 23310" d="M271.092,1046.349H154.64v-29.435H183.4c-12.553-10.573-20-27.13-20-44.661,0-30.885,22.574-56.013,50.321-56.013s50.31,25.128,50.31,56.013c0,17.531-7.445,34.088-20,44.661h27.054Zm-115.2-1.255h113.93V1018.18H240.445l1.428-1.082c13.094-10.27,20.907-27.054,20.907-44.8,0-30.192-22.011-54.758-49.055-54.758S164.672,942.1,164.672,972.3c0,17.78,7.813,34.532,20.9,44.8l1.439,1.082H155.9Z" transform="translate(12.781 75.347)" fill="#fff"/>
        <rect id="Retângulo_5073" data-name="Retângulo 5073" width="122.652" height="97.698" transform="translate(164.282 1115.809)" fill="#1d1d1b"/>
        <path id="Caminho_23311" data-name="Caminho 23311" d="M275.079,1129.414H151.16V1030.45H275.079Zm-122.663-1.266h121.4v-96.443h-121.4Z" transform="translate(12.494 84.731)" fill="#fff"/>
        <path id="Caminho_23312" data-name="Caminho 23312" d="M825.936,1017.5c12.77-10.032,21.135-26.556,21.135-45.3,0-30.593-22.238-55.385-49.682-55.385s-49.726,24.792-49.726,55.385c0,18.743,8.365,35.268,21.146,45.3H738.93v28.136h115.2V1017.5Z" transform="translate(61.104 75.395)" fill="#1d1d1b"/>
        <path id="Caminho_23313" data-name="Caminho 23313" d="M854.845,1046.349H738.35v-29.435h28.775c-12.553-10.573-20-27.13-20-44.661,0-30.885,22.563-56.013,50.31-56.013s50.321,25.128,50.321,56.013c0,17.531-7.445,34.088-20,44.661h27.054Zm-115.186-1.255H853.546V1018.18H824.155l1.439-1.082c13.083-10.27,20.9-27.054,20.9-44.8,0-30.192-22-54.758-49.055-54.758S748.382,942.1,748.382,972.3c0,17.78,7.813,34.532,20.907,44.8l1.428,1.082h-31.1Z" transform="translate(61.056 75.347)" fill="#fff"/>
        <rect id="Retângulo_5074" data-name="Retângulo 5074" width="122.652" height="97.698" transform="translate(796.361 1115.809)" fill="#1d1d1b"/>
        <path id="Caminho_23314" data-name="Caminho 23314" d="M858.789,1129.414H734.87V1030.45H858.789Zm-122.7-1.266h121.44v-96.443H736.093Z" transform="translate(60.852 84.731)" fill="#fff"/>
        <path id="Caminho_23315" data-name="Caminho 23315" d="M746.151,1063.49h-4.329a62.6,62.6,0,0,0,14.891-40.819c0-33.46-25.388-60.6-56.705-60.6s-56.705,27.119-56.705,60.6a62.6,62.6,0,0,0,14.891,40.819h-1.721c-17.986,0-32.562,15.724-32.562,35.116H778.757C778.757,1079.214,764.148,1063.49,746.151,1063.49Z" transform="translate(51.606 79.113)" fill="#1d1d1b"/>
        <path id="Caminho_23316" data-name="Caminho 23316" d="M779.4,1099.279H623.36v-.628c0-19.706,14.891-35.711,33.19-35.711h.368a63.415,63.415,0,0,1-14.176-40.192c0-33.753,25.712-61.218,57.355-61.218s57.355,27.465,57.355,61.218a63.479,63.479,0,0,1-14.176,40.192h2.954c18.31,0,33.2,16.038,33.2,35.711Zm-154.749-1.266H778.131c-.314-18.721-14.512-33.85-31.935-33.85h-5.671l.887-1.082a62.1,62.1,0,0,0,14.739-40.408c0-33.06-25.16-59.952-56.078-59.952S644,989.612,644,1022.672a62.105,62.105,0,0,0,14.739,40.408l.9,1.082h-3.117c-17.38,0-31.588,15.129-31.891,33.85Z" transform="translate(51.561 79.068)" fill="#fff"/>
        <path id="Caminho_23317" data-name="Caminho 23317" d="M607.937,1086.81H799.762a4.848,4.848,0,0,1,4.848,4.848V1185.4H603.1v-93.737a4.848,4.848,0,0,1,4.837-4.848Z" transform="translate(49.902 89.362)" fill="#1d1d1b"/>
        <path id="Caminho_23318" data-name="Caminho 23318" d="M805.286,1186.073H602.51v-93.6a6.3,6.3,0,0,1,6.277-6.277H799.009a6.288,6.288,0,0,1,6.277,6.277Zm-201.51-1.266H804.031v-92.33a5.021,5.021,0,0,0-5.021-5.01H608.787a5.021,5.021,0,0,0-5.01,5.01Z" transform="translate(49.854 89.312)" fill="#fff"/>
        <path id="Caminho_23319" data-name="Caminho 23319" d="M552.28,1062.2h-4.329a62.56,62.56,0,0,0,14.9-40.819c0-33.46-25.388-60.6-56.716-60.6s-56.705,27.119-56.705,60.6a62.56,62.56,0,0,0,14.9,40.819h-1.71c-17.986,0-32.573,15.724-32.573,35.116h154.7C584.745,1077.892,570.212,1062.2,552.28,1062.2Z" transform="translate(35.568 79.007)" fill="#1d1d1b"/>
        <path id="Caminho_23320" data-name="Caminho 23320" d="M585.467,1097.985H429.43v-.573c0-19.706,14.891-35.711,33.2-35.711h.357a63.394,63.394,0,0,1-14.176-40.192c0-33.753,25.723-61.218,57.355-61.218s57.355,27.465,57.355,61.218a63.393,63.393,0,0,1-14.176,40.191h2.987c18.3,0,33.19,16.038,33.19,35.711Zm-154.75-1.266H584.2c-.3-18.722-14.512-33.839-31.924-33.839H546.6l.887-1.082a62.062,62.062,0,0,0,14.75-40.408c0-33.06-25.16-59.952-56.089-59.952s-56.078,26.892-56.078,59.952a62.062,62.062,0,0,0,14.75,40.408l.887,1.082h-3.073c-17.434,0-31.621,15.118-31.935,33.839Z" transform="translate(35.517 78.967)" fill="#fff"/>
        <path id="Caminho_23321" data-name="Caminho 23321" d="M411.637,1086.81H603.462a4.848,4.848,0,0,1,4.848,4.848V1185.4H406.8v-93.737A4.848,4.848,0,0,1,411.637,1086.81Z" transform="translate(33.657 89.362)" fill="#1d1d1b"/>
        <path id="Caminho_23322" data-name="Caminho 23322" d="M608.986,1186.073H406.21v-93.6a6.3,6.3,0,0,1,6.277-6.277H602.709a6.288,6.288,0,0,1,6.277,6.277Zm-201.51-1.266h200.2v-92.33a5.021,5.021,0,0,0-5.021-5.01H412.476a5.021,5.021,0,0,0-5.01,5.01Z" transform="translate(33.609 89.312)" fill="#fff"/>
        <path id="Caminho_23323" data-name="Caminho 23323" d="M357.33,1062.93H353a62.582,62.582,0,0,0,14.891-40.819c0-33.461-25.388-60.6-56.705-60.6s-56.705,27.119-56.705,60.6a62.582,62.582,0,0,0,14.891,40.819h-1.71c-17.986,0-32.562,15.724-32.562,35.116H389.85C389.9,1078.654,375.316,1062.93,357.33,1062.93Z" transform="translate(19.441 79.067)" fill="#1d1d1b"/>
        <path id="Caminho_23324" data-name="Caminho 23324" d="M390.577,1098.718H234.54v-.628c0-19.706,14.891-35.711,33.19-35.711h.368a63.392,63.392,0,0,1-14.176-40.192c0-33.753,25.712-61.207,57.355-61.207s57.355,27.455,57.355,61.207a63.458,63.458,0,0,1-14.176,40.192h2.954c18.31,0,33.2,16.038,33.2,35.711Zm-154.749-1.255H389.311c-.314-18.722-14.512-33.85-31.935-33.85h-5.671l.887-1.082a62.159,62.159,0,0,0,14.739-40.419c0-33.06-25.16-59.952-56.078-59.952s-56.078,26.892-56.078,59.952a62.16,62.16,0,0,0,14.739,40.419l.9,1.082H267.73c-17.412,0-31.61,15.129-31.924,33.85Z" transform="translate(19.394 79.023)" fill="#fff"/>
        <path id="Caminho_23325" data-name="Caminho 23325" d="M218.1,1086.81H409.933a4.848,4.848,0,0,1,4.848,4.848V1185.4H213.25v-93.737A4.848,4.848,0,0,1,218.1,1086.81Z" transform="translate(17.639 89.362)" fill="#1d1d1b"/>
        <path id="Caminho_23326" data-name="Caminho 23326" d="M415.392,1186.073H212.67v-93.6a6.287,6.287,0,0,1,6.266-6.276H409.169a6.287,6.287,0,0,1,6.222,6.277Zm-201.51-1.266h200.2v-92.33a5.021,5.021,0,0,0-5.01-5.01H218.936a5.021,5.021,0,0,0-5.01,5.01Z" transform="translate(17.592 89.312)" fill="#fff"/>
        <path id="Caminho_23327" data-name="Caminho 23327" d="M160.019,1062.93H155.69a62.582,62.582,0,0,0,14.891-40.819c0-33.461-25.388-60.6-56.705-60.6s-56.705,27.119-56.705,60.6A62.582,62.582,0,0,0,72.06,1062.93H70.372c-17.986,0-32.562,15.724-32.562,35.116H192.559C192.592,1078.654,178,1062.93,160.019,1062.93Z" transform="translate(3.098 79.067)" fill="#1d1d1b"/>
        <path id="Caminho_23328" data-name="Caminho 23328" d="M193.268,1098.718H37.22v-.628c0-19.706,14.9-35.711,33.2-35.711h.357A63.457,63.457,0,0,1,56.6,1022.187c0-33.753,25.723-61.207,57.355-61.207s57.355,27.455,57.355,61.207a63.393,63.393,0,0,1-14.176,40.192H160.1c18.31,0,33.2,16.038,33.2,35.711Zm-154.75-1.255H192c-.314-18.722-14.523-33.85-31.935-33.85h-5.681l.9-1.082a62.16,62.16,0,0,0,14.739-40.419c0-33.06-25.16-59.952-56.078-59.952s-56.078,26.978-56.078,60a62.159,62.159,0,0,0,14.739,40.419l.887,1.082H70.421c-17.412-.043-31.621,15.085-31.935,33.807Z" transform="translate(3.05 79.023)" fill="#fff"/>
        <path id="Caminho_23329" data-name="Caminho 23329" d="M20.777,1086.81H212.6a4.848,4.848,0,0,1,4.848,4.848V1185.4H15.94v-93.737A4.848,4.848,0,0,1,20.777,1086.81Z" transform="translate(1.301 89.362)" fill="#1d1d1b"/>
        <path id="Caminho_23330" data-name="Caminho 23330" d="M218.126,1186.073H15.35v-93.6a6.3,6.3,0,0,1,6.277-6.277H211.849a6.288,6.288,0,0,1,6.277,6.277Zm-201.51-1.266h200.2v-92.33a5.021,5.021,0,0,0-5.021-5.01H21.627a5.021,5.021,0,0,0-5.01,5.01Z" transform="translate(1.253 89.312)" fill="#fff"/>
        <path id="Caminho_23331" data-name="Caminho 23331" d="M945.03,1062.93H940.7a62.538,62.538,0,0,0,14.9-40.819c0-33.461-25.388-60.6-56.716-60.6s-56.705,27.119-56.705,60.6a62.538,62.538,0,0,0,14.9,40.819h-1.71c-17.986,0-32.573,15.724-32.573,35.116H977.549C977.593,1078.654,963.016,1062.93,945.03,1062.93Z" transform="translate(68.077 79.067)" fill="#1d1d1b"/>
        <path id="Caminho_23332" data-name="Caminho 23332" d="M978.267,1098.718H822.23v-.628c0-19.706,14.891-35.711,33.2-35.711h.357a63.393,63.393,0,0,1-14.176-40.192c0-33.753,25.723-61.207,57.355-61.207s57.355,27.455,57.355,61.207a63.393,63.393,0,0,1-14.176,40.192h2.965c18.3,0,33.19,16.038,33.19,35.711Zm-154.75-1.255H977c-.3-18.722-14.512-33.85-31.924-33.85H939.4l.887-1.082a62.106,62.106,0,0,0,14.8-40.375c0-33.06-25.16-59.952-56.089-59.952s-56.132,26.935-56.132,59.952a62.106,62.106,0,0,0,14.75,40.419l.887,1.082h-3.073c-17.423-.043-31.621,15.085-31.935,33.807Z" transform="translate(68.03 79.023)" fill="#fff"/>
        <path id="Caminho_23333" data-name="Caminho 23333" d="M805.788,1086.81H997.612a4.848,4.848,0,0,1,4.848,4.848V1185.4H800.94v-93.737A4.848,4.848,0,0,1,805.788,1086.81Z" transform="translate(66.281 89.362)" fill="#1d1d1b"/>
        <path id="Caminho_23334" data-name="Caminho 23334" d="M1003.136,1186.073H800.36v-93.6a6.287,6.287,0,0,1,6.276-6.276H996.859a6.288,6.288,0,0,1,6.277,6.277Zm-201.51-1.266h200.2v-92.33a5.021,5.021,0,0,0-5.01-5.01H806.636a5.01,5.01,0,0,0-5.01,5.01Z" transform="translate(66.233 89.312)" fill="#fff"/>
      </g>
    </g>
  </g>
</svg>
